Fraunces-BlackOpMin.ufo
<glyph name="exclam" format="2">
  <advance width="651"/>
  <unicode hex="0021"/>
  <outline>
    <contour>
      <point x="329" y="1492" type="curve" smooth="yes"/>
      <point x="162" y="1492"/>
      <point x="80" y="1414"/>
      <point x="80" y="1296" type="curve" smooth="yes"/>
      <point x="80" y="1254"/>
      <point x="86" y="1207"/>
      <point x="102" y="1144" type="curve" smooth="yes"/>
      <point x="260" y="536" type="line" smooth="yes"/>
      <point x="270" y="494"/>
      <point x="289" y="477"/>
      <point x="322" y="477" type="curve" smooth="yes"/>
      <point x="356" y="477"/>
      <point x="376" y="494"/>
      <point x="386" y="536" type="curve" smooth="yes"/>
      <point x="549" y="1137" type="line" smooth="yes"/>
      <point x="564" y="1190"/>
      <point x="571" y="1250"/>
      <point x="571" y="1290" type="curve" smooth="yes"/>
      <point x="571" y="1412"/>
      <point x="496" y="1492"/>
    </contour>
    <component base="period" xOffset="25"/>
  </outline>
</glyph>
<glyph name="ampersand" format="2">
  <advance width="1514"/>
  <unicode hex="0026"/>
  <outline>
    <contour>
      <point x="686.0" y="1228.0" type="curve" smooth="yes"/>
      <point x="620.0" y="1228.0"/>
      <point x="578.0" y="1140.0"/>
      <point x="578.0" y="1022.0" type="curve" smooth="yes"/>
      <point x="578.0" y="898.0"/>
      <point x="642.0" y="808.0"/>
      <point x="738.0" y="766.0" type="curve" smooth="yes"/>
      <point x="858.0" y="714.0"/>
      <point x="906.0" y="654.0"/>
      <point x="1010.0" y="562.0" type="curve" smooth="yes"/>
      <point x="1408.0" y="188.0" type="line" smooth="yes"/>
      <point x="1424.0" y="180.0"/>
      <point x="1420.0" y="166.0"/>
      <point x="1428.0" y="166.0" type="curve" smooth="yes"/>
      <point x="1504.0" y="150.0"/>
      <point x="1528.0" y="132.0"/>
      <point x="1528.0" y="82.0" type="curve" smooth="yes"/>
      <point x="1528.0" y="28.0"/>
      <point x="1492.0" y="2.0"/>
      <point x="1430.0" y="2.0" type="curve" smooth="yes"/>
      <point x="1156.0" y="2.0" type="line" smooth="yes"/>
      <point x="1094.0" y="2.0"/>
      <point x="1064.0" y="32.0"/>
      <point x="1022.0" y="70.0" type="curve" smooth="yes"/>
      <point x="612.0" y="464.0" type="line" smooth="yes"/>
      <point x="524.0" y="546.0"/>
      <point x="488.0" y="608.0"/>
      <point x="382.0" y="648.0" type="curve" smooth="yes"/>
      <point x="258.0" y="700.0"/>
      <point x="172.0" y="808.0"/>
      <point x="172.0" y="952.0" type="curve" smooth="yes"/>
      <point x="172.0" y="1192.0"/>
      <point x="390.0" y="1388.0"/>
      <point x="776.0" y="1388.0" type="curve" smooth="yes"/>
      <point x="1048.0" y="1388.0"/>
      <point x="1214.0" y="1246.0"/>
      <point x="1214.0" y="1036.0" type="curve" smooth="yes"/>
      <point x="1214.0" y="836.0"/>
      <point x="1014.0" y="718.0"/>
      <point x="612.0" y="666.0" type="curve"/>
      <point x="610.0" y="758.0" type="line"/>
      <point x="730.0" y="796.0"/>
      <point x="786.0" y="898.0"/>
      <point x="786.0" y="1044.0" type="curve" smooth="yes"/>
      <point x="786.0" y="1158.0"/>
      <point x="738.0" y="1228.0"/>
    </contour>
    <contour>
      <point x="540.0" y="566.0" type="line"/>
      <point x="476.0" y="564.0"/>
      <point x="416.0" y="474.0"/>
      <point x="416.0" y="380.0" type="curve" smooth="yes"/>
      <point x="416.0" y="256.0"/>
      <point x="494.0" y="176.0"/>
      <point x="612.0" y="176.0" type="curve" smooth="yes"/>
      <point x="714.0" y="176.0"/>
      <point x="798.0" y="186.0"/>
      <point x="866.0" y="288.0" type="curve"/>
      <point x="1012.0" y="200.0" type="line"/>
      <point x="866.0" y="20.0"/>
      <point x="694.0" y="-30.0"/>
      <point x="478.0" y="-30.0" type="curve" smooth="yes"/>
      <point x="174.0" y="-30.0"/>
      <point x="8.0" y="130.0"/>
      <point x="8.0" y="318.0" type="curve" smooth="yes"/>
      <point x="8.0" y="512.0"/>
      <point x="242.0" y="666.0"/>
      <point x="540.0" y="666.0" type="curve"/>
    </contour>
    <contour>
      <point x="1076.0" y="394.0" type="line"/>
      <point x="1060.0" y="334.0" type="line" smooth="yes"/>
      <point x="1104.0" y="376.0"/>
      <point x="1136.0" y="456.0"/>
      <point x="1136.0" y="492.0" type="curve" smooth="yes"/>
      <point x="1136.0" y="558.0"/>
      <point x="1122.0" y="598.0"/>
      <point x="1098.0" y="612.0" type="curve" smooth="yes"/>
      <point x="1088.0" y="620.0" type="line" smooth="yes"/>
      <point x="1058.0" y="642.0"/>
      <point x="1038.0" y="678.0"/>
      <point x="1038.0" y="706.0" type="curve" smooth="yes"/>
      <point x="1038.0" y="756.0"/>
      <point x="1066.0" y="778.0"/>
      <point x="1114.0" y="778.0" type="curve" smooth="yes"/>
      <point x="1386.0" y="778.0" type="line" smooth="yes"/>
      <point x="1458.0" y="778.0"/>
      <point x="1494.0" y="750.0"/>
      <point x="1494.0" y="686.0" type="curve" smooth="yes"/>
      <point x="1494.0" y="640.0"/>
      <point x="1472.0" y="596.0"/>
      <point x="1406.0" y="568.0" type="curve" smooth="yes"/>
      <point x="1382.0" y="562.0"/>
      <point x="1358.0" y="522.0"/>
      <point x="1276.0" y="420.0" type="curve" smooth="yes"/>
      <point x="1192.0" y="346.0" type="line"/>
    </contour>
  </outline>
</glyph>
<glyph name="asterisk" format="2">
  <advance width="1250"/>
  <unicode hex="002A"/>
  <outline>
    <contour>
      <point x="630" y="958" type="line"/>
      <point x="473" y="1009"/>
      <point x="456" y="1201"/>
      <point x="311" y="1248" type="curve" smooth="yes"/>
      <point x="189" y="1288"/>
      <point x="97" y="1232"/>
      <point x="63" y="1126" type="curve" smooth="yes"/>
      <point x="23" y="1004"/>
      <point x="77" y="904"/>
      <point x="187" y="868" type="curve" smooth="yes"/>
      <point x="331" y="821"/>
      <point x="456" y="961"/>
      <point x="616" y="910" type="curve"/>
    </contour>
    <contour>
      <point x="646" y="937" type="line"/>
      <point x="646" y="1104"/>
      <point x="824" y="1178"/>
      <point x="824" y="1331" type="curve" smooth="yes"/>
      <point x="824" y="1459"/>
      <point x="741" y="1529"/>
      <point x="629" y="1529" type="curve" smooth="yes"/>
      <point x="503" y="1529"/>
      <point x="424" y="1446"/>
      <point x="424" y="1331" type="curve" smooth="yes"/>
      <point x="424" y="1180"/>
      <point x="596" y="1104"/>
      <point x="596" y="937" type="curve"/>
    </contour>
    <contour>
      <point x="606" y="950" type="line"/>
      <point x="509" y="816"/>
      <point x="321" y="859"/>
      <point x="231" y="736" type="curve" smooth="yes"/>
      <point x="157" y="632"/>
      <point x="182" y="527"/>
      <point x="271" y="461" type="curve" smooth="yes"/>
      <point x="374" y="387"/>
      <point x="488" y="407"/>
      <point x="555" y="500" type="curve" smooth="yes"/>
      <point x="643" y="622"/>
      <point x="550" y="786"/>
      <point x="647" y="920" type="curve"/>
    </contour>
    <contour>
      <point x="606" y="924" type="line"/>
      <point x="705" y="789"/>
      <point x="604" y="624"/>
      <point x="693" y="501" type="curve" smooth="yes"/>
      <point x="770" y="398"/>
      <point x="878" y="389"/>
      <point x="968" y="455" type="curve" smooth="yes"/>
      <point x="1070" y="529"/>
      <point x="1086" y="643"/>
      <point x="1018" y="736" type="curve" smooth="yes"/>
      <point x="930" y="858"/>
      <point x="746" y="819"/>
      <point x="647" y="954" type="curve"/>
    </contour>
    <contour>
      <point x="630" y="916" type="line"/>
      <point x="790" y="968"/>
      <point x="915" y="822"/>
      <point x="1060" y="869" type="curve" smooth="yes"/>
      <point x="1182" y="908"/>
      <point x="1223" y="1008"/>
      <point x="1189" y="1114" type="curve" smooth="yes"/>
      <point x="1150" y="1236"/>
      <point x="1046" y="1285"/>
      <point x="936" y="1249" type="curve" smooth="yes"/>
      <point x="794" y="1202"/>
      <point x="774" y="1016"/>
      <point x="616" y="964" type="curve"/>
    </contour>
    <contour>
      <point x="620.0" y="774" type="curve" smooth="yes"/>
      <point x="715" y="774"/>
      <point x="792" y="850"/>
      <point x="792" y="946.0" type="curve" smooth="yes"/>
      <point x="792" y="1041"/>
      <point x="715" y="1118"/>
      <point x="620.0" y="1118" type="curve" smooth="yes"/>
      <point x="526" y="1118"/>
      <point x="448" y="1041"/>
      <point x="448" y="946.0" type="curve" smooth="yes"/>
      <point x="448" y="850"/>
      <point x="526" y="774"/>
    </contour>
  </outline>
</glyph>
<glyph name="comma" format="2">
  <advance width="658"/>
  <unicode hex="002C"/>
  <outline>
    <contour>
      <point x="204.0" y="6.0" type="curve" smooth="yes"/>
      <point x="292.0" y="-30.0" type="line" smooth="yes"/>
      <point x="354.0" y="-58.0"/>
      <point x="374.0" y="-106.0"/>
      <point x="374.0" y="-186.0" type="curve" smooth="yes"/>
      <point x="374.0" y="-210.0"/>
      <point x="282.0" y="-240.0"/>
      <point x="156.0" y="-256.0" type="curve" smooth="yes"/>
      <point x="82.0" y="-264.0"/>
      <point x="58.0" y="-306.0"/>
      <point x="58.0" y="-348.0" type="curve" smooth="yes"/>
      <point x="58.0" y="-398.0"/>
      <point x="90.0" y="-436.0"/>
      <point x="154.0" y="-436.0" type="curve" smooth="yes"/>
      <point x="388.0" y="-436.0"/>
      <point x="628.0" y="-258.0"/>
      <point x="628.0" y="-12.0" type="curve" smooth="yes"/>
      <point x="628.0" y="290.0"/>
      <point x="474.0" y="448.0"/>
      <point x="306.0" y="448.0" type="curve" smooth="yes"/>
      <point x="172.0" y="448.0"/>
      <point x="68.0" y="354.0"/>
      <point x="68.0" y="230.0" type="curve" smooth="yes"/>
      <point x="68.0" y="140.0"/>
      <point x="102.0" y="56.0"/>
    </contour>
  </outline>
</glyph>
<glyph name="two" format="2">
  <advance width="1312"/>
  <unicode hex="0032"/>
  <outline>
    <contour>
      <point x="378" y="584" type="curve" smooth="yes"/>
      <point x="99" y="433"/>
      <point x="38" y="307"/>
      <point x="38" y="171" type="curve" smooth="yes"/>
      <point x="38" y="37"/>
      <point x="105" y="-40"/>
      <point x="212" y="-40" type="curve" smooth="yes"/>
      <point x="330" y="-40"/>
      <point x="385" y="30"/>
      <point x="385" y="105" type="curve" smooth="yes"/>
      <point x="385" y="112"/>
      <point x="385" y="118"/>
      <point x="385" y="133" type="curve" smooth="yes"/>
      <point x="385" y="182"/>
      <point x="402" y="200"/>
      <point x="436" y="200" type="curve" smooth="yes"/>
      <point x="464" y="200"/>
      <point x="487" y="173"/>
      <point x="528" y="119" type="curve" smooth="yes"/>
      <point x="602" y="21"/>
      <point x="694" y="-40"/>
      <point x="858" y="-40" type="curve" smooth="yes"/>
      <point x="1084" y="-40"/>
      <point x="1219" y="96"/>
      <point x="1248" y="396" type="curve" smooth="yes"/>
      <point x="1257" y="494"/>
      <point x="1223" y="552"/>
      <point x="1156" y="552" type="curve" smooth="yes"/>
      <point x="1119" y="552"/>
      <point x="1079" y="535"/>
      <point x="1063" y="483" type="curve" smooth="yes"/>
      <point x="1043" y="412"/>
      <point x="995" y="392"/>
      <point x="910" y="392" type="curve" smooth="yes"/>
      <point x="829" y="392"/>
      <point x="686" y="448"/>
      <point x="572" y="449" type="curve" smooth="yes"/>
      <point x="469" y="450"/>
      <point x="419" y="404"/>
      <point x="364" y="327" type="curve"/>
      <point x="378" y="321" type="line"/>
      <point x="445" y="428"/>
      <point x="541" y="503"/>
      <point x="774" y="557" type="curve" smooth="yes"/>
      <point x="1085" y="629"/>
      <point x="1201" y="823"/>
      <point x="1201" y="1029" type="curve" smooth="yes"/>
      <point x="1201" y="1278"/>
      <point x="1040" y="1440"/>
      <point x="649" y="1440" type="curve" smooth="yes"/>
      <point x="258.55080213903744" y="1440.0"/>
      <point x="83.0" y="1253.0"/>
      <point x="83" y="1051" type="curve" smooth="yes"/>
      <point x="83.0" y="908.0"/>
      <point x="157.92105263157896" y="825.0"/>
      <point x="278" y="825" type="curve" smooth="yes"/>
      <point x="402" y="825"/>
      <point x="511" y="912"/>
      <point x="511" y="1047" type="curve" smooth="yes"/>
      <point x="511" y="1133" type="line" smooth="yes"/>
      <point x="511" y="1223"/>
      <point x="546" y="1287"/>
      <point x="622" y="1287" type="curve" smooth="yes"/>
      <point x="678" y="1287"/>
      <point x="716" y="1227"/>
      <point x="716" y="1084" type="curve" smooth="yes"/>
      <point x="716" y="845"/>
      <point x="622" y="717"/>
    </contour>
  </outline>
</glyph>
<glyph name="four" format="2">
  <advance width="1392"/>
  <unicode hex="0034"/>
  <outline>
    <contour>
      <point x="675" y="689"/>
      <point x="657" y="646"/>
      <point x="657" y="591" type="curve" smooth="yes"/>
      <point x="658" y="322" type="line" smooth="yes"/>
      <point x="658" y="257"/>
      <point x="629" y="224"/>
      <point x="563" y="212" type="curve" smooth="yes"/>
      <point x="512" y="203" type="line" smooth="yes"/>
      <point x="447" y="191"/>
      <point x="411" y="144"/>
      <point x="411" y="95" type="curve" smooth="yes"/>
      <point x="411" y="27"/>
      <point x="440" y="0"/>
      <point x="506" y="0" type="curve" smooth="yes"/>
      <point x="1213" y="0" type="line" smooth="yes"/>
      <point x="1291" y="0"/>
      <point x="1327" y="31"/>
      <point x="1327" y="108" type="curve" smooth="yes"/>
      <point x="1327" y="167"/>
      <point x="1288" y="206"/>
      <point x="1227" y="208" type="curve" smooth="yes"/>
      <point x="1194" y="209" type="line" smooth="yes"/>
      <point x="1137" y="211"/>
      <point x="1108" y="251"/>
      <point x="1108" y="315" type="curve" smooth="yes"/>
      <point x="1105" y="886" type="line" smooth="yes"/>
      <point x="1105" y="943"/>
      <point x="1079" y="967"/>
      <point x="1041" y="967" type="curve" smooth="yes"/>
      <point x="1011" y="967"/>
      <point x="988" y="954"/>
      <point x="940" y="914" type="curve" smooth="yes"/>
      <point x="710" y="719" type="line" smooth="yes"/>
    </contour>
    <contour>
      <point x="380" y="847" type="curve" smooth="yes"/>
      <point x="111" y="618" type="line" smooth="yes"/>
      <point x="50" y="566"/>
      <point x="20" y="503"/>
      <point x="20" y="459" type="curve" smooth="yes"/>
      <point x="20" y="391"/>
      <point x="62" y="352"/>
      <point x="137" y="352" type="curve" smooth="yes"/>
      <point x="1224" y="352" type="line" smooth="yes"/>
      <point x="1299" y="352"/>
      <point x="1332" y="393"/>
      <point x="1332" y="458" type="curve" smooth="yes"/>
      <point x="1332" y="522"/>
      <point x="1283" y="553"/>
      <point x="1224" y="553" type="curve" smooth="yes"/>
      <point x="181" y="553" type="line"/>
      <point x="205" y="464" type="line"/>
      <point x="791" y="939" type="line" smooth="yes"/>
      <point x="956" y="1072"/>
      <point x="998" y="1163"/>
      <point x="998" y="1241" type="curve" smooth="yes"/>
      <point x="998" y="1378"/>
      <point x="884" y="1474"/>
      <point x="733" y="1474" type="curve" smooth="yes"/>
      <point x="540.6506024096385" y="1474.0"/>
      <point x="424.0" y="1350.888475836431"/>
      <point x="424" y="1225" type="curve" smooth="yes"/>
      <point x="424.0" y="1132.063829787234"/>
      <point x="478.0" y="1103.2978723404256"/>
      <point x="478" y="1017" type="curve" smooth="yes"/>
      <point x="478" y="969"/>
      <point x="461" y="916"/>
    </contour>
  </outline>
</glyph>
<glyph name="five" format="2">
  <advance width="1205"/>
  <unicode hex="0035"/>
  <outline>
    <contour>
      <point x="71" y="294" type="curve" smooth="yes"/>
      <point x="71" y="110"/>
      <point x="243" y="-30"/>
      <point x="552" y="-30" type="curve" smooth="yes"/>
      <point x="910" y="-30"/>
      <point x="1136" y="140"/>
      <point x="1136" y="423" type="curve" smooth="yes"/>
      <point x="1136" y="680"/>
      <point x="935" y="844"/>
      <point x="634" y="844" type="curve" smooth="yes"/>
      <point x="450" y="844"/>
      <point x="352" y="802"/>
      <point x="235" y="692" type="curve"/>
      <point x="280" y="676" type="line"/>
      <point x="280" y="1157" type="line"/>
      <point x="206" y="1058" type="line"/>
      <point x="314" y="1010"/>
      <point x="484" y="973"/>
      <point x="644" y="973" type="curve" smooth="yes"/>
      <point x="954" y="973"/>
      <point x="1105" y="1078"/>
      <point x="1132" y="1386" type="curve" smooth="yes"/>
      <point x="1138" y="1424"/>
      <point x="1126" y="1441"/>
      <point x="1110" y="1447" type="curve" smooth="yes"/>
      <point x="1088" y="1455"/>
      <point x="1070" y="1446"/>
      <point x="1054" y="1432" type="curve" smooth="yes"/>
      <point x="1015" y="1384"/>
      <point x="900" y="1349"/>
      <point x="740" y="1349" type="curve" smooth="yes"/>
      <point x="596" y="1349"/>
      <point x="454" y="1371"/>
      <point x="328" y="1408" type="curve" smooth="yes"/>
      <point x="302" y="1416"/>
      <point x="276" y="1422"/>
      <point x="250" y="1422" type="curve" smooth="yes"/>
      <point x="190" y="1422"/>
      <point x="165" y="1389"/>
      <point x="165" y="1336" type="curve" smooth="yes"/>
      <point x="165" y="659" type="line" smooth="yes"/>
      <point x="165" y="620"/>
      <point x="192" y="600"/>
      <point x="222" y="600" type="curve" smooth="yes"/>
      <point x="248" y="600"/>
      <point x="264" y="611"/>
      <point x="299" y="630" type="curve" smooth="yes"/>
      <point x="367" y="691"/>
      <point x="432" y="722"/>
      <point x="504" y="722" type="curve" smooth="yes"/>
      <point x="628" y="722"/>
      <point x="704" y="616"/>
      <point x="704" y="370" type="curve" smooth="yes"/>
      <point x="704" y="152"/>
      <point x="651" y="50"/>
      <point x="573" y="50" type="curve" smooth="yes"/>
      <point x="503" y="50"/>
      <point x="462" y="100"/>
      <point x="462" y="158" type="curve" smooth="yes"/>
      <point x="462" y="310" type="line" smooth="yes"/>
      <point x="462" y="424"/>
      <point x="391" y="504"/>
      <point x="280" y="504" type="curve" smooth="yes"/>
      <point x="162" y="504"/>
      <point x="71" y="415"/>
    </contour>
  </outline>
</glyph>
<glyph name="eight" format="2">
  <advance width="1319"/>
  <unicode hex="0038"/>
  <outline>
    <contour>
      <point x="613" y="-39" type="curve" smooth="yes"/>
      <point x="1022" y="-39"/>
      <point x="1248" y="138"/>
      <point x="1248" y="380" type="curve" smooth="yes"/>
      <point x="1248" y="555"/>
      <point x="1114" y="684"/>
      <point x="837" y="772" type="curve" smooth="yes"/>
      <point x="613.7348036547307" y="842.9921592065602"/>
      <point x="512.0" y="957.0"/>
      <point x="512" y="1113" type="curve" smooth="yes"/>
      <point x="512" y="1214"/>
      <point x="560" y="1286"/>
      <point x="665" y="1286" type="curve" smooth="yes"/>
      <point x="779" y="1286"/>
      <point x="824" y="1210"/>
      <point x="824" y="1096" type="curve" smooth="yes"/>
      <point x="824.0" y="966.0"/>
      <point x="778.1069025213483" y="860.2326893682462"/>
      <point x="712" y="797" type="curve"/>
      <point x="750" y="728" type="line"/>
      <point x="1122.4151696606787" y="728.0"/>
      <point x="1241.0" y="905.0"/>
      <point x="1241" y="1070" type="curve" smooth="yes"/>
      <point x="1241" y="1287"/>
      <point x="1037" y="1440"/>
      <point x="719" y="1440" type="curve" smooth="yes"/>
      <point x="282" y="1440"/>
      <point x="91" y="1212"/>
      <point x="91" y="973" type="curve" smooth="yes"/>
      <point x="91.0" y="781.0"/>
      <point x="215.40831271677155" y="637.7997780978098"/>
      <point x="515" y="556" type="curve" smooth="yes"/>
      <point x="738" y="495"/>
      <point x="800" y="399"/>
      <point x="800" y="273" type="curve" smooth="yes"/>
      <point x="800" y="170"/>
      <point x="758" y="104"/>
      <point x="665" y="104" type="curve" smooth="yes"/>
      <point x="554" y="104"/>
      <point x="512" y="185"/>
      <point x="512" y="279" type="curve" smooth="yes"/>
      <point x="512" y="379"/>
      <point x="539" y="489"/>
      <point x="596" y="543" type="curve"/>
      <point x="599" y="602" type="line"/>
      <point x="242" y="602"/>
      <point x="85" y="457"/>
      <point x="85" y="273" type="curve" smooth="yes"/>
      <point x="85" y="96"/>
      <point x="234" y="-39"/>
    </contour>
  </outline>
</glyph>
<glyph name="colon" format="2">
  <advance width="576"/>
  <unicode hex="003A"/>
  <outline>
    <contour>
      <point x="322.1" y="-30.010000000000005" type="curve" smooth="yes"/>
      <point x="469.34600000000006" y="-30.010000000000005"/>
      <point x="582.4480000000001" y="91.62800000000001"/>
      <point x="582.4480000000001" y="234.60600000000005" type="curve" smooth="yes"/>
      <point x="582.4480000000001" y="379.7180000000001"/>
      <point x="469.34600000000006" y="497.0880000000001"/>
      <point x="322.1" y="497.0880000000001" type="curve" smooth="yes"/>
      <point x="176.98800000000003" y="497.0880000000001"/>
      <point x="63.88600000000001" y="379.7180000000001"/>
      <point x="63.88600000000001" y="234.60600000000005" type="curve" smooth="yes"/>
      <point x="63.88600000000001" y="91.62800000000001"/>
      <point x="176.98800000000003" y="-30.010000000000005"/>
    </contour>
    <contour>
      <point x="322.1" y="523.99" type="curve" smooth="yes"/>
      <point x="469.34600000000006" y="523.99"/>
      <point x="582.4480000000001" y="645.628"/>
      <point x="582.4480000000001" y="788.606" type="curve" smooth="yes"/>
      <point x="582.4480000000001" y="933.7180000000001"/>
      <point x="469.34600000000006" y="1051.0880000000002"/>
      <point x="322.1" y="1051.0880000000002" type="curve" smooth="yes"/>
      <point x="176.98800000000003" y="1051.0880000000002"/>
      <point x="63.88600000000001" y="933.7180000000001"/>
      <point x="63.88600000000001" y="788.606" type="curve" smooth="yes"/>
      <point x="63.88600000000001" y="645.628"/>
      <point x="176.98800000000003" y="523.99"/>
    </contour>
  </outline>
</glyph>
<glyph name="less" format="2">
  <advance width="1120"/>
  <unicode hex="003C"/>
  <outline>
    <contour>
      <point x="381" y="708" type="line"/>
      <point x="908" y="410" type="line" smooth="yes"/>
      <point x="981" y="369"/>
      <point x="1010" y="310"/>
      <point x="1010" y="265" type="curve" smooth="yes"/>
      <point x="1011" y="198"/>
      <point x="978" y="149"/>
      <point x="903" y="149" type="curve" smooth="yes"/>
      <point x="841" y="149"/>
      <point x="787" y="182"/>
      <point x="696" y="232" type="curve" smooth="yes"/>
      <point x="206" y="501" type="line" smooth="yes"/>
      <point x="129" y="543"/>
      <point x="90" y="607"/>
      <point x="90" y="684" type="curve" smooth="yes"/>
      <point x="90" y="761"/>
      <point x="129" y="825"/>
      <point x="206" y="867" type="curve" smooth="yes"/>
      <point x="696" y="1136" type="line" smooth="yes"/>
      <point x="787" y="1186"/>
      <point x="841" y="1219"/>
      <point x="903" y="1219" type="curve" smooth="yes"/>
      <point x="978" y="1219"/>
      <point x="1011" y="1170"/>
      <point x="1010" y="1103" type="curve" smooth="yes"/>
      <point x="1010" y="1058"/>
      <point x="981" y="999"/>
      <point x="908" y="958" type="curve" smooth="yes"/>
      <point x="381" y="660" type="line"/>
    </contour>
  </outline>
</glyph>
<glyph name="greater" format="2">
  <advance width="1183"/>
  <unicode hex="003E"/>
  <outline>
    <contour>
      <point x="187" y="194" type="curve" smooth="yes"/>
      <point x="164" y="271"/>
      <point x="211" y="343"/>
      <point x="403" y="404" type="curve" smooth="yes"/>
      <point x="552" y="479"/>
      <point x="777" y="557"/>
      <point x="1012" y="628" type="curve"/>
      <point x="1012" y="596" type="line"/>
      <point x="777" y="667"/>
      <point x="548" y="737"/>
      <point x="397" y="822" type="curve" smooth="yes"/>
      <point x="240" y="881"/>
      <point x="173" y="935"/>
      <point x="190" y="1010" type="curve" smooth="yes"/>
      <point x="220" y="1095"/>
      <point x="354" y="1107"/>
      <point x="460" y="1034" type="curve" smooth="yes"/>
      <point x="524" y="955"/>
      <point x="799" y="818"/>
      <point x="1009" y="733" type="curve" smooth="yes"/>
      <point x="1136" y="702"/>
      <point x="1181" y="658"/>
      <point x="1181" y="612" type="curve" smooth="yes"/>
      <point x="1181" y="567"/>
      <point x="1134" y="523"/>
      <point x="1009" y="491" type="curve" smooth="yes"/>
      <point x="799" y="407"/>
      <point x="544" y="257"/>
      <point x="460" y="190" type="curve" smooth="yes"/>
      <point x="312" y="117"/>
      <point x="206" y="133"/>
    </contour>
  </outline>
</glyph>
<glyph name="question" format="2">
  <advance width="1214"/>
  <unicode hex="003F"/>
  <outline>
    <contour>
      <point x="396" y="657" type="line" smooth="yes"/>
      <point x="377" y="738"/>
      <point x="401" y="800"/>
      <point x="499" y="852" type="curve" smooth="yes"/>
      <point x="563" y="886" type="line" smooth="yes"/>
      <point x="655" y="935"/>
      <point x="687" y="1000"/>
      <point x="687" y="1134" type="curve" smooth="yes"/>
      <point x="687" y="1236"/>
      <point x="642" y="1298"/>
      <point x="576" y="1298" type="curve" smooth="yes"/>
      <point x="515" y="1298"/>
      <point x="480" y="1268"/>
      <point x="480" y="1213" type="curve" smooth="yes"/>
      <point x="480" y="1139" type="line" smooth="yes"/>
      <point x="480" y="980"/>
      <point x="399" y="892"/>
      <point x="252" y="892" type="curve" smooth="yes"/>
      <point x="127" y="892"/>
      <point x="45" y="968"/>
      <point x="45" y="1101" type="curve" smooth="yes"/>
      <point x="45" y="1306"/>
      <point x="274" y="1476"/>
      <point x="595" y="1476" type="curve" smooth="yes"/>
      <point x="983" y="1476"/>
      <point x="1159" y="1342"/>
      <point x="1159" y="1094" type="curve" smooth="yes"/>
      <point x="1159" y="893"/>
      <point x="1064" y="780"/>
      <point x="796" y="733" type="curve" smooth="yes"/>
      <point x="756" y="726" type="line" smooth="yes"/>
      <point x="705" y="717"/>
      <point x="702" y="689"/>
      <point x="692" y="660" type="curve" smooth="yes"/>
      <point x="686" y="642" type="line" smooth="yes"/>
      <point x="648" y="527"/>
      <point x="618" y="484"/>
      <point x="544" y="484" type="curve" smooth="yes"/>
      <point x="468" y="484"/>
      <point x="425" y="535"/>
      <point x="401" y="636" type="curve" smooth="yes"/>
    </contour>
    <component base="period" xOffset="206"/>
  </outline>
</glyph>
<glyph name="A" format="2">
  <advance width="792"/>
  <unicode hex="0041"/>
  <anchor x="421" y="731" name="center"/>
  <outline>
    <contour>
      <point x="222" y="328" type="line"/>
      <point x="224" y="230" type="line"/>
      <point x="540" y="230" type="line"/>
      <point x="534" y="328" type="line"/>
    </contour>
    <contour>
      <point x="325" y="50" type="curve" smooth="yes"/>
      <point x="325" y="70"/>
      <point x="312" y="93"/>
      <point x="295" y="110" type="curve" smooth="yes"/>
      <point x="282" y="122" type="line" smooth="yes"/>
      <point x="262" y="140"/>
      <point x="249" y="177"/>
      <point x="258" y="216" type="curve"/>
      <point x="337" y="561" type="line" smooth="yes"/>
      <point x="368" y="561" type="line"/>
      <point x="465" y="169" type="line" smooth="yes"/>
      <point x="473" y="138"/>
      <point x="469" y="115"/>
      <point x="464" y="111" type="curve" smooth="yes"/>
      <point x="455" y="103" type="line" smooth="yes"/>
      <point x="437" y="87"/>
      <point x="416" y="81"/>
      <point x="416" y="50" type="curve" smooth="yes"/>
      <point x="416" y="17"/>
      <point x="432" y="0"/>
      <point x="456" y="0" type="curve" smooth="yes"/>
      <point x="717" y="0" type="line" smooth="yes"/>
      <point x="754" y="0"/>
      <point x="777" y="17"/>
      <point x="777" y="49" type="curve" smooth="yes"/>
      <point x="777" y="76"/>
      <point x="774" y="89"/>
      <point x="741" y="116" type="curve" smooth="yes"/>
      <point x="713" y="138"/>
      <point x="700" y="182"/>
      <point x="694" y="207" type="curve" smooth="yes"/>
      <point x="607" y="540" type="line" smooth="yes"/>
      <point x="604" y="553"/>
      <point x="603" y="564"/>
      <point x="603" y="572" type="curve" smooth="yes"/>
      <point x="604" y="582"/>
      <point x="607" y="589"/>
      <point x="613" y="594" type="curve" smooth="yes"/>
      <point x="636" y="612"/>
      <point x="646" y="627"/>
      <point x="646" y="651" type="curve" smooth="yes"/>
      <point x="646" y="680"/>
      <point x="624" y="700"/>
      <point x="593" y="700" type="curve" smooth="yes"/>
      <point x="210" y="700" type="line" smooth="yes"/>
      <point x="183" y="700"/>
      <point x="159" y="679"/>
      <point x="159" y="650" type="curve" smooth="yes"/>
      <point x="159" y="626"/>
      <point x="168" y="608"/>
      <point x="185" y="596" type="curve" smooth="yes"/>
      <point x="195" y="589"/>
      <point x="201" y="577"/>
      <point x="201" y="559" type="curve" smooth="yes"/>
      <point x="201" y="550"/>
      <point x="200" y="539"/>
      <point x="197" y="525" type="curve" smooth="yes"/>
      <point x="126" y="216" type="line" smooth="yes"/>
      <point x="119" y="186"/>
      <point x="100" y="159"/>
      <point x="75" y="137" type="curve" smooth="yes"/>
      <point x="50" y="115" type="line" smooth="yes"/>
      <point x="29" y="96"/>
      <point x="15" y="72"/>
      <point x="15" y="55" type="curve" smooth="yes"/>
      <point x="15" y="15"/>
      <point x="31" y="0"/>
      <point x="67" y="0" type="curve" smooth="yes"/>
      <point x="284" y="0" type="line" smooth="yes"/>
      <point x="309" y="0"/>
      <point x="325" y="20"/>
    </contour>
  </outline>
</glyph>
<glyph name="B" format="2">
  <advance width="762"/>
  <unicode hex="0042"/>
  <outline>
    <contour>
      <point x="742" y="172" type="curve" smooth="yes"/>
      <point x="742" y="276"/>
      <point x="633" y="346"/>
      <point x="470" y="346" type="curve"/>
      <point x="472" y="322" type="line"/>
      <point x="621" y="322"/>
      <point x="702" y="393"/>
      <point x="702" y="488" type="curve" smooth="yes"/>
      <point x="702" y="617"/>
      <point x="589" y="700"/>
      <point x="410" y="700" type="curve" smooth="yes"/>
      <point x="79" y="700" type="line" smooth="yes"/>
      <point x="50" y="700"/>
      <point x="30" y="679"/>
      <point x="30" y="648" type="curve" smooth="yes"/>
      <point x="30" y="617"/>
      <point x="47" y="598"/>
      <point x="78" y="590" type="curve" smooth="yes"/>
      <point x="94" y="586" type="line" smooth="yes"/>
      <point x="111" y="582"/>
      <point x="120" y="569"/>
      <point x="120" y="543" type="curve" smooth="yes"/>
      <point x="120" y="157" type="line" smooth="yes"/>
      <point x="120" y="131"/>
      <point x="111" y="118"/>
      <point x="94" y="114" type="curve" smooth="yes"/>
      <point x="78" y="110" type="line" smooth="yes"/>
      <point x="47" y="102"/>
      <point x="30" y="83"/>
      <point x="30" y="52" type="curve" smooth="yes"/>
      <point x="30" y="21"/>
      <point x="50" y="0"/>
      <point x="79" y="0" type="curve" smooth="yes"/>
      <point x="467" y="0" type="line" smooth="yes"/>
      <point x="655.0" y="0.0"/>
      <point x="742.0" y="79.0"/>
    </contour>
    <contour>
      <point x="406" y="281" type="line" smooth="yes"/>
      <point x="475" y="281"/>
      <point x="519" y="242"/>
      <point x="519" y="180" type="curve" smooth="yes"/>
      <point x="519" y="121"/>
      <point x="487" y="87"/>
      <point x="439" y="87" type="curve" smooth="yes"/>
      <point x="408" y="87" type="line" smooth="yes"/>
      <point x="373" y="87"/>
      <point x="342" y="111"/>
      <point x="342" y="158" type="curve" smooth="yes"/>
      <point x="342" y="589" type="line"/>
      <point x="353" y="589" type="line" smooth="yes"/>
      <point x="440.3070866141732" y="589"/>
      <point x="485.0" y="546.0"/>
      <point x="485" y="473" type="curve" smooth="yes"/>
      <point x="485.0" y="396.0"/>
      <point x="442.9381443298969" y="361"/>
      <point x="383" y="361" type="curve" smooth="yes"/>
      <point x="269" y="361" type="line"/>
      <point x="269" y="281" type="line"/>
    </contour>
  </outline>
</glyph>
<glyph name="C" format="2">
  <advance width="1398"/>
  <unicode hex="0043"/>
  <anchor x="714.0" y="1550.0" name="center"/>
  <outline>
    <contour>
      <point x="1376.0" y="446.0" type="curve" smooth="yes"/>
      <point x="1376.0" y="498.0"/>
      <point x="1348.0" y="542.0"/>
      <point x="1322.0" y="542.0" type="curve" smooth="yes"/>
      <point x="1292.0" y="542.0"/>
      <point x="1270.0" y="542.0"/>
      <point x="1226.0" y="472.0" type="curve" smooth="yes"/>
      <point x="1172.0" y="360.0"/>
      <point x="1022.0" y="286.0"/>
      <point x="894.0" y="286.0" type="curve" smooth="yes"/>
      <point x="660.0" y="286.0"/>
      <point x="498.0" y="478.0"/>
      <point x="498.0" y="756.0" type="curve" smooth="yes"/>
      <point x="498.0" y="1038.0"/>
      <point x="604.0" y="1204.0"/>
      <point x="750.0" y="1204.0" type="curve" smooth="yes"/>
      <point x="882.0" y="1204.0"/>
      <point x="1010" y="1131"/>
      <point x="1108.0" y="956.0" type="curve" smooth="yes"/>
      <point x="1157.0" y="868.0"/>
      <point x="1204" y="844"/>
      <point x="1274" y="856" type="curve" smooth="yes"/>
      <point x="1332" y="866"/>
      <point x="1365" y="921"/>
      <point x="1339" y="1023" type="curve" smooth="yes"/>
      <point x="1278.0" y="1258.0" type="line" smooth="yes"/>
      <point x="1238.0" y="1390.0"/>
      <point x="1208.0" y="1434.0"/>
      <point x="1146.0" y="1434.0" type="curve" smooth="yes"/>
      <point x="1074.0" y="1434.0"/>
      <point x="1064.0" y="1388.0"/>
      <point x="988.0" y="1388.0" type="curve" smooth="yes"/>
      <point x="954.0" y="1388.0"/>
      <point x="896.0" y="1426.0"/>
      <point x="794.0" y="1426.0" type="curve" smooth="yes"/>
      <point x="374.0" y="1426.0"/>
      <point x="66.0" y="1116.0"/>
      <point x="66.0" y="676.0" type="curve" smooth="yes"/>
      <point x="66.0" y="260.0"/>
      <point x="324.0" y="-30.0"/>
      <point x="724.0" y="-30.0" type="curve" smooth="yes"/>
      <point x="1096.0" y="-30.0"/>
      <point x="1376.0" y="222.0"/>
    </contour>
  </outline>
</glyph>
<glyph name="D" format="2">
  <advance width="1597"/>
  <unicode hex="0044"/>
  <outline>
    <contour>
      <point x="71" y="55" type="curve" smooth="yes"/>
      <point x="71" y="21"/>
      <point x="90" y="0"/>
      <point x="134" y="0" type="curve" smooth="yes"/>
      <point x="804" y="0" type="line" smooth="yes"/>
      <point x="1260" y="0"/>
      <point x="1546" y="246"/>
      <point x="1546" y="625" type="curve" smooth="yes"/>
      <point x="1546" y="1108"/>
      <point x="1207" y="1400"/>
      <point x="719" y="1400" type="curve" smooth="yes"/>
      <point x="134" y="1400" type="line" smooth="yes"/>
      <point x="92" y="1400"/>
      <point x="71" y="1380"/>
      <point x="71" y="1346" type="curve" smooth="yes"/>
      <point x="71" y="1317"/>
      <point x="83" y="1298"/>
      <point x="110" y="1286" type="curve" smooth="yes"/>
      <point x="159" y="1272" type="line" smooth="yes"/>
      <point x="188" y="1261"/>
      <point x="205" y="1248"/>
      <point x="205" y="1212" type="curve" smooth="yes"/>
      <point x="205" y="188" type="line" smooth="yes"/>
      <point x="205" y="152"/>
      <point x="188" y="139"/>
      <point x="158" y="128" type="curve" smooth="yes"/>
      <point x="111" y="114" type="line" smooth="yes"/>
      <point x="84" y="102"/>
      <point x="71" y="84"/>
    </contour>
    <contour>
      <point x="781" y="117" type="curve" smooth="yes"/>
      <point x="744" y="117" type="line" smooth="yes"/>
      <point x="684" y="117"/>
      <point x="651" y="146"/>
      <point x="651" y="212" type="curve" smooth="yes"/>
      <point x="651" y="1283" type="line"/>
      <point x="700" y="1283" type="line" smooth="yes"/>
      <point x="932" y="1283"/>
      <point x="1084" y="1056"/>
      <point x="1084" y="650" type="curve" smooth="yes"/>
      <point x="1084" y="268"/>
      <point x="952" y="117"/>
    </contour>
  </outline>
</glyph>
<glyph name="E" format="2">
  <advance width="1341"/>
  <unicode hex="0045"/>
  <anchor x="738" y="-101" name="right"/>
  <outline>
    <contour>
      <point x="510" y="776" type="line"/>
      <point x="510" y="668" type="line"/>
      <point x="784" y="668" type="line" smooth="yes"/>
      <point x="896" y="668"/>
      <point x="938" y="644"/>
      <point x="1018" y="541" type="curve" smooth="yes"/>
      <point x="1038" y="515"/>
      <point x="1062" y="508"/>
      <point x="1086" y="516" type="curve" smooth="yes"/>
      <point x="1114" y="526"/>
      <point x="1127" y="550"/>
      <point x="1118" y="589" type="curve" smooth="yes"/>
      <point x="1026" y="917" type="line" smooth="yes"/>
      <point x="1018" y="948"/>
      <point x="998" y="962"/>
      <point x="972" y="962" type="curve" smooth="yes"/>
      <point x="949" y="962"/>
      <point x="930" y="950"/>
      <point x="922" y="923" type="curve" smooth="yes"/>
      <point x="897" y="814"/>
      <point x="864" y="776"/>
      <point x="763" y="776" type="curve" smooth="yes"/>
    </contour>
    <contour>
      <point x="71" y="1345" type="curve" smooth="yes"/>
      <point x="71" y="1316"/>
      <point x="84" y="1298"/>
      <point x="112" y="1286" type="curve" smooth="yes"/>
      <point x="156" y="1272" type="line" smooth="yes"/>
      <point x="186" y="1262"/>
      <point x="205" y="1248"/>
      <point x="205" y="1214" type="curve" smooth="yes"/>
      <point x="205" y="186" type="line" smooth="yes"/>
      <point x="205" y="152"/>
      <point x="186" y="138"/>
      <point x="156" y="128" type="curve" smooth="yes"/>
      <point x="112" y="114" type="line" smooth="yes"/>
      <point x="84" y="102"/>
      <point x="71" y="84"/>
      <point x="71" y="55" type="curve" smooth="yes"/>
      <point x="71" y="22"/>
      <point x="91" y="0"/>
      <point x="134" y="0" type="curve" smooth="yes"/>
      <point x="972" y="0" type="line" smooth="yes"/>
      <point x="1051" y="0"/>
      <point x="1096" y="-29"/>
      <point x="1134" y="-29" type="curve" smooth="yes"/>
      <point x="1180" y="-29"/>
      <point x="1199" y="-4"/>
      <point x="1216" y="57" type="curve" smooth="yes"/>
      <point x="1304" y="422" type="line" smooth="yes"/>
      <point x="1316" y="464"/>
      <point x="1298" y="492"/>
      <point x="1264" y="500" type="curve" smooth="yes"/>
      <point x="1234" y="508"/>
      <point x="1208" y="496"/>
      <point x="1192" y="460" type="curve" smooth="yes"/>
      <point x="1034" y="176"/>
      <point x="928" y="117"/>
      <point x="800" y="117" type="curve" smooth="yes"/>
      <point x="755" y="117" type="line" smooth="yes"/>
      <point x="688" y="117"/>
      <point x="651" y="152"/>
      <point x="651" y="223" type="curve" smooth="yes"/>
      <point x="651" y="1283" type="line"/>
      <point x="782" y="1283" type="line" smooth="yes"/>
      <point x="910" y="1283"/>
      <point x="1002" y="1243"/>
      <point x="1160" y="998" type="curve" smooth="yes"/>
      <point x="1178" y="960"/>
      <point x="1206" y="954"/>
      <point x="1232" y="958" type="curve" smooth="yes"/>
      <point x="1264" y="964"/>
      <point x="1286" y="990"/>
      <point x="1276" y="1024" type="curve" smooth="yes"/>
      <point x="1196" y="1343" type="line" smooth="yes"/>
      <point x="1178" y="1405"/>
      <point x="1160" y="1429"/>
      <point x="1114" y="1429" type="curve" smooth="yes"/>
      <point x="1076" y="1429"/>
      <point x="1031" y="1400"/>
      <point x="952" y="1400" type="curve" smooth="yes"/>
      <point x="134" y="1400" type="line" smooth="yes"/>
      <point x="91" y="1400"/>
      <point x="71" y="1378"/>
    </contour>
  </outline>
</glyph>
<glyph name="F" format="2">
  <advance width="654"/>
  <unicode hex="0046"/>
  <outline>
    <contour>
      <point x="431" y="700" type="curve" smooth="yes"/>
      <point x="79" y="700" type="line" smooth="yes"/>
      <point x="50" y="700"/>
      <point x="30" y="679"/>
      <point x="30" y="648" type="curve" smooth="yes"/>
      <point x="30" y="617"/>
      <point x="47" y="598"/>
      <point x="78" y="590" type="curve" smooth="yes"/>
      <point x="94" y="586" type="line" smooth="yes"/>
      <point x="111" y="582"/>
      <point x="120" y="569"/>
      <point x="120" y="543" type="curve" smooth="yes"/>
      <point x="120" y="157" type="line" smooth="yes"/>
      <point x="120" y="131"/>
      <point x="112" y="119"/>
      <point x="94" y="114" type="curve" smooth="yes"/>
      <point x="78" y="110" type="line" smooth="yes"/>
      <point x="47" y="102"/>
      <point x="30" y="83"/>
      <point x="30" y="52" type="curve" smooth="yes"/>
      <point x="30" y="21"/>
      <point x="50" y="0"/>
      <point x="79" y="0" type="curve" smooth="yes"/>
      <point x="422" y="0" type="line" smooth="yes"/>
      <point x="448" y="0"/>
      <point x="472" y="17"/>
      <point x="472" y="50" type="curve" smooth="yes"/>
      <point x="472" y="74"/>
      <point x="456" y="97"/>
      <point x="430" y="107" type="curve" smooth="yes"/>
      <point x="395" y="121" type="line" smooth="yes"/>
      <point x="369" y="131"/>
      <point x="352" y="146"/>
      <point x="352" y="181" type="curve" smooth="yes"/>
      <point x="352" y="589" type="line"/>
      <point x="424" y="589" type="line" smooth="yes"/>
      <point x="477.0" y="589.0"/>
      <point x="503" y="575"/>
      <point x="542" y="487" type="curve" smooth="yes"/>
      <point x="557" y="453"/>
      <point x="583" y="447"/>
      <point x="607" y="451" type="curve" smooth="yes"/>
      <point x="637" y="456"/>
      <point x="655" y="479"/>
      <point x="649" y="507" type="curve" smooth="yes"/>
      <point x="619" y="644" type="line" smooth="yes"/>
      <point x="608" y="696"/>
      <point x="587" y="718"/>
      <point x="543" y="718" type="curve" smooth="yes"/>
      <point x="508" y="718.0"/>
      <point x="485.0" y="700.0"/>
    </contour>
    <contour>
      <point x="242" y="367" type="line"/>
      <point x="242" y="273" type="line"/>
      <point x="411" y="273" type="line" smooth="yes"/>
      <point x="461.0" y="273.0"/>
      <point x="470" y="266"/>
      <point x="491" y="237" type="curve" smooth="yes"/>
      <point x="508" y="213"/>
      <point x="528" y="206"/>
      <point x="552" y="211" type="curve" smooth="yes"/>
      <point x="581" y="217"/>
      <point x="598" y="244"/>
      <point x="589" y="279" type="curve" smooth="yes"/>
      <point x="562" y="387" type="line" smooth="yes"/>
      <point x="551" y="431"/>
      <point x="533.0" y="446.0"/>
      <point x="506" y="446" type="curve" smooth="yes"/>
      <point x="481" y="446"/>
      <point x="465" y="433"/>
      <point x="455" y="409" type="curve" smooth="yes"/>
      <point x="441.6465888191012" y="378.1844357363874"/>
      <point x="422.48387096774195" y="367"/>
      <point x="383" y="367" type="curve" smooth="yes"/>
    </contour>
  </outline>
</glyph>
<glyph name="G" format="2">
  <advance width="806"/>
  <unicode hex="0047"/>
  <outline>
    <contour>
      <point x="711" y="43" type="curve" smooth="yes"/>
      <point x="711" y="199" type="line" smooth="yes"/>
      <point x="711" y="237"/>
      <point x="727" y="255"/>
      <point x="747" y="272" type="curve" smooth="yes"/>
      <point x="754" y="279" type="line" smooth="yes"/>
      <point x="774" y="298"/>
      <point x="780" y="312"/>
      <point x="780" y="341" type="curve" smooth="yes"/>
      <point x="780" y="372"/>
      <point x="761" y="391"/>
      <point x="731" y="391" type="curve" smooth="yes"/>
      <point x="444" y="391" type="line" smooth="yes"/>
      <point x="413" y="391"/>
      <point x="395" y="370"/>
      <point x="395" y="336" type="curve" smooth="yes"/>
      <point x="395" y="300"/>
      <point x="416" y="285"/>
      <point x="455" y="275" type="curve" smooth="yes"/>
      <point x="475" y="270" type="line" smooth="yes"/>
      <point x="494" y="265"/>
      <point x="503" y="234"/>
      <point x="503" y="192" type="curve" smooth="yes"/>
      <point x="503" y="185" type="line" smooth="yes"/>
      <point x="503" y="144"/>
      <point x="493" y="123"/>
      <point x="468" y="123" type="curve" smooth="yes"/>
      <point x="334" y="123"/>
      <point x="245" y="217"/>
      <point x="245" y="365" type="curve" smooth="yes"/>
      <point x="245" y="521"/>
      <point x="314" y="624"/>
      <point x="428" y="624" type="curve" smooth="yes"/>
      <point x="487" y="624"/>
      <point x="556" y="591"/>
      <point x="604" y="496" type="curve" smooth="yes"/>
      <point x="641" y="437"/>
      <point x="675" y="412"/>
      <point x="706" y="412" type="curve" smooth="yes"/>
      <point x="739" y="412"/>
      <point x="763" y="437"/>
      <point x="763" y="476" type="curve" smooth="yes"/>
      <point x="763" y="487"/>
      <point x="757" y="495"/>
      <point x="756" y="510" type="curve" smooth="yes"/>
      <point x="743" y="662" type="line" smooth="yes"/>
      <point x="737" y="704"/>
      <point x="713" y="715"/>
      <point x="684" y="715" type="curve" smooth="yes"/>
      <point x="646" y="715"/>
      <point x="621" y="680"/>
      <point x="577" y="680" type="curve" smooth="yes"/>
      <point x="557" y="680"/>
      <point x="521" y="715"/>
      <point x="440" y="715" type="curve" smooth="yes"/>
      <point x="193" y="715"/>
      <point x="33" y="553"/>
      <point x="33" y="330" type="curve" smooth="yes"/>
      <point x="33" y="122"/>
      <point x="156" y="-15"/>
      <point x="333" y="-15" type="curve" smooth="yes"/>
      <point x="423" y="-15"/>
      <point x="469" y="40"/>
      <point x="502" y="40" type="curve" smooth="yes"/>
      <point x="547" y="40"/>
      <point x="579" y="-15"/>
      <point x="627" y="-15" type="curve" smooth="yes"/>
      <point x="688" y="-15"/>
      <point x="711" y="9"/>
    </contour>
  </outline>
</glyph>
<glyph name="H" format="2">
  <advance width="896"/>
  <unicode hex="0048"/>
  <outline>
    <contour>
      <point x="211" y="388" type="line"/>
      <point x="211" y="277" type="line"/>
      <point x="650" y="277" type="line"/>
      <point x="650" y="388" type="line"/>
    </contour>
    <component base="I" xOffset="-2"/>
    <component base="I" xOffset="444"/>
  </outline>
</glyph>
<glyph name="I" format="2">
  <advance width="472"/>
  <unicode hex="0049"/>
  <outline>
    <contour>
      <point x="352" y="157" type="curve" smooth="yes"/>
      <point x="352" y="543" type="line" smooth="yes"/>
      <point x="352" y="569"/>
      <point x="361" y="582"/>
      <point x="378" y="586" type="curve" smooth="yes"/>
      <point x="394" y="590" type="line" smooth="yes"/>
      <point x="425" y="598"/>
      <point x="442" y="617"/>
      <point x="442" y="648" type="curve" smooth="yes"/>
      <point x="442" y="679"/>
      <point x="422" y="700"/>
      <point x="393" y="700" type="curve" smooth="yes"/>
      <point x="79" y="700" type="line" smooth="yes"/>
      <point x="50" y="700"/>
      <point x="30" y="679"/>
      <point x="30" y="648" type="curve" smooth="yes"/>
      <point x="30" y="617"/>
      <point x="47" y="598"/>
      <point x="78" y="590" type="curve" smooth="yes"/>
      <point x="94" y="586" type="line" smooth="yes"/>
      <point x="111" y="582"/>
      <point x="120" y="569"/>
      <point x="120" y="543" type="curve" smooth="yes"/>
      <point x="120" y="157" type="line" smooth="yes"/>
      <point x="120" y="131"/>
      <point x="111" y="118"/>
      <point x="94" y="114" type="curve" smooth="yes"/>
      <point x="78" y="110" type="line" smooth="yes"/>
      <point x="47" y="102"/>
      <point x="30" y="83"/>
      <point x="30" y="52" type="curve" smooth="yes"/>
      <point x="30" y="21"/>
      <point x="50" y="0"/>
      <point x="79" y="0" type="curve" smooth="yes"/>
      <point x="393" y="0" type="line" smooth="yes"/>
      <point x="422" y="0"/>
      <point x="442" y="21"/>
      <point x="442" y="52" type="curve" smooth="yes"/>
      <point x="442" y="83"/>
      <point x="425" y="102"/>
      <point x="394" y="110" type="curve" smooth="yes"/>
      <point x="378" y="114" type="line" smooth="yes"/>
      <point x="361" y="118"/>
      <point x="352" y="131"/>
    </contour>
  </outline>
</glyph>
<glyph name="J" format="2">
  <advance width="1051"/>
  <unicode hex="004A"/>
  <anchor x="551" y="1464" name="center"/>
  <outline>
    <contour>
      <point x="946" y="285" type="curve" smooth="yes"/>
      <point x="946" y="440"/>
      <point x="843" y="507"/>
      <point x="843" y="721" type="curve" smooth="yes"/>
      <point x="843" y="1212" type="line" smooth="yes"/>
      <point x="843" y="1248"/>
      <point x="861" y="1260"/>
      <point x="890" y="1272" type="curve" smooth="yes"/>
      <point x="925" y="1284" type="line" smooth="yes"/>
      <point x="960" y="1300"/>
      <point x="975" y="1316"/>
      <point x="975" y="1345" type="curve" smooth="yes"/>
      <point x="975" y="1379"/>
      <point x="954" y="1400"/>
      <point x="909" y="1400" type="curve" smooth="yes"/>
      <point x="311" y="1400" type="line" smooth="yes"/>
      <point x="269" y="1400"/>
      <point x="246" y="1379"/>
      <point x="246" y="1344" type="curve" smooth="yes"/>
      <point x="246" y="1316"/>
      <point x="259" y="1294"/>
      <point x="292" y="1284" type="curve" smooth="yes"/>
      <point x="344" y="1271" type="line" smooth="yes"/>
      <point x="380" y="1261"/>
      <point x="398" y="1244"/>
      <point x="398" y="1204" type="curve" smooth="yes"/>
      <point x="398" y="697" type="line" smooth="yes"/>
      <point x="398" y="418"/>
      <point x="566" y="320"/>
      <point x="566" y="179" type="curve" smooth="yes"/>
      <point x="566" y="99"/>
      <point x="532" y="52"/>
      <point x="474" y="52" type="curve" smooth="yes"/>
      <point x="412" y="52"/>
      <point x="384" y="95"/>
      <point x="384" y="167" type="curve" smooth="yes"/>
      <point x="384" y="268" type="line" smooth="yes"/>
      <point x="384" y="395"/>
      <point x="310" y="467"/>
      <point x="210" y="467" type="curve" smooth="yes"/>
      <point x="94" y="467"/>
      <point x="24" y="386"/>
      <point x="24" y="266" type="curve" smooth="yes"/>
      <point x="24" y="82"/>
      <point x="184" y="-33"/>
      <point x="458" y="-33" type="curve" smooth="yes"/>
      <point x="761" y="-33"/>
      <point x="946" y="93"/>
    </contour>
  </outline>
</glyph>
<glyph name="K" format="2">
  <advance width="1718"/>
  <unicode hex="004B"/>
  <outline>
    <contour>
      <point x="464.0" y="522.0" type="line"/>
      <point x="546.0" y="370.0" type="line"/>
      <point x="1150.0" y="836.0" type="line" smooth="yes"/>
      <point x="1350.0" y="1018.0"/>
      <point x="1462.0" y="1122.0"/>
      <point x="1518.0" y="1132.0" type="curve" smooth="yes"/>
      <point x="1586.0" y="1152.0"/>
      <point x="1614.0" y="1198.0"/>
      <point x="1612.0" y="1278.0" type="curve" smooth="yes"/>
      <point x="1610.0" y="1344.0"/>
      <point x="1562.0" y="1400.0"/>
      <point x="1478.0" y="1400.0" type="curve" smooth="yes"/>
      <point x="974.0" y="1400.0" type="line" smooth="yes"/>
      <point x="910.0" y="1400.0"/>
      <point x="862.0" y="1368.0"/>
      <point x="862.0" y="1302.0" type="curve" smooth="yes"/>
      <point x="862.0" y="1274.0"/>
      <point x="864.0" y="1240.0"/>
      <point x="928.0" y="1206.0" type="curve" smooth="yes"/>
      <point x="934.0" y="1206.0" type="line" smooth="yes"/>
      <point x="1080.0" y="1139.6363636363635"/>
      <point x="987.1372549019608" y="940.2745098039215"/>
      <point x="844.0" y="800.0" type="curve" smooth="yes"/>
    </contour>
    <contour>
      <point x="772.0" y="746.0" type="line"/>
      <point x="970.0" y="344.0" type="line" smooth="yes"/>
      <point x="986.0" y="314.0"/>
      <point x="1000.0" y="298.0"/>
      <point x="1000.0" y="266.0" type="curve" smooth="yes"/>
      <point x="1000.0" y="240.0"/>
      <point x="992.0" y="234.0"/>
      <point x="956.0" y="206.0" type="curve" smooth="yes"/>
      <point x="924.0" y="182.0"/>
      <point x="910.0" y="154.0"/>
      <point x="910.0" y="98.0" type="curve" smooth="yes"/>
      <point x="910.0" y="32.0"/>
      <point x="946.0" y="0.0"/>
      <point x="1004.0" y="0.0" type="curve" smooth="yes"/>
      <point x="1502.0" y="0.0" type="line" smooth="yes"/>
      <point x="1598.0" y="0.0"/>
      <point x="1640.0" y="48.0"/>
      <point x="1640.0" y="124.0" type="curve" smooth="yes"/>
      <point x="1640.0" y="202.0"/>
      <point x="1606.0" y="230.0"/>
      <point x="1544.0" y="264.0" type="curve" smooth="yes"/>
      <point x="1532.0" y="272.0"/>
      <point x="1530.0" y="276.0"/>
      <point x="1518.0" y="300.0" type="curve" smooth="yes"/>
      <point x="1110.0" y="1024.0" type="line"/>
    </contour>
    <contour>
      <point x="700.0" y="314.0" type="curve" smooth="yes"/>
      <point x="700.0" y="1086.0" type="line" smooth="yes"/>
      <point x="700.0" y="1138.0"/>
      <point x="718.0" y="1164.0"/>
      <point x="752.0" y="1172.0" type="curve" smooth="yes"/>
      <point x="784.0" y="1180.0" type="line" smooth="yes"/>
      <point x="846.0" y="1196.0"/>
      <point x="880.0" y="1234.0"/>
      <point x="880.0" y="1296.0" type="curve" smooth="yes"/>
      <point x="880.0" y="1358.0"/>
      <point x="840.0" y="1400.0"/>
      <point x="782.0" y="1400.0" type="curve" smooth="yes"/>
      <point x="154.0" y="1400.0" type="line" smooth="yes"/>
      <point x="96.0" y="1400.0"/>
      <point x="56.0" y="1358.0"/>
      <point x="56.0" y="1296.0" type="curve" smooth="yes"/>
      <point x="56.0" y="1234.0"/>
      <point x="90.0" y="1196.0"/>
      <point x="152.0" y="1180.0" type="curve" smooth="yes"/>
      <point x="184.0" y="1172.0" type="line" smooth="yes"/>
      <point x="218.0" y="1164.0"/>
      <point x="236.0" y="1138.0"/>
      <point x="236.0" y="1086.0" type="curve" smooth="yes"/>
      <point x="236.0" y="314.0" type="line" smooth="yes"/>
      <point x="236.0" y="262.0"/>
      <point x="218.0" y="236.0"/>
      <point x="184.0" y="228.0" type="curve" smooth="yes"/>
      <point x="152.0" y="220.0" type="line" smooth="yes"/>
      <point x="90.0" y="204.0"/>
      <point x="56.0" y="166.0"/>
      <point x="56.0" y="104.0" type="curve" smooth="yes"/>
      <point x="56.0" y="42.0"/>
      <point x="96.0" y="0.0"/>
      <point x="154.0" y="0.0" type="curve" smooth="yes"/>
      <point x="782.0" y="0.0" type="line" smooth="yes"/>
      <point x="840.0" y="0.0"/>
      <point x="880.0" y="42.0"/>
      <point x="880.0" y="104.0" type="curve" smooth="yes"/>
      <point x="880.0" y="166.0"/>
      <point x="846.0" y="204.0"/>
      <point x="784.0" y="220.0" type="curve" smooth="yes"/>
      <point x="752.0" y="228.0" type="line" smooth="yes"/>
      <point x="718.0" y="236.0"/>
      <point x="700.0" y="262.0"/>
    </contour>
  </outline>
</glyph>
<glyph name="L" format="2">
  <advance width="1354"/>
  <unicode hex="004C"/>
  <anchor x="438.0" y="1484.0" name="center"/>
  <outline>
    <contour>
      <point x="788.0" y="1180.0" type="line" smooth="yes"/>
      <point x="850.0" y="1196.0"/>
      <point x="884.0" y="1234.0"/>
      <point x="884.0" y="1296.0" type="curve" smooth="yes"/>
      <point x="884.0" y="1358.0"/>
      <point x="844.0" y="1400.0"/>
      <point x="786.0" y="1400.0" type="curve" smooth="yes"/>
      <point x="158.0" y="1400.0" type="line" smooth="yes"/>
      <point x="100.0" y="1400.0"/>
      <point x="60.0" y="1358.0"/>
      <point x="60.0" y="1296.0" type="curve" smooth="yes"/>
      <point x="60.0" y="1234.0"/>
      <point x="94.0" y="1196.0"/>
      <point x="156.0" y="1180.0" type="curve" smooth="yes"/>
      <point x="188.0" y="1172.0" type="line" smooth="yes"/>
      <point x="222.0" y="1164.0"/>
      <point x="240.0" y="1138.0"/>
      <point x="240.0" y="1086.0" type="curve" smooth="yes"/>
      <point x="240.0" y="314.0" type="line" smooth="yes"/>
      <point x="240.0" y="262.0"/>
      <point x="222.0" y="236.0"/>
      <point x="188.0" y="228.0" type="curve" smooth="yes"/>
      <point x="156.0" y="220.0" type="line" smooth="yes"/>
      <point x="94.0" y="204.0"/>
      <point x="60.0" y="166.0"/>
      <point x="60.0" y="104.0" type="curve" smooth="yes"/>
      <point x="60.0" y="42.0"/>
      <point x="100.0" y="0.0"/>
      <point x="158.0" y="0.0" type="curve" smooth="yes"/>
      <point x="832.0" y="0.0" type="line" smooth="yes"/>
      <point x="968.0" y="0.0"/>
      <point x="1028.0" y="-36.0"/>
      <point x="1116.0" y="-36.0" type="curve" smooth="yes"/>
      <point x="1204.0" y="-36.0"/>
      <point x="1238.0" y="10.0"/>
      <point x="1268.0" y="112.0" type="curve" smooth="yes"/>
      <point x="1348.0" y="392.0" type="line" smooth="yes"/>
      <point x="1368.0" y="464.0"/>
      <point x="1334.0" y="520.0"/>
      <point x="1272.0" y="532.0" type="curve" smooth="yes"/>
      <point x="1214.0" y="544.0"/>
      <point x="1172.0" y="524.0"/>
      <point x="1142.0" y="460.0" type="curve" smooth="yes"/>
      <point x="1088.0" y="346.0" type="line" smooth="yes"/>
      <point x="1046.0" y="258.0"/>
      <point x="988.0" y="222.0"/>
      <point x="876.0" y="222.0" type="curve" smooth="yes"/>
      <point x="792.0" y="222.0" type="line" smooth="yes"/>
      <point x="736.0" y="222.0"/>
      <point x="704.0" y="246.0"/>
      <point x="704.0" y="314.0" type="curve" smooth="yes"/>
      <point x="704.0" y="1086.0" type="line" smooth="yes"/>
      <point x="704.0" y="1138.0"/>
      <point x="722.0" y="1164.0"/>
      <point x="756.0" y="1172.0" type="curve" smooth="yes"/>
    </contour>
  </outline>
</glyph>
<glyph name="M" format="2">
  <advance width="2072"/>
  <unicode hex="004D"/>
  <guideline x="2296.0" y="1732.0" angle="0" identifier="LjZPaEt7J0"/>
  <outline>
    <contour>
      <point x="1146.0" y="374.0" type="line"/>
      <point x="816.0" y="1212.0" type="line" smooth="yes"/>
      <point x="764.0" y="1344.0"/>
      <point x="710.0" y="1400.0"/>
      <point x="586.0" y="1400.0" type="curve" smooth="yes"/>
      <point x="192.0" y="1400.0" type="line" smooth="yes"/>
      <point x="134.0" y="1400.0"/>
      <point x="94.0" y="1358.0"/>
      <point x="94.0" y="1296.0" type="curve" smooth="yes"/>
      <point x="94.0" y="1234.0"/>
      <point x="128.0" y="1196.0"/>
      <point x="190.0" y="1180.0" type="curve" smooth="yes"/>
      <point x="222.0" y="1172.0" type="line" smooth="yes"/>
      <point x="256.0" y="1164.0"/>
      <point x="278.0" y="1138.0"/>
      <point x="274.0" y="1086.0" type="curve" smooth="yes"/>
      <point x="206.0" y="314.0" type="line" smooth="yes"/>
      <point x="202.0" y="262.0"/>
      <point x="188.0" y="236.0"/>
      <point x="154.0" y="228.0" type="curve" smooth="yes"/>
      <point x="122.0" y="220.0" type="line" smooth="yes"/>
      <point x="60.0" y="204.0"/>
      <point x="26.0" y="166.0"/>
      <point x="26.0" y="104.0" type="curve" smooth="yes"/>
      <point x="26.0" y="42.0"/>
      <point x="66.0" y="0.0"/>
      <point x="124.0" y="0.0" type="curve" smooth="yes"/>
      <point x="510.0" y="0.0" type="line" smooth="yes"/>
      <point x="568.3829787234042" y="0.0"/>
      <point x="608.0" y="42.0"/>
      <point x="608.0" y="104.0" type="curve" smooth="yes"/>
      <point x="608.0" y="166.0"/>
      <point x="574.0" y="204.0"/>
      <point x="512.0" y="220.0" type="curve" smooth="yes"/>
      <point x="480.0" y="228.0" type="line" smooth="yes"/>
      <point x="446.0" y="236.0"/>
      <point x="424.0" y="262.0"/>
      <point x="428.0" y="314.0" type="curve" smooth="yes"/>
      <point x="494.0" y="1188.0" type="line"/>
      <point x="348.0" y="1174.0" type="line"/>
      <point x="732.0" y="206.0" type="line" smooth="yes"/>
      <point x="796.0" y="44.0"/>
      <point x="844.0" y="26.0"/>
      <point x="928.0" y="26.0" type="curve" smooth="yes"/>
      <point x="1006.0" y="26.0"/>
      <point x="1058.0" y="66.0"/>
      <point x="1110.0" y="206.0" type="curve" smooth="yes"/>
      <point x="1482.0" y="1220.0" type="line"/>
      <point x="1324.0" y="1218.0" type="line"/>
      <point x="1396.0" y="314.0" type="line" smooth="yes"/>
      <point x="1400.0" y="262.0"/>
      <point x="1378.0" y="236.0"/>
      <point x="1344.0" y="228.0" type="curve" smooth="yes"/>
      <point x="1312.0" y="220.0" type="line" smooth="yes"/>
      <point x="1250.0" y="204.0"/>
      <point x="1216.0" y="166.0"/>
      <point x="1216.0" y="104.0" type="curve" smooth="yes"/>
      <point x="1216.0" y="42.0"/>
      <point x="1256.0" y="0.0"/>
      <point x="1314.0" y="0.0" type="curve" smooth="yes"/>
      <point x="1942.0" y="0.0" type="line" smooth="yes"/>
      <point x="2000.0" y="0.0"/>
      <point x="2040.0" y="42.0"/>
      <point x="2040.0" y="104.0" type="curve" smooth="yes"/>
      <point x="2040.0" y="166.0"/>
      <point x="2006.0" y="204.0"/>
      <point x="1944.0" y="220.0" type="curve" smooth="yes"/>
      <point x="1912.0" y="228.0" type="line" smooth="yes"/>
      <point x="1878.0" y="236.0"/>
      <point x="1864.0" y="262.0"/>
      <point x="1860.0" y="314.0" type="curve" smooth="yes"/>
      <point x="1806.0" y="1086.0" type="line" smooth="yes"/>
      <point x="1802.0" y="1138.0"/>
      <point x="1824.0" y="1164.0"/>
      <point x="1858.0" y="1172.0" type="curve" smooth="yes"/>
      <point x="1890.0" y="1180.0" type="line" smooth="yes"/>
      <point x="1952.0" y="1196.0"/>
      <point x="1986.0" y="1234.0"/>
      <point x="1986.0" y="1296.0" type="curve" smooth="yes"/>
      <point x="1986.0" y="1358.0"/>
      <point x="1946.0" y="1400.0"/>
      <point x="1888.0" y="1400.0" type="curve" smooth="yes"/>
      <point x="1478.0" y="1400.0" type="line" smooth="yes"/>
      <point x="1362.0" y="1400.0"/>
      <point x="1310.0" y="1352.0"/>
      <point x="1256.0" y="1212.0" type="curve" smooth="yes"/>
      <point x="934.0" y="368.0" type="line"/>
    </contour>
  </outline>
</glyph>
<glyph name="O" format="2">
  <advance width="1550"/>
  <unicode hex="004F"/>
  <outline>
    <contour>
      <point x="766" y="1430" type="curve" smooth="yes"/>
      <point x="330" y="1430"/>
      <point x="50" y="1116"/>
      <point x="50" y="709" type="curve" smooth="yes"/>
      <point x="50" y="262"/>
      <point x="330" y="-30"/>
      <point x="785" y="-30" type="curve" smooth="yes"/>
      <point x="1220" y="-30"/>
      <point x="1500" y="274"/>
      <point x="1500" y="711" type="curve" smooth="yes"/>
      <point x="1500" y="1132"/>
      <point x="1216" y="1430"/>
    </contour>
    <contour>
      <point x="1047" y="408" type="curve" smooth="yes"/>
      <point x="1047" y="178"/>
      <point x="992" y="86"/>
      <point x="884" y="86" type="curve" smooth="yes"/>
      <point x="708" y="86"/>
      <point x="506" y="542"/>
      <point x="506" y="1002" type="curve" smooth="yes"/>
      <point x="506" y="1207"/>
      <point x="560" y="1316"/>
      <point x="668" y="1316" type="curve" smooth="yes"/>
      <point x="850" y="1316"/>
      <point x="1047" y="856"/>
    </contour>
  </outline>
</glyph>
<glyph name="P" format="2">
  <advance width="1480"/>
  <unicode hex="0050"/>
  <outline>
    <contour>
      <point x="1472.0" y="844.0" type="curve" smooth="yes"/>
      <point x="1472.0" y="1176.0"/>
      <point x="1162.0" y="1400.0"/>
      <point x="700.0" y="1400.0" type="curve" smooth="yes"/>
      <point x="116.0" y="1400.0" type="line" smooth="yes"/>
      <point x="78.0" y="1400.0"/>
      <point x="56.0" y="1362.0"/>
      <point x="56.0" y="1300.0" type="curve" smooth="yes"/>
      <point x="56.0" y="1246.0"/>
      <point x="74.0" y="1210.0"/>
      <point x="110.0" y="1196.0" type="curve" smooth="yes"/>
      <point x="166.0" y="1184.0" type="line" smooth="yes"/>
      <point x="212.0" y="1170.0"/>
      <point x="236.0" y="1140.0"/>
      <point x="236.0" y="1096.0" type="curve" smooth="yes"/>
      <point x="236.0" y="298.0" type="line" smooth="yes"/>
      <point x="236.0" y="254.0"/>
      <point x="212.0" y="226.0"/>
      <point x="164.0" y="212.0" type="curve" smooth="yes"/>
      <point x="110.0" y="200.0" type="line" smooth="yes"/>
      <point x="70.0" y="188.0"/>
      <point x="56.0" y="150.0"/>
      <point x="56.0" y="96.0" type="curve" smooth="yes"/>
      <point x="56.0" y="38.0"/>
      <point x="78.0" y="0.0"/>
      <point x="116.0" y="0.0" type="curve" smooth="yes"/>
      <point x="802.0" y="0.0" type="line" smooth="yes"/>
      <point x="838.0" y="0.0"/>
      <point x="860.0" y="38.0"/>
      <point x="860.0" y="96.0" type="curve" smooth="yes"/>
      <point x="860.0" y="150.0"/>
      <point x="842.0" y="192.0"/>
      <point x="808.0" y="200.0" type="curve" smooth="yes"/>
      <point x="752.0" y="212.0" type="line" smooth="yes"/>
      <point x="706.0" y="226.0"/>
      <point x="680.0" y="254.0"/>
      <point x="680.0" y="298.0" type="curve" smooth="yes"/>
      <point x="680.0" y="1218.0" type="line"/>
      <point x="690.0" y="1218.0" type="line" smooth="yes"/>
      <point x="884.0" y="1218.0"/>
      <point x="1016.0" y="1072.0"/>
      <point x="1016.0" y="868.0" type="curve" smooth="yes"/>
      <point x="1016.0" y="650.0"/>
      <point x="882.0" y="572.0"/>
      <point x="756.0" y="572.0" type="curve" smooth="yes"/>
      <point x="630.0" y="572.0"/>
      <point x="574.0" y="606.0"/>
      <point x="498.0" y="644.0" type="curve"/>
      <point x="478.0" y="478.0" type="line"/>
      <point x="598.0" y="414.0"/>
      <point x="698.0" y="384.0"/>
      <point x="946.0" y="384.0" type="curve" smooth="yes"/>
      <point x="1260.0" y="384.0"/>
      <point x="1472.0" y="570.0"/>
    </contour>
  </outline>
</glyph>
<glyph name="Q" format="2">
  <advance width="1570"/>
  <unicode hex="0051"/>
  <outline>
    <contour>
      <point x="768" y="1430" type="curve" smooth="yes"/>
      <point x="328" y="1430"/>
      <point x="45" y="1116"/>
      <point x="45" y="709" type="curve" smooth="yes"/>
      <point x="45" y="258"/>
      <point x="322" y="-30"/>
      <point x="788" y="-30" type="curve" smooth="yes"/>
      <point x="1228" y="-30"/>
      <point x="1512" y="274"/>
      <point x="1512" y="711" type="curve" smooth="yes"/>
      <point x="1512" y="1132"/>
      <point x="1218" y="1430"/>
    </contour>
    <contour>
      <point x="1053" y="408" type="curve" smooth="yes"/>
      <point x="1053" y="176"/>
      <point x="998" y="82"/>
      <point x="889" y="82" type="curve" smooth="yes"/>
      <point x="710" y="82"/>
      <point x="506" y="540"/>
      <point x="506" y="1002" type="curve" smooth="yes"/>
      <point x="506" y="1210"/>
      <point x="560" y="1320"/>
      <point x="670" y="1320" type="curve" smooth="yes"/>
      <point x="854" y="1320"/>
      <point x="1053" y="858"/>
    </contour>
    <contour>
      <point x="805" y="364" type="curve" smooth="yes"/>
      <point x="894" y="-119"/>
      <point x="1088" y="-308"/>
      <point x="1326" y="-308" type="curve" smooth="yes"/>
      <point x="1405" y="-308"/>
      <point x="1442" y="-284"/>
      <point x="1465" y="-240" type="curve" smooth="yes"/>
      <point x="1536" y="-112" type="line" smooth="yes"/>
      <point x="1547" y="-90"/>
      <point x="1550" y="-75"/>
      <point x="1547" y="-58" type="curve" smooth="yes"/>
      <point x="1544" y="-38"/>
      <point x="1524" y="-28"/>
      <point x="1504" y="-32" type="curve" smooth="yes"/>
      <point x="1470" y="-46"/>
      <point x="1432" y="-66"/>
      <point x="1337" y="-66" type="curve"/>
      <point x="1116" y="-66"/>
      <point x="984" y="18"/>
      <point x="900" y="378" type="curve"/>
      <point x="890" y="418"/>
      <point x="874" y="440"/>
      <point x="844" y="439" type="curve" smooth="yes"/>
      <point x="809" y="437"/>
      <point x="798" y="399"/>
    </contour>
  </outline>
</glyph>
<glyph name="R" format="2">
  <advance width="1638"/>
  <unicode hex="0052"/>
  <anchor x="662.0" y="1476.0" name="center"/>
  <outline>
    <contour>
      <point x="1506" y="912" type="curve" smooth="yes"/>
      <point x="1506" y="1194"/>
      <point x="1244" y="1400"/>
      <point x="749" y="1400" type="curve" smooth="yes"/>
      <point x="195" y="1400" type="line" smooth="yes"/>
      <point x="116" y="1400"/>
      <point x="80" y="1361"/>
      <point x="80" y="1298" type="curve" smooth="yes"/>
      <point x="80" y="1247"/>
      <point x="101" y="1213"/>
      <point x="146" y="1189" type="curve" smooth="yes"/>
      <point x="178" y="1172" type="line" smooth="yes"/>
      <point x="208" y="1156"/>
      <point x="230" y="1138"/>
      <point x="230" y="1086" type="curve" smooth="yes"/>
      <point x="230" y="314" type="line" smooth="yes"/>
      <point x="230" y="262"/>
      <point x="208" y="244"/>
      <point x="178" y="228" type="curve" smooth="yes"/>
      <point x="146" y="211" type="line" smooth="yes"/>
      <point x="101" y="187"/>
      <point x="80" y="153"/>
      <point x="80" y="102" type="curve" smooth="yes"/>
      <point x="80" y="39"/>
      <point x="116" y="0"/>
      <point x="195" y="0" type="curve" smooth="yes"/>
      <point x="729" y="0" type="line" smooth="yes"/>
      <point x="808" y="0"/>
      <point x="844" y="39"/>
      <point x="844" y="102" type="curve" smooth="yes"/>
      <point x="844" y="154"/>
      <point x="823" y="187"/>
      <point x="778" y="211" type="curve" smooth="yes"/>
      <point x="746" y="228" type="line" smooth="yes"/>
      <point x="716" y="244"/>
      <point x="694" y="262"/>
      <point x="694" y="314" type="curve" smooth="yes"/>
      <point x="694" y="1210" type="line"/>
      <point x="722" y="1210" type="line" smooth="yes"/>
      <point x="907" y="1210"/>
      <point x="1032" y="1091"/>
      <point x="1032" y="926" type="curve" smooth="yes"/>
      <point x="1032" y="758"/>
      <point x="939" y="672"/>
      <point x="768" y="672" type="curve" smooth="yes"/>
      <point x="689" y="672"/>
      <point x="629" y="680"/>
      <point x="564" y="720" type="curve"/>
      <point x="568" y="552" type="line"/>
      <point x="628" y="523"/>
      <point x="729" y="494"/>
      <point x="837" y="494" type="curve"/>
      <point x="972" y="494"/>
      <point x="1049" y="517"/>
      <point x="1173" y="559" type="curve"/>
      <point x="1373" y="596"/>
      <point x="1506" y="743"/>
    </contour>
    <contour>
      <point x="831" y="557" type="line"/>
      <point x="960" y="287" type="line" smooth="yes"/>
      <point x="997" y="210"/>
      <point x="1005" y="206"/>
      <point x="990" y="191" type="curve" smooth="yes"/>
      <point x="964" y="165"/>
      <point x="954" y="143"/>
      <point x="954" y="102" type="curve" smooth="yes"/>
      <point x="954" y="39"/>
      <point x="990" y="0"/>
      <point x="1069" y="0" type="curve" smooth="yes"/>
      <point x="1493" y="0" type="line" smooth="yes"/>
      <point x="1572" y="0"/>
      <point x="1608" y="39"/>
      <point x="1608" y="102" type="curve" smooth="yes"/>
      <point x="1608" y="153"/>
      <point x="1587" y="187"/>
      <point x="1548" y="208" type="curve" smooth="yes"/>
      <point x="1498" y="234"/>
      <point x="1477" y="246"/>
      <point x="1452" y="292" type="curve" smooth="yes"/>
      <point x="1277" y="610" type="line"/>
    </contour>
  </outline>
</glyph>
<glyph name="S" format="2">
  <advance width="641"/>
  <unicode hex="0053"/>
  <outline>
    <contour>
      <point x="335" y="-15" type="curve" smooth="yes"/>
      <point x="504" y="-15"/>
      <point x="606" y="83"/>
      <point x="606" y="207" type="curve" smooth="yes"/>
      <point x="606" y="310"/>
      <point x="551" y="403"/>
      <point x="349" y="459" type="curve" smooth="yes"/>
      <point x="288" y="476"/>
      <point x="253" y="501"/>
      <point x="253" y="543" type="curve" smooth="yes"/>
      <point x="253" y="576"/>
      <point x="278" y="601"/>
      <point x="320" y="601" type="curve" smooth="yes"/>
      <point x="386" y="601"/>
      <point x="456" y="559"/>
      <point x="516" y="478" type="curve" smooth="yes"/>
      <point x="534" y="453"/>
      <point x="553" y="442"/>
      <point x="575" y="442" type="curve" smooth="yes"/>
      <point x="608" y="442"/>
      <point x="633" y="466"/>
      <point x="622" y="501" type="curve" smooth="yes"/>
      <point x="580" y="632" type="line" smooth="yes"/>
      <point x="562" y="687"/>
      <point x="548" y="711"/>
      <point x="512" y="711" type="curve" smooth="yes"/>
      <point x="485" y="711"/>
      <point x="472" y="688"/>
      <point x="445" y="688" type="curve" smooth="yes"/>
      <point x="411" y="688"/>
      <point x="372" y="713"/>
      <point x="290" y="713" type="curve" smooth="yes"/>
      <point x="131" y="713"/>
      <point x="33" y="618"/>
      <point x="33" y="489" type="curve" smooth="yes"/>
      <point x="33" y="375"/>
      <point x="94" y="284"/>
      <point x="313" y="225" type="curve" smooth="yes"/>
      <point x="375" y="208"/>
      <point x="395" y="187"/>
      <point x="395" y="153" type="curve" smooth="yes"/>
      <point x="395" y="118"/>
      <point x="367" y="95"/>
      <point x="323" y="95" type="curve" smooth="yes"/>
      <point x="267" y="95"/>
      <point x="212" y="114"/>
      <point x="147" y="209" type="curve" smooth="yes"/>
      <point x="130" y="234"/>
      <point x="110" y="245"/>
      <point x="89" y="245" type="curve" smooth="yes"/>
      <point x="54" y="245"/>
      <point x="33" y="223"/>
      <point x="40" y="189" type="curve" smooth="yes"/>
      <point x="68" y="55" type="line" smooth="yes"/>
      <point x="80" y="0"/>
      <point x="101" y="-23"/>
      <point x="138" y="-23" type="curve" smooth="yes"/>
      <point x="165" y="-23"/>
      <point x="178" y="0"/>
      <point x="205" y="0" type="curve" smooth="yes"/>
      <point x="228" y="0"/>
      <point x="267" y="-15"/>
    </contour>
  </outline>
</glyph>
<glyph name="T" format="2">
  <advance width="712"/>
  <unicode hex="0054"/>
  <outline>
    <contour>
      <point x="251" y="700" type="line" smooth="yes"/>
      <point x="183" y="700"/>
      <point x="153" y="718"/>
      <point x="109" y="718" type="curve" smooth="yes"/>
      <point x="65" y="718"/>
      <point x="46" y="696"/>
      <point x="33" y="644" type="curve" smooth="yes"/>
      <point x="3" y="524" type="line" smooth="yes"/>
      <point x="-6" y="487"/>
      <point x="10" y="460"/>
      <point x="41" y="454" type="curve" smooth="yes"/>
      <point x="70" y="448"/>
      <point x="91" y="457"/>
      <point x="106" y="490" type="curve" smooth="yes"/>
      <point x="142" y="569"/>
      <point x="164" y="589"/>
      <point x="212" y="589" type="curve" smooth="yes"/>
      <point x="240" y="589" type="line"/>
      <point x="240" y="157" type="line" smooth="yes"/>
      <point x="240" y="131"/>
      <point x="231" y="118"/>
      <point x="214" y="114" type="curve" smooth="yes"/>
      <point x="198" y="110" type="line" smooth="yes"/>
      <point x="167" y="102"/>
      <point x="150" y="83"/>
      <point x="150" y="52" type="curve" smooth="yes"/>
      <point x="150" y="21"/>
      <point x="170" y="0"/>
      <point x="199" y="0" type="curve" smooth="yes"/>
      <point x="513" y="0" type="line" smooth="yes"/>
      <point x="542" y="0"/>
      <point x="562" y="21"/>
      <point x="562" y="52" type="curve" smooth="yes"/>
      <point x="562" y="83"/>
      <point x="545" y="102"/>
      <point x="514" y="110" type="curve" smooth="yes"/>
      <point x="498" y="114" type="line" smooth="yes"/>
      <point x="481" y="118"/>
      <point x="472" y="131"/>
      <point x="472" y="157" type="curve" smooth="yes"/>
      <point x="472" y="589" type="line"/>
      <point x="500" y="589" type="line" smooth="yes"/>
      <point x="548" y="589"/>
      <point x="570" y="569"/>
      <point x="606" y="490" type="curve" smooth="yes"/>
      <point x="621" y="457"/>
      <point x="642" y="448"/>
      <point x="671" y="454" type="curve" smooth="yes"/>
      <point x="702" y="460"/>
      <point x="718" y="487"/>
      <point x="709" y="524" type="curve" smooth="yes"/>
      <point x="679" y="644" type="line" smooth="yes"/>
      <point x="666" y="696"/>
      <point x="647" y="718"/>
      <point x="603" y="718" type="curve" smooth="yes"/>
      <point x="559" y="718"/>
      <point x="529" y="700"/>
      <point x="461" y="700" type="curve" smooth="yes"/>
    </contour>
  </outline>
</glyph>
<glyph name="U" format="2">
  <advance width="1544"/>
  <unicode hex="0055"/>
  <anchor x="582.0" y="-96.0" name="right"/>
  <anchor x="742.0" y="1460.0" name="center"/>
  <outline>
    <contour>
      <point x="1168.0" y="628.0" type="line" smooth="yes"/>
      <point x="1172.0" y="578.0"/>
      <point x="1176.0" y="530.0"/>
      <point x="1176.0" y="440.0" type="curve" smooth="yes"/>
      <point x="1176.0" y="296.0"/>
      <point x="1082.0" y="206.0"/>
      <point x="900.0" y="206.0" type="curve" smooth="yes"/>
      <point x="724.0" y="206.0"/>
      <point x="626.0" y="288.0"/>
      <point x="626.0" y="478.0" type="curve" smooth="yes"/>
      <point x="626.0" y="518.0"/>
      <point x="630.0" y="578.0"/>
      <point x="634.0" y="648.0" type="curve" smooth="yes"/>
      <point x="662.0" y="1086.0" type="line" smooth="yes"/>
      <point x="666.0" y="1138.0"/>
      <point x="680.0" y="1164.0"/>
      <point x="714.0" y="1172.0" type="curve" smooth="yes"/>
      <point x="746.0" y="1180.0" type="line" smooth="yes"/>
      <point x="808.0" y="1196.0"/>
      <point x="842.0" y="1234.0"/>
      <point x="842.0" y="1296.0" type="curve" smooth="yes"/>
      <point x="842.0" y="1358.0"/>
      <point x="802.0" y="1400.0"/>
      <point x="744.0" y="1400.0" type="curve" smooth="yes"/>
      <point x="116.0" y="1400.0" type="line" smooth="yes"/>
      <point x="58.0" y="1400.0"/>
      <point x="18.0" y="1358.0"/>
      <point x="18.0" y="1296.0" type="curve" smooth="yes"/>
      <point x="18.0" y="1234.0"/>
      <point x="52.0" y="1196.0"/>
      <point x="114.0" y="1180.0" type="curve" smooth="yes"/>
      <point x="146.0" y="1172.0" type="line" smooth="yes"/>
      <point x="198.0" y="1160.0"/>
      <point x="216.0" y="1136.0"/>
      <point x="212.0" y="1084.0" type="curve" smooth="yes"/>
      <point x="178.0" y="668.0" type="line" smooth="yes"/>
      <point x="172.0" y="608.0"/>
      <point x="164.0" y="488.0"/>
      <point x="164.0" y="434.0" type="curve" smooth="yes"/>
      <point x="164.0" y="136.0"/>
      <point x="372.0" y="-30.0"/>
      <point x="740.0" y="-30.0" type="curve" smooth="yes"/>
      <point x="1192.0" y="-30.0"/>
      <point x="1400.0" y="162.0"/>
      <point x="1400.0" y="424.0" type="curve" smooth="yes"/>
      <point x="1400.0" y="496.0"/>
      <point x="1396.0" y="560.0"/>
      <point x="1390.0" y="630.0" type="curve" smooth="yes"/>
      <point x="1348.0" y="1066.0" type="line" smooth="yes"/>
      <point x="1342.0" y="1126.0"/>
      <point x="1364.0" y="1160.0"/>
      <point x="1412.0" y="1172.0" type="curve" smooth="yes"/>
      <point x="1444.0" y="1180.0" type="line" smooth="yes"/>
      <point x="1506.0" y="1196.0"/>
      <point x="1540.0" y="1234.0"/>
      <point x="1540.0" y="1296.0" type="curve" smooth="yes"/>
      <point x="1540.0" y="1358.0"/>
      <point x="1500.0" y="1400.0"/>
      <point x="1442.0" y="1400.0" type="curve" smooth="yes"/>
      <point x="1056.0" y="1400.0" type="line" smooth="yes"/>
      <point x="998.0" y="1400.0"/>
      <point x="958.0" y="1358.0"/>
      <point x="958.0" y="1296.0" type="curve" smooth="yes"/>
      <point x="958.0" y="1234.0"/>
      <point x="992.0" y="1196.0"/>
      <point x="1054.0" y="1180.0" type="curve" smooth="yes"/>
      <point x="1086.0" y="1172.0" type="line" smooth="yes"/>
      <point x="1120.0" y="1164.0"/>
      <point x="1134.0" y="1138.0"/>
      <point x="1138.0" y="1086.0" type="curve" smooth="yes"/>
    </contour>
  </outline>
</glyph>
<glyph name="V" format="2">
  <advance width="832"/>
  <unicode hex="0056"/>
  <outline>
    <contour>
      <point x="546" y="649" type="curve" smooth="yes"/>
      <point x="546" y="621"/>
      <point x="562" y="600"/>
      <point x="592" y="578" type="curve" smooth="yes"/>
      <point x="560" y="594" type="line" smooth="yes"/>
      <point x="611" y="565"/>
      <point x="620" y="492"/>
      <point x="569" y="375" type="curve" smooth="yes"/>
      <point x="426" y="61" type="line"/>
      <point x="518" y="136" type="line"/>
      <point x="375" y="456" type="line" smooth="yes"/>
      <point x="355" y="500"/>
      <point x="354" y="550"/>
      <point x="379" y="574" type="curve" smooth="yes"/>
      <point x="377" y="582" type="line" smooth="yes"/>
      <point x="399" y="600"/>
      <point x="419" y="618"/>
      <point x="419" y="649" type="curve" smooth="yes"/>
      <point x="419" y="681"/>
      <point x="403" y="700"/>
      <point x="376" y="700" type="curve" smooth="yes"/>
      <point x="69" y="700" type="line" smooth="yes"/>
      <point x="39" y="700"/>
      <point x="20" y="683"/>
      <point x="20" y="651" type="curve" smooth="yes"/>
      <point x="20" y="624"/>
      <point x="31" y="600"/>
      <point x="54" y="584" type="curve" smooth="yes"/>
      <point x="67" y="576"/>
      <point x="80" y="557"/>
      <point x="101" y="512" type="curve" smooth="yes"/>
      <point x="271" y="141" type="line" smooth="yes"/>
      <point x="295" y="86"/>
      <point x="296" y="74"/>
      <point x="296" y="59" type="curve" smooth="yes"/>
      <point x="296" y="56" type="line" smooth="yes"/>
      <point x="296" y="15"/>
      <point x="318" y="0"/>
      <point x="348" y="0" type="curve" smooth="yes"/>
      <point x="480" y="0" type="line" smooth="yes"/>
      <point x="512" y="0"/>
      <point x="533" y="21"/>
      <point x="533" y="54" type="curve" smooth="yes"/>
      <point x="533" y="56" type="line" smooth="yes"/>
      <point x="533" y="77"/>
      <point x="536" y="94"/>
      <point x="553" y="130" type="curve" smooth="yes"/>
      <point x="717" y="480" type="line" smooth="yes"/>
      <point x="738" y="524"/>
      <point x="757" y="555"/>
      <point x="778" y="569" type="curve" smooth="yes"/>
      <point x="804" y="586"/>
      <point x="813" y="616"/>
      <point x="813" y="634" type="curve" smooth="yes"/>
      <point x="813" y="677"/>
      <point x="783" y="700"/>
      <point x="741" y="700" type="curve" smooth="yes"/>
      <point x="593" y="700" type="line" smooth="yes"/>
      <point x="561" y="700"/>
      <point x="546" y="680"/>
    </contour>
  </outline>
</glyph>
<glyph name="W" format="2">
  <advance width="2304"/>
  <unicode hex="0057"/>
  <guideline x="727" y="475" angle="0" identifier="rIcxZNgoao"/>
  <outline>
    <contour>
      <point x="1068" y="1078" type="line"/>
      <point x="740" y="142" type="line"/>
      <point x="922" y="277" type="line"/>
      <point x="669" y="1046" type="line" smooth="yes"/>
      <point x="642" y="1128"/>
      <point x="654" y="1173"/>
      <point x="691" y="1193" type="curve" smooth="yes"/>
      <point x="710" y="1203" type="line" smooth="yes"/>
      <point x="749" y="1223"/>
      <point x="769" y="1254"/>
      <point x="769" y="1298" type="curve" smooth="yes"/>
      <point x="769" y="1361"/>
      <point x="734" y="1400"/>
      <point x="654" y="1400" type="curve" smooth="yes"/>
      <point x="142" y="1400" type="line" smooth="yes"/>
      <point x="63" y="1400"/>
      <point x="27" y="1361"/>
      <point x="27" y="1298" type="curve" smooth="yes"/>
      <point x="27" y="1254"/>
      <point x="45" y="1216"/>
      <point x="81" y="1196" type="curve" smooth="yes"/>
      <point x="110" y="1180" type="line" smooth="yes"/>
      <point x="153" y="1156"/>
      <point x="170" y="1135"/>
      <point x="191" y="1072" type="curve" smooth="yes"/>
      <point x="477" y="220" type="line" smooth="yes"/>
      <point x="487" y="189"/>
      <point x="498" y="154"/>
      <point x="498" y="138" type="curve" smooth="yes"/>
      <point x="498" y="96" type="line" smooth="yes"/>
      <point x="498" y="32"/>
      <point x="536" y="0"/>
      <point x="584" y="0" type="curve" smooth="yes"/>
      <point x="892" y="0" type="line" smooth="yes"/>
      <point x="940" y="0"/>
      <point x="978" y="32"/>
      <point x="978" y="96" type="curve" smooth="yes"/>
      <point x="978" y="138" type="line" smooth="yes"/>
      <point x="978" y="176"/>
      <point x="984" y="218"/>
      <point x="1004" y="274" type="curve" smooth="yes"/>
      <point x="1279" y="1050" type="line"/>
    </contour>
    <contour>
      <point x="1784" y="1298" type="curve" smooth="yes"/>
      <point x="1784" y="1255"/>
      <point x="1805" y="1225"/>
      <point x="1837" y="1207" type="curve" smooth="yes"/>
      <point x="1862" y="1193" type="line" smooth="yes"/>
      <point x="1903" y="1170"/>
      <point x="1907" y="1134"/>
      <point x="1890" y="1078" type="curve" smooth="yes"/>
      <point x="1607" y="142" type="line"/>
      <point x="1772" y="277" type="line"/>
      <point x="1522" y="1046" type="line" smooth="yes"/>
      <point x="1496" y="1125"/>
      <point x="1508" y="1171"/>
      <point x="1538" y="1187" type="curve" smooth="yes"/>
      <point x="1560" y="1199" type="line" smooth="yes"/>
      <point x="1604" y="1223"/>
      <point x="1626" y="1250"/>
      <point x="1626" y="1298" type="curve" smooth="yes"/>
      <point x="1626" y="1361"/>
      <point x="1591" y="1400"/>
      <point x="1511" y="1400" type="curve" smooth="yes"/>
      <point x="1035" y="1400" type="line" smooth="yes"/>
      <point x="957" y="1400"/>
      <point x="920" y="1361"/>
      <point x="920" y="1298" type="curve" smooth="yes"/>
      <point x="920" y="1254"/>
      <point x="941" y="1225"/>
      <point x="975" y="1206" type="curve" smooth="yes"/>
      <point x="1004" y="1190" type="line" smooth="yes"/>
      <point x="1040" y="1170"/>
      <point x="1042" y="1140"/>
      <point x="1064" y="1072" type="curve" smooth="yes"/>
      <point x="1344" y="220" type="line" smooth="yes"/>
      <point x="1354" y="189"/>
      <point x="1365" y="154"/>
      <point x="1365" y="138" type="curve" smooth="yes"/>
      <point x="1365" y="96" type="line" smooth="yes"/>
      <point x="1365" y="32"/>
      <point x="1403" y="0"/>
      <point x="1451" y="0" type="curve" smooth="yes"/>
      <point x="1759" y="0" type="line" smooth="yes"/>
      <point x="1807" y="0"/>
      <point x="1845" y="32"/>
      <point x="1845" y="96" type="curve" smooth="yes"/>
      <point x="1845" y="138" type="line" smooth="yes"/>
      <point x="1845" y="176"/>
      <point x="1854" y="218"/>
      <point x="1871" y="274" type="curve" smooth="yes"/>
      <point x="2104" y="1050" type="line" smooth="yes"/>
      <point x="2130" y="1136"/>
      <point x="2149" y="1161"/>
      <point x="2191" y="1183" type="curve" smooth="yes"/>
      <point x="2223" y="1200" type="line" smooth="yes"/>
      <point x="2269" y="1225"/>
      <point x="2289" y="1252"/>
      <point x="2289" y="1298" type="curve" smooth="yes"/>
      <point x="2289" y="1361"/>
      <point x="2253" y="1400"/>
      <point x="2174" y="1400" type="curve" smooth="yes"/>
      <point x="1899" y="1400" type="line" smooth="yes"/>
      <point x="1821" y="1400"/>
      <point x="1784" y="1361"/>
    </contour>
  </outline>
</glyph>
<glyph name="X" format="2">
  <advance width="1590"/>
  <unicode hex="0058"/>
  <outline>
    <contour>
      <point x="1344" y="292" type="curve" smooth="yes"/>
      <point x="854" y="1008" type="line" smooth="yes"/>
      <point x="804" y="1078"/>
      <point x="762" y="1164"/>
      <point x="846" y="1186" type="curve" smooth="yes"/>
      <point x="850" y="1190" type="line" smooth="yes"/>
      <point x="882" y="1196"/>
      <point x="918" y="1236"/>
      <point x="918" y="1298" type="curve" smooth="yes"/>
      <point x="918" y="1366"/>
      <point x="876" y="1400"/>
      <point x="804" y="1400" type="curve" smooth="yes"/>
      <point x="112" y="1400" type="line" smooth="yes"/>
      <point x="78" y="1400"/>
      <point x="54" y="1366"/>
      <point x="54" y="1302" type="curve" smooth="yes"/>
      <point x="54" y="1256"/>
      <point x="66" y="1215"/>
      <point x="132" y="1188" type="curve" smooth="yes"/>
      <point x="188.8895602713649" y="1164.7269980708052"/>
      <point x="205" y="1144"/>
      <point x="234" y="1102" type="curve" smooth="yes"/>
      <point x="692" y="434" type="line" smooth="yes"/>
      <point x="802" y="286"/>
      <point x="790" y="250"/>
      <point x="710" y="220" type="curve" smooth="yes"/>
      <point x="670" y="205"/>
      <point x="652" y="178"/>
      <point x="652" y="112" type="curve" smooth="yes"/>
      <point x="652" y="46"/>
      <point x="700" y="0"/>
      <point x="768" y="0" type="curve" smooth="yes"/>
      <point x="1450" y="0" type="line" smooth="yes"/>
      <point x="1516" y="0"/>
      <point x="1548" y="42"/>
      <point x="1548" y="104" type="curve" smooth="yes"/>
      <point x="1548" y="174"/>
      <point x="1522" y="216"/>
      <point x="1482" y="220" type="curve" smooth="yes"/>
      <point x="1422" y="230"/>
      <point x="1386" y="231"/>
    </contour>
    <contour>
      <point x="924.0" y="630.0" type="line"/>
      <point x="1256.0" y="1018.0" type="line" smooth="yes"/>
      <point x="1318.0" y="1088.0"/>
      <point x="1336.0" y="1116.0"/>
      <point x="1398.0" y="1142.0" type="curve" smooth="yes"/>
      <point x="1468.0" y="1170.0"/>
      <point x="1488.0" y="1212.0"/>
      <point x="1492.0" y="1286.0" type="curve" smooth="yes"/>
      <point x="1496.0" y="1348.0"/>
      <point x="1450.0" y="1400.0"/>
      <point x="1386.0" y="1400.0" type="curve" smooth="yes"/>
      <point x="956.0" y="1400.0" type="line" smooth="yes"/>
      <point x="892.0" y="1400.0"/>
      <point x="860.0" y="1366.0"/>
      <point x="860.0" y="1298.0" type="curve" smooth="yes"/>
      <point x="860.0" y="1238.0"/>
      <point x="884.0" y="1216.0"/>
      <point x="948.0" y="1184.0" type="curve" smooth="yes"/>
      <point x="974.0" y="1164.0" type="line" smooth="yes"/>
      <point x="1044.0" y="1130.0"/>
      <point x="1036.0" y="1042.0"/>
      <point x="932.0" y="914.0" type="curve" smooth="yes"/>
      <point x="740.0" y="696.0" type="line"/>
    </contour>
    <contour>
      <point x="668.0" y="774.0" type="line"/>
      <point x="358.0" y="380.0" type="line" smooth="yes"/>
      <point x="306.0" y="312.0"/>
      <point x="246.0" y="280.0"/>
      <point x="166.0" y="270.0" type="curve" smooth="yes"/>
      <point x="60.0" y="256.0"/>
      <point x="40.0" y="182.0"/>
      <point x="40.0" y="136.0" type="curve" smooth="yes"/>
      <point x="40.0" y="42.0"/>
      <point x="94.0" y="-2.0"/>
      <point x="162.0" y="-2.0" type="curve" smooth="yes"/>
      <point x="600.0" y="-2.0" type="line" smooth="yes"/>
      <point x="666.0" y="-2.0"/>
      <point x="696.0" y="38.0"/>
      <point x="696.0" y="98.0" type="curve" smooth="yes"/>
      <point x="696.0" y="138.0"/>
      <point x="694.0" y="188.0"/>
      <point x="626.0" y="216.0" type="curve" smooth="yes"/>
      <point x="570.0" y="240.0" type="line" smooth="yes"/>
      <point x="530.0" y="258.0"/>
      <point x="518.0" y="302.0"/>
      <point x="558.0" y="344.0" type="curve" smooth="yes"/>
      <point x="852.0" y="706.0" type="line"/>
    </contour>
  </outline>
</glyph>
<glyph name="Y" format="2">
  <advance width="1408"/>
  <unicode hex="0059"/>
  <anchor x="644.0" y="1420.0" name="center"/>
  <outline>
    <contour>
      <point x="488.0" y="490.0" type="line"/>
      <point x="488.0" y="306.0" type="line" smooth="yes"/>
      <point x="488.0" y="256.0"/>
      <point x="466.0" y="234.0"/>
      <point x="418.0" y="220.0" type="curve" smooth="yes"/>
      <point x="364.0" y="208.0" type="line" smooth="yes"/>
      <point x="330.0" y="200.0"/>
      <point x="310.0" y="168.0"/>
      <point x="310.0" y="100.0" type="curve" smooth="yes"/>
      <point x="310.0" y="36.0"/>
      <point x="352.0" y="0.0"/>
      <point x="408.0" y="0.0" type="curve" smooth="yes"/>
      <point x="1014.0" y="0.0" type="line" smooth="yes"/>
      <point x="1082.0" y="0.0"/>
      <point x="1112.0" y="32.0"/>
      <point x="1112.0" y="100.0" type="curve" smooth="yes"/>
      <point x="1112.0" y="168.0"/>
      <point x="1092.0" y="200.0"/>
      <point x="1058.0" y="208.0" type="curve" smooth="yes"/>
      <point x="1004.0" y="220.0" type="line" smooth="yes"/>
      <point x="956.0" y="234.0"/>
      <point x="934.0" y="256.0"/>
      <point x="934.0" y="306.0" type="curve" smooth="yes"/>
      <point x="934.0" y="490.0" type="line"/>
    </contour>
    <contour>
      <point x="906.0" y="406.0" type="line"/>
      <point x="1198.0" y="1016.0" type="line" smooth="yes"/>
      <point x="1246.0" y="1120.0"/>
      <point x="1268.0" y="1150.0"/>
      <point x="1314.0" y="1166.0" type="curve" smooth="yes"/>
      <point x="1356.0" y="1178.0"/>
      <point x="1366.0" y="1238.0"/>
      <point x="1366.0" y="1290.0" type="curve" smooth="yes"/>
      <point x="1366.0" y="1364.0"/>
      <point x="1336.0" y="1400.0"/>
      <point x="1264.0" y="1400.0" type="curve" smooth="yes"/>
      <point x="966.0" y="1400.0" type="line" smooth="yes"/>
      <point x="906.0" y="1400.0"/>
      <point x="870.0" y="1358.0"/>
      <point x="870.0" y="1298.0" type="curve" smooth="yes"/>
      <point x="870.0" y="1250.0"/>
      <point x="890.0" y="1194.0"/>
      <point x="936.0" y="1180.0" type="curve" smooth="yes"/>
      <point x="1006.0" y="1154.0"/>
      <point x="1022.0" y="1128.0"/>
      <point x="1024.0" y="1096.0" type="curve" smooth="yes"/>
      <point x="1024.0" y="1072.0"/>
      <point x="1016.0" y="1044.0"/>
      <point x="1000.0" y="1012.0" type="curve" smooth="yes"/>
      <point x="770.0" y="502.0" type="line"/>
      <point x="896.0" y="542.0" type="line"/>
      <point x="648.0" y="1062.0" type="line" smooth="yes"/>
      <point x="620.0" y="1122.0"/>
      <point x="646.0" y="1166.0"/>
      <point x="704.0" y="1180.0" type="curve" smooth="yes"/>
      <point x="752.0" y="1192.0" type="line" smooth="yes"/>
      <point x="784.0" y="1200.0"/>
      <point x="798.0" y="1236.0"/>
      <point x="798.0" y="1298.0" type="curve" smooth="yes"/>
      <point x="798.0" y="1360.0"/>
      <point x="762.0" y="1400.0"/>
      <point x="710.0" y="1400.0" type="curve" smooth="yes"/>
      <point x="140.0" y="1400.0" type="line" smooth="yes"/>
      <point x="80.0" y="1400.0"/>
      <point x="40.0" y="1366.0"/>
      <point x="40.0" y="1302.0" type="curve" smooth="yes"/>
      <point x="40.0" y="1256.0"/>
      <point x="46.0" y="1202.0"/>
      <point x="88.0" y="1188.0" type="curve" smooth="yes"/>
      <point x="140.0" y="1170.0"/>
      <point x="146.0" y="1146.0"/>
      <point x="186.0" y="1070.0" type="curve" smooth="yes"/>
      <point x="520.0" y="406.0" type="line"/>
    </contour>
  </outline>
</glyph>
<glyph name="Z" format="2">
  <advance width="1450"/>
  <unicode hex="005A"/>
  <outline>
    <contour>
      <point x="1256.0" y="1156.0" type="line" smooth="yes"/>
      <point x="1296.0" y="1214.0"/>
      <point x="1314.0" y="1276.0"/>
      <point x="1314.0" y="1300.0" type="curve" smooth="yes"/>
      <point x="1314.0" y="1360.0"/>
      <point x="1290.0" y="1404.0"/>
      <point x="1230.0" y="1404.0" type="curve" smooth="yes"/>
      <point x="500.0" y="1404.0" type="line" smooth="yes"/>
      <point x="426.0" y="1404.0"/>
      <point x="362.0" y="1450.0"/>
      <point x="292.0" y="1450.0" type="curve" smooth="yes"/>
      <point x="220.0" y="1450.0"/>
      <point x="178.0" y="1400.0"/>
      <point x="158.0" y="1300.0" type="curve" smooth="yes"/>
      <point x="114.0" y="1044.0" type="line" smooth="yes"/>
      <point x="106.0" y="1000.0"/>
      <point x="106.0" y="964.0"/>
      <point x="106.0" y="922.0" type="curve" smooth="yes"/>
      <point x="106.0" y="860.0"/>
      <point x="132.0" y="820.0"/>
      <point x="184.0" y="820.0" type="curve" smooth="yes"/>
      <point x="252.0" y="820.0"/>
      <point x="306.0" y="852.0"/>
      <point x="336.0" y="944.0" type="curve" smooth="yes"/>
      <point x="340.0" y="1002.0" type="line" smooth="yes"/>
      <point x="388.0" y="1142.0"/>
      <point x="528.0" y="1228.0"/>
      <point x="644.0" y="1228.0" type="curve" smooth="yes"/>
      <point x="928.0" y="1228.0" type="line"/>
      <point x="906.0" y="1340.0" type="line"/>
      <point x="196.0" y="250.0" type="line" smooth="yes"/>
      <point x="136.0" y="162.0"/>
      <point x="142.0" y="152.0"/>
      <point x="142.0" y="144.0" type="curve" smooth="yes"/>
      <point x="142.0" y="72.0"/>
      <point x="180.0" y="6.0"/>
      <point x="274.0" y="6.0" type="curve" smooth="yes"/>
      <point x="968.0" y="6.0" type="line" smooth="yes"/>
      <point x="1066.0" y="6.0"/>
      <point x="1114.0" y="-42.0"/>
      <point x="1158.0" y="-42.0" type="curve" smooth="yes"/>
      <point x="1260.0" y="-42.0"/>
      <point x="1314.0" y="-4.0"/>
      <point x="1334.0" y="116.0" type="curve" smooth="yes"/>
      <point x="1366.0" y="318.0" type="line" smooth="yes"/>
      <point x="1382.0" y="418.0"/>
      <point x="1386.0" y="472.0"/>
      <point x="1386.0" y="532.0" type="curve" smooth="yes"/>
      <point x="1386.0" y="586.0"/>
      <point x="1346.0" y="618.0"/>
      <point x="1302.0" y="618.0" type="curve" smooth="yes"/>
      <point x="1258.0" y="618.0"/>
      <point x="1228.0" y="596.0"/>
      <point x="1194.0" y="524.0" type="curve" smooth="yes"/>
      <point x="1184.0" y="466.0" type="line" smooth="yes"/>
      <point x="1080.0" y="236.0"/>
      <point x="960.0" y="184.0"/>
      <point x="788.0" y="184.0" type="curve" smooth="yes"/>
      <point x="282.0" y="184.0" type="line"/>
      <point x="546.0" y="70.0" type="line"/>
    </contour>
  </outline>
</glyph>
<glyph name="asciicircum" format="2">
  <advance width="886"/>
  <unicode hex="005E"/>
  <outline>
    <contour>
      <point x="49" y="1006" type="curve" smooth="yes"/>
      <point x="240" y="1291" type="line" smooth="yes"/>
      <point x="331" y="1406"/>
      <point x="366" y="1444"/>
      <point x="445" y="1444" type="curve" smooth="yes"/>
      <point x="517" y="1444"/>
      <point x="553" y="1406"/>
      <point x="646" y="1295" type="curve" smooth="yes"/>
      <point x="843" y="1006" type="line" smooth="yes"/>
      <point x="876" y="972"/>
      <point x="907" y="934"/>
      <point x="907" y="893" type="curve" smooth="yes"/>
      <point x="907" y="857"/>
      <point x="887" y="834"/>
      <point x="842" y="834" type="curve" smooth="yes"/>
      <point x="796" y="834"/>
      <point x="753" y="845"/>
      <point x="678" y="899" type="curve" smooth="yes"/>
      <point x="383" y="1192" type="line"/>
      <point x="505" y="1192" type="line"/>
      <point x="210" y="899" type="line" smooth="yes"/>
      <point x="136" y="846"/>
      <point x="97" y="834"/>
      <point x="55" y="834" type="curve" smooth="yes"/>
      <point x="6" y="834"/>
      <point x="-18" y="856"/>
      <point x="-18" y="891" type="curve" smooth="yes"/>
      <point x="-18" y="932"/>
      <point x="13" y="969"/>
    </contour>
  </outline>
</glyph>
<glyph name="a" format="2">
  <advance width="1142"/>
  <unicode hex="0061"/>
  <anchor x="583" y="1061" name="center"/>
  <outline>
    <contour>
      <point x="87" y="714" type="curve" smooth="yes"/>
      <point x="87" y="622"/>
      <point x="145" y="573"/>
      <point x="247" y="573" type="curve" smooth="yes"/>
      <point x="376" y="573"/>
      <point x="456" y="646"/>
      <point x="456" y="751" type="curve" smooth="yes"/>
      <point x="456" y="838" type="line" smooth="yes"/>
      <point x="456" y="877"/>
      <point x="487" y="902"/>
      <point x="528" y="902" type="curve" smooth="yes"/>
      <point x="572" y="902"/>
      <point x="601" y="869"/>
      <point x="601" y="818" type="curve" smooth="yes"/>
      <point x="601" y="149" type="line" smooth="yes"/>
      <point x="626" y="130" type="line"/>
      <point x="626" y="39"/>
      <point x="717" y="-25"/>
      <point x="858" y="-25" type="curve" smooth="yes"/>
      <point x="1048" y="-25"/>
      <point x="1133" y="91"/>
      <point x="1133" y="169" type="curve" smooth="yes"/>
      <point x="1133" y="190"/>
      <point x="1123" y="205"/>
      <point x="1102" y="205" type="curve" smooth="yes"/>
      <point x="1085" y="205"/>
      <point x="1075" y="164"/>
      <point x="1044" y="164" type="curve" smooth="yes"/>
      <point x="1019" y="164"/>
      <point x="1007" y="182"/>
      <point x="1007" y="209" type="curve" smooth="yes"/>
      <point x="1007" y="690" type="line" smooth="yes"/>
      <point x="1007" y="879"/>
      <point x="876" y="988"/>
      <point x="612" y="988" type="curve" smooth="yes"/>
      <point x="261" y="988"/>
      <point x="87" y="839"/>
    </contour>
    <contour>
      <point x="636" y="410" type="curve"/>
      <point x="663" y="474" type="line"/>
      <point x="629" y="495"/>
      <point x="581" y="507"/>
      <point x="510" y="507" type="curve" smooth="yes"/>
      <point x="200" y="507"/>
      <point x="39" y="396"/>
      <point x="39" y="215" type="curve" smooth="yes"/>
      <point x="39" y="78"/>
      <point x="160" y="-25"/>
      <point x="336" y="-25" type="curve" smooth="yes"/>
      <point x="470" y="-25"/>
      <point x="599" y="29"/>
      <point x="661" y="126" type="curve"/>
      <point x="640" y="192" type="line"/>
      <point x="622" y="166"/>
      <point x="584" y="143"/>
      <point x="547" y="143" type="curve" smooth="yes"/>
      <point x="486" y="143"/>
      <point x="445" y="190"/>
      <point x="445" y="285" type="curve" smooth="yes"/>
      <point x="445" y="381"/>
      <point x="484" y="433"/>
      <point x="544" y="433" type="curve" smooth="yes"/>
      <point x="580" y="433"/>
      <point x="606" y="428"/>
    </contour>
  </outline>
</glyph>
<glyph name="b" format="2">
  <advance width="1241"/>
  <unicode hex="0062"/>
  <outline>
    <contour>
      <point x="511" y="1510" type="line" smooth="yes"/>
      <point x="511" y="1542"/>
      <point x="491" y="1564"/>
      <point x="461" y="1564" type="curve" smooth="yes"/>
      <point x="431" y="1564"/>
      <point x="410" y="1558"/>
      <point x="367" y="1542" type="curve" smooth="yes"/>
      <point x="61" y="1445" type="line" smooth="yes"/>
      <point x="29" y="1433"/>
      <point x="15" y="1417"/>
      <point x="15" y="1392" type="curve" smooth="yes"/>
      <point x="15" y="1370"/>
      <point x="27" y="1357"/>
      <point x="47" y="1349" type="curve" smooth="yes"/>
      <point x="75" y="1345" type="line" smooth="yes"/>
      <point x="93" y="1337"/>
      <point x="104" y="1328"/>
      <point x="104" y="1291" type="curve" smooth="yes"/>
      <point x="104" y="22" type="line" smooth="yes"/>
      <point x="104" y="-6"/>
      <point x="122" y="-23"/>
      <point x="148" y="-23" type="curve" smooth="yes"/>
      <point x="182" y="-23"/>
      <point x="217" y="-11"/>
      <point x="257" y="2" type="curve" smooth="yes"/>
      <point x="511" y="64" type="line" smooth="yes"/>
    </contour>
    <contour>
      <point x="461" y="703" type="line"/>
      <point x="503" y="787"/>
      <point x="559" y="826"/>
      <point x="623" y="826" type="curve" smooth="yes"/>
      <point x="715" y="826"/>
      <point x="780" y="729"/>
      <point x="780" y="474" type="curve" smooth="yes"/>
      <point x="780" y="204"/>
      <point x="713" y="111"/>
      <point x="613" y="111" type="curve" smooth="yes"/>
      <point x="554" y="111"/>
      <point x="508" y="139"/>
      <point x="471" y="218" type="curve"/>
      <point x="399" y="143" type="line"/>
      <point x="466" y="29"/>
      <point x="559" y="-25"/>
      <point x="708" y="-25" type="curve" smooth="yes"/>
      <point x="990" y="-25"/>
      <point x="1198" y="191"/>
      <point x="1198" y="516" type="curve" smooth="yes"/>
      <point x="1198" y="805"/>
      <point x="1029" y="989"/>
      <point x="785" y="989" type="curve" smooth="yes"/>
      <point x="630" y="989"/>
      <point x="514" y="904"/>
      <point x="415" y="754" type="curve"/>
    </contour>
  </outline>
</glyph>
<glyph name="c" format="2">
  <advance width="1076"/>
  <unicode hex="0063"/>
  <anchor x="566.0" y="1046.0" name="center"/>
  <outline>
    <contour>
      <point x="1048.0" y="636.0" type="curve" smooth="yes"/>
      <point x="1048.0" y="862.0"/>
      <point x="888.0" y="992.0"/>
      <point x="618.0" y="992.0" type="curve" smooth="yes"/>
      <point x="284.0" y="992.0"/>
      <point x="52.0" y="764.0"/>
      <point x="52.0" y="448.0" type="curve" smooth="yes"/>
      <point x="52.0" y="154.0"/>
      <point x="282.0" y="-30.0"/>
      <point x="588.0" y="-30.0" type="curve" smooth="yes"/>
      <point x="818.0" y="-30.0"/>
      <point x="1014.0" y="92.0"/>
      <point x="1016.0" y="314.0" type="curve" smooth="yes"/>
      <point x="1018.0" y="378.0"/>
      <point x="984.0" y="428.0"/>
      <point x="940.0" y="428.0" type="curve" smooth="yes"/>
      <point x="908.0" y="428.0"/>
      <point x="880.0" y="418.0"/>
      <point x="826.0" y="360.0" type="curve" smooth="yes"/>
      <point x="802.0" y="326.0"/>
      <point x="756.0" y="312.0"/>
      <point x="690.0" y="312.0" type="curve" smooth="yes"/>
      <point x="558.0" y="312.0"/>
      <point x="450.0" y="420.0"/>
      <point x="450.0" y="544.0" type="curve" smooth="yes"/>
      <point x="450.0" y="676.0"/>
      <point x="478.0" y="784.0"/>
      <point x="558.0" y="784.0" type="curve" smooth="yes"/>
      <point x="606.0" y="784.0"/>
      <point x="628.0" y="744.0"/>
      <point x="628.0" y="674.0" type="curve" smooth="yes"/>
      <point x="628.0" y="642.0" type="line" smooth="yes"/>
      <point x="628.0" y="530.0"/>
      <point x="712.0" y="440.0"/>
      <point x="846.0" y="440.0" type="curve" smooth="yes"/>
      <point x="968.0" y="440.0"/>
      <point x="1048.0" y="524.0"/>
    </contour>
  </outline>
</glyph>
<glyph name="d" format="2">
  <advance width="666"/>
  <unicode hex="0064"/>
  <outline>
    <contour>
      <point x="416" y="176" type="line"/>
      <point x="394" y="129"/>
      <point x="365" y="109"/>
      <point x="331" y="109" type="curve" smooth="yes"/>
      <point x="282" y="109"/>
      <point x="244" y="153"/>
      <point x="244" y="249" type="curve" smooth="yes"/>
      <point x="244" y="340"/>
      <point x="277" y="389"/>
      <point x="325" y="389" type="curve" smooth="yes"/>
      <point x="356" y="389"/>
      <point x="383" y="375"/>
      <point x="408" y="327" type="curve"/>
      <point x="465" y="393" type="line"/>
      <point x="421" y="463"/>
      <point x="362" y="497"/>
      <point x="281" y="497" type="curve" smooth="yes"/>
      <point x="135" y="497"/>
      <point x="25" y="388"/>
      <point x="25" y="225" type="curve" smooth="yes"/>
      <point x="25" y="84"/>
      <point x="114" y="-14"/>
      <point x="233" y="-14" type="curve" smooth="yes"/>
      <point x="325" y="-14"/>
      <point x="395" y="43"/>
      <point x="452" y="136" type="curve"/>
    </contour>
    <contour>
      <point x="389" y="83" type="line"/>
      <point x="389" y="39"/>
      <point x="432" y="0"/>
      <point x="480" y="0" type="curve" smooth="yes"/>
      <point x="590" y="0" type="line" smooth="yes"/>
      <point x="619" y="0"/>
      <point x="637" y="16"/>
      <point x="637" y="43" type="curve" smooth="yes"/>
      <point x="637" y="63"/>
      <point x="628" y="76"/>
      <point x="612" y="87" type="curve" smooth="yes"/>
      <point x="605" y="92" type="line" smooth="yes"/>
      <point x="596" y="99"/>
      <point x="591" y="108"/>
      <point x="591" y="142" type="curve" smooth="yes"/>
      <point x="591" y="670" type="line" smooth="yes"/>
      <point x="591.0" y="696.0"/>
      <point x="575" y="715"/>
      <point x="550" y="715" type="curve" smooth="yes"/>
      <point x="525" y="715"/>
      <point x="507" y="709"/>
      <point x="473" y="696" type="curve" smooth="yes"/>
      <point x="367" y="655" type="line" smooth="yes"/>
      <point x="339" y="644"/>
      <point x="327" y="630"/>
      <point x="327" y="609" type="curve" smooth="yes"/>
      <point x="327" y="590"/>
      <point x="337" y="580"/>
      <point x="352" y="571" type="curve" smooth="yes"/>
      <point x="359" y="567" type="line" smooth="yes"/>
      <point x="371" y="560"/>
      <point x="379.0" y="553.0"/>
      <point x="379" y="523" type="curve" smooth="yes"/>
      <point x="379" y="108" type="line"/>
    </contour>
  </outline>
</glyph>
<glyph name="e" format="2">
  <advance width="1092"/>
  <unicode hex="0065"/>
  <anchor x="502.0" y="1048.0" name="center"/>
  <outline>
    <contour>
      <point x="1062.0" y="624.0" type="curve" smooth="yes"/>
      <point x="1062.0" y="836.0"/>
      <point x="898.0" y="992.0"/>
      <point x="604.0" y="992.0" type="curve" smooth="yes"/>
      <point x="238.0" y="992.0"/>
      <point x="40.0" y="776.0"/>
      <point x="40.0" y="454.0" type="curve" smooth="yes"/>
      <point x="40.0" y="160.0"/>
      <point x="262.0" y="-30.0"/>
      <point x="570.0" y="-30.0" type="curve" smooth="yes"/>
      <point x="870.0" y="-30.0"/>
      <point x="1056.0" y="134.0"/>
      <point x="1058.0" y="320.0" type="curve" smooth="yes"/>
      <point x="1058.0" y="372.0"/>
      <point x="1036.0" y="392.0"/>
      <point x="1006.0" y="392.0" type="curve" smooth="yes"/>
      <point x="990.0" y="392.0"/>
      <point x="968.0" y="386.0"/>
      <point x="930.0" y="354.0" type="curve" smooth="yes"/>
      <point x="858.0" y="294.0"/>
      <point x="778.0" y="280.0"/>
      <point x="684.0" y="280.0" type="curve" smooth="yes"/>
      <point x="544.0" y="280.0"/>
      <point x="416.0" y="388.0"/>
      <point x="416.0" y="554.0" type="curve" smooth="yes"/>
      <point x="416.0" y="718.0"/>
      <point x="470.0" y="796.0"/>
      <point x="536.0" y="796.0" type="curve" smooth="yes"/>
      <point x="590.0" y="796.0"/>
      <point x="638.0" y="734.0"/>
      <point x="638.0" y="644.0" type="curve" smooth="yes"/>
      <point x="638.0" y="604.0"/>
      <point x="610.0" y="578.0"/>
      <point x="562.0" y="578.0" type="curve" smooth="yes"/>
      <point x="308.0" y="578.0" type="line"/>
      <point x="308.0" y="468.0" type="line"/>
      <point x="886.0" y="468.0" type="line" smooth="yes"/>
      <point x="1000.0" y="468.0"/>
      <point x="1062.0" y="532.0"/>
    </contour>
  </outline>
</glyph>
<glyph name="f" format="2">
  <advance width="866"/>
  <unicode hex="0066"/>
  <outline>
    <contour>
      <point x="612.0" y="312.0" type="curve" smooth="yes"/>
      <point x="612.0" y="704.0" type="line"/>
      <point x="666.0" y="704.0" type="line" smooth="yes"/>
      <point x="780.0" y="704.0"/>
      <point x="860.0" y="756.0"/>
      <point x="860.0" y="832.0" type="curve" smooth="yes"/>
      <point x="860.0" y="886.0"/>
      <point x="820.0" y="912.0"/>
      <point x="758.0" y="912.0" type="curve" smooth="yes"/>
      <point x="522.0" y="912.0" type="line"/>
      <point x="572.0" y="850.0" type="line"/>
      <point x="572.0" y="902.0" type="line" smooth="yes"/>
      <point x="572.0" y="1018.0"/>
      <point x="400.0" y="1128.0"/>
      <point x="400.0" y="1232.0" type="curve" smooth="yes"/>
      <point x="400.0" y="1282.0"/>
      <point x="426.0" y="1316.0"/>
      <point x="474.0" y="1316.0" type="curve" smooth="yes"/>
      <point x="522.0" y="1316.0"/>
      <point x="556.0" y="1282.0"/>
      <point x="556.0" y="1212.0" type="curve" smooth="yes"/>
      <point x="556.0" y="1170.0" type="line" smooth="yes"/>
      <point x="556.0" y="1070.0"/>
      <point x="632.0" y="996.0"/>
      <point x="736.0" y="996.0" type="curve" smooth="yes"/>
      <point x="836.0" y="996.0"/>
      <point x="900.0" y="1054.0"/>
      <point x="900.0" y="1164.0" type="curve" smooth="yes"/>
      <point x="900.0" y="1322.0"/>
      <point x="788.0" y="1442.0"/>
      <point x="536.0" y="1442.0" type="curve" smooth="yes"/>
      <point x="226.0" y="1442.0"/>
      <point x="78.0" y="1292.0"/>
      <point x="78.0" y="1120.0" type="curve" smooth="yes"/>
      <point x="78.0" y="988.0"/>
      <point x="196.0" y="924.0"/>
      <point x="196.0" y="894.0" type="curve" smooth="yes"/>
      <point x="196.0" y="872.0" type="line"/>
      <point x="312.0" y="912.0" type="line"/>
      <point x="112.0" y="912.0" type="line" smooth="yes"/>
      <point x="58.0" y="912.0"/>
      <point x="24.0" y="880.0"/>
      <point x="24.0" y="834.0" type="curve" smooth="yes"/>
      <point x="24.0" y="788.0"/>
      <point x="48.0" y="754.0"/>
      <point x="112.0" y="728.0" type="curve" smooth="yes"/>
      <point x="136.0" y="718.0" type="line" smooth="yes"/>
      <point x="174.0" y="702.0"/>
      <point x="198.0" y="676.0"/>
      <point x="198.0" y="632.0" type="curve" smooth="yes"/>
      <point x="198.0" y="258.0" type="line" smooth="yes"/>
      <point x="198.0" y="208.0"/>
      <point x="174.0" y="188.0"/>
      <point x="142.0" y="176.0" type="curve" smooth="yes"/>
      <point x="122.0" y="168.0" type="line" smooth="yes"/>
      <point x="74.0" y="150.0"/>
      <point x="52.0" y="126.0"/>
      <point x="52.0" y="80.0" type="curve" smooth="yes"/>
      <point x="52.0" y="26.0"/>
      <point x="78.0" y="0.0"/>
      <point x="126.0" y="0.0" type="curve" smooth="yes"/>
      <point x="750.0" y="0.0" type="line" smooth="yes"/>
      <point x="804.0" y="0.0"/>
      <point x="836.0" y="26.0"/>
      <point x="836.0" y="80.0" type="curve" smooth="yes"/>
      <point x="836.0" y="126.0"/>
      <point x="794.0" y="156.0"/>
      <point x="740.0" y="172.0" type="curve" smooth="yes"/>
      <point x="694.0" y="186.0" type="line" smooth="yes"/>
      <point x="638.0" y="204.0"/>
      <point x="612.0" y="250.0"/>
    </contour>
  </outline>
</glyph>
<glyph name="g" format="2">
  <advance width="1236"/>
  <unicode hex="0067"/>
  <outline>
    <contour>
      <point x="800" y="161" type="curve" smooth="yes"/>
      <point x="1105" y="131"/>
      <point x="1235" y="53"/>
      <point x="1235" y="-121" type="curve" smooth="yes"/>
      <point x="1235" y="-326"/>
      <point x="998" y="-476"/>
      <point x="545" y="-476" type="curve" smooth="yes"/>
      <point x="197" y="-476"/>
      <point x="43" y="-408"/>
      <point x="43" y="-288" type="curve" smooth="yes"/>
      <point x="43" y="-165"/>
      <point x="135" y="-104"/>
      <point x="391" y="-104" type="curve"/>
      <point x="397" y="-122" type="line"/>
      <point x="387" y="-132"/>
      <point x="375" y="-162"/>
      <point x="375" y="-189" type="curve" smooth="yes"/>
      <point x="375" y="-250"/>
      <point x="429" y="-288"/>
      <point x="643" y="-288" type="curve" smooth="yes"/>
      <point x="832" y="-288"/>
      <point x="869" y="-262"/>
      <point x="869" y="-221" type="curve" smooth="yes"/>
      <point x="869" y="-173"/>
      <point x="789" y="-168"/>
      <point x="543" y="-141" type="curve" smooth="yes"/>
      <point x="222" y="-106"/>
      <point x="159" y="-35"/>
      <point x="159" y="74" type="curve" smooth="yes"/>
      <point x="159" y="177"/>
      <point x="250" y="274"/>
      <point x="555" y="274" type="curve"/>
      <point x="567" y="254" type="line"/>
      <point x="546" y="241"/>
      <point x="535" y="232"/>
      <point x="535" y="219" type="curve" smooth="yes"/>
      <point x="535" y="185"/>
      <point x="585" y="183"/>
    </contour>
    <contour>
      <point x="756" y="903" type="line" smooth="yes"/>
      <point x="792" y="991" type="line" smooth="yes"/>
      <point x="867" y="1175"/>
      <point x="990" y="1261"/>
      <point x="1122" y="1261" type="curve" smooth="yes"/>
      <point x="1224" y="1261"/>
      <point x="1297" y="1201"/>
      <point x="1297" y="1090" type="curve" smooth="yes"/>
      <point x="1297" y="989"/>
      <point x="1242" y="921"/>
      <point x="1159" y="921" type="curve" smooth="yes"/>
      <point x="1064" y="921"/>
      <point x="1039" y="1006"/>
      <point x="969" y="1006" type="curve" smooth="yes"/>
      <point x="929" y="1006"/>
      <point x="909" y="982"/>
      <point x="872" y="889" type="curve"/>
    </contour>
    <contour>
      <point x="1149" y="625" type="curve" smooth="yes"/>
      <point x="1149" y="389"/>
      <point x="940" y="236"/>
      <point x="625" y="236" type="curve" smooth="yes"/>
      <point x="264" y="236"/>
      <point x="71" y="386"/>
      <point x="71" y="594" type="curve" smooth="yes"/>
      <point x="71" y="839"/>
      <point x="278" y="994"/>
      <point x="632" y="994" type="curve" smooth="yes"/>
      <point x="972" y="994"/>
      <point x="1149" y="822"/>
    </contour>
    <contour>
      <point x="583" y="848" type="curve" smooth="yes"/>
      <point x="515" y="848"/>
      <point x="491" y="787"/>
      <point x="495" y="702" type="curve" smooth="yes"/>
      <point x="502" y="497"/>
      <point x="552" y="382"/>
      <point x="635" y="382" type="curve" smooth="yes"/>
      <point x="705" y="382"/>
      <point x="729" y="434"/>
      <point x="725" y="541" type="curve" smooth="yes"/>
      <point x="719" y="722"/>
      <point x="675" y="848"/>
    </contour>
  </outline>
</glyph>
<glyph name="i" format="2">
  <advance width="352"/>
  <unicode hex="0069"/>
  <outline>
    <contour>
      <point x="287" y="452" type="line" smooth="yes"/>
      <point x="287" y="478"/>
      <point x="271" y="497"/>
      <point x="246" y="497" type="curve" smooth="yes"/>
      <point x="221" y="497"/>
      <point x="203" y="491"/>
      <point x="169" y="478" type="curve" smooth="yes"/>
      <point x="63" y="437" type="line" smooth="yes"/>
      <point x="35" y="426"/>
      <point x="23" y="412"/>
      <point x="23" y="391" type="curve" smooth="yes"/>
      <point x="23" y="372"/>
      <point x="33" y="362"/>
      <point x="48" y="353" type="curve" smooth="yes"/>
      <point x="55" y="349" type="line" smooth="yes"/>
      <point x="67" y="342"/>
      <point x="75" y="335"/>
      <point x="75" y="305" type="curve" smooth="yes"/>
      <point x="75" y="142" type="line" smooth="yes"/>
      <point x="75" y="108"/>
      <point x="70" y="99"/>
      <point x="61" y="92" type="curve" smooth="yes"/>
      <point x="54" y="87" type="line" smooth="yes"/>
      <point x="38" y="76"/>
      <point x="29" y="63"/>
      <point x="29" y="43" type="curve" smooth="yes"/>
      <point x="29" y="16"/>
      <point x="47" y="0"/>
      <point x="76" y="0" type="curve" smooth="yes"/>
      <point x="286" y="0" type="line" smooth="yes"/>
      <point x="315" y="0"/>
      <point x="333" y="16"/>
      <point x="333" y="43" type="curve" smooth="yes"/>
      <point x="333" y="63"/>
      <point x="324" y="76"/>
      <point x="308" y="87" type="curve" smooth="yes"/>
      <point x="301" y="92" type="line" smooth="yes"/>
      <point x="292" y="99"/>
      <point x="287" y="108"/>
      <point x="287" y="142" type="curve" smooth="yes"/>
    </contour>
    <contour>
      <point x="167" y="541" type="curve" smooth="yes"/>
      <point x="248" y="541"/>
      <point x="298" y="581"/>
      <point x="298" y="646" type="curve" smooth="yes"/>
      <point x="298" y="710"/>
      <point x="248" y="750"/>
      <point x="167" y="750" type="curve" smooth="yes"/>
      <point x="86" y="750"/>
      <point x="36" y="710"/>
      <point x="36" y="646" type="curve" smooth="yes"/>
      <point x="36" y="581"/>
      <point x="86" y="541"/>
    </contour>
  </outline>
</glyph>
<glyph name="j" format="2">
  <advance width="642"/>
  <unicode hex="006A"/>
  <outline>
    <contour>
      <point x="368.0" y="1168.0" type="curve" smooth="yes"/>
      <point x="520.0" y="1168.0"/>
      <point x="630.0" y="1268.0"/>
      <point x="630.0" y="1404.0" type="curve" smooth="yes"/>
      <point x="630.0" y="1538.0"/>
      <point x="520.0" y="1634.0"/>
      <point x="368.0" y="1634.0" type="curve" smooth="yes"/>
      <point x="216.0" y="1634.0"/>
      <point x="106.0" y="1538.0"/>
      <point x="106.0" y="1404.0" type="curve" smooth="yes"/>
      <point x="106.0" y="1268.0"/>
      <point x="216.0" y="1168.0"/>
    </contour>
    <contour>
      <point x="554.0" y="254.0" type="line" smooth="yes"/>
      <point x="554.0" y="144.0"/>
      <point x="680.0" y="26.0"/>
      <point x="680.0" y="-104.0" type="curve" smooth="yes"/>
      <point x="680.0" y="-338.0"/>
      <point x="514.0" y="-492.0"/>
      <point x="274.0" y="-492.0" type="curve" smooth="yes"/>
      <point x="60.0" y="-492.0"/>
      <point x="-90.0" y="-380.0"/>
      <point x="-90.0" y="-236.0" type="curve" smooth="yes"/>
      <point x="-90.0" y="-132.0"/>
      <point x="-20.0" y="-64.0"/>
      <point x="84.0" y="-64.0" type="curve" smooth="yes"/>
      <point x="190.0" y="-64.0"/>
      <point x="256.0" y="-140.0"/>
      <point x="256.0" y="-252.0" type="curve" smooth="yes"/>
      <point x="256.0" y="-288.0" type="line" smooth="yes"/>
      <point x="256.0" y="-322.0"/>
      <point x="274.0" y="-340.0"/>
      <point x="310.0" y="-340.0" type="curve" smooth="yes"/>
      <point x="358.0" y="-340.0"/>
      <point x="390.0" y="-300.0"/>
      <point x="390.0" y="-250.0" type="curve" smooth="yes"/>
      <point x="390.0" y="-122.0"/>
      <point x="142.0" y="-2.0"/>
      <point x="142.0" y="160.0" type="curve" smooth="yes"/>
      <point x="142.0" y="616.0" type="line" smooth="yes"/>
      <point x="142.0" y="672.0"/>
      <point x="126.0" y="692.0"/>
      <point x="106.0" y="692.0" type="curve" smooth="yes"/>
      <point x="80.0" y="692.0" type="line" smooth="yes"/>
      <point x="38.0" y="692.0"/>
      <point x="12.0" y="728.0"/>
      <point x="12.0" y="786.0" type="curve" smooth="yes"/>
      <point x="12.0" y="814.0"/>
      <point x="42.0" y="856.0"/>
      <point x="92.0" y="872.0" type="curve" smooth="yes"/>
      <point x="408.0" y="978.0" type="line" smooth="yes"/>
      <point x="442.0" y="988.0"/>
      <point x="466.0" y="994.0"/>
      <point x="488.0" y="994.0" type="curve" smooth="yes"/>
      <point x="528.0" y="994.0"/>
      <point x="554.0" y="970.0"/>
      <point x="554.0" y="930.0" type="curve" smooth="yes"/>
    </contour>
  </outline>
</glyph>
<glyph name="k" format="2">
  <advance width="1272"/>
  <unicode hex="006B"/>
  <outline>
    <contour>
      <point x="97" y="0" type="curve" smooth="yes"/>
      <point x="568" y="0" type="line" smooth="yes"/>
      <point x="598" y="0"/>
      <point x="616" y="18"/>
      <point x="616" y="49" type="curve" smooth="yes"/>
      <point x="616" y="67"/>
      <point x="607" y="83"/>
      <point x="591" y="93" type="curve" smooth="yes"/>
      <point x="563" y="104" type="line" smooth="yes"/>
      <point x="543" y="114"/>
      <point x="537" y="131"/>
      <point x="537" y="180" type="curve" smooth="yes"/>
      <point x="537" y="1510" type="line" smooth="yes"/>
      <point x="537" y="1542"/>
      <point x="518" y="1564"/>
      <point x="487" y="1564" type="curve" smooth="yes"/>
      <point x="457" y="1564"/>
      <point x="437" y="1558"/>
      <point x="394" y="1542" type="curve" smooth="yes"/>
      <point x="87" y="1445" type="line" smooth="yes"/>
      <point x="55" y="1433"/>
      <point x="40" y="1417"/>
      <point x="40" y="1392" type="curve" smooth="yes"/>
      <point x="40" y="1370"/>
      <point x="52" y="1357"/>
      <point x="73" y="1349" type="curve" smooth="yes"/>
      <point x="99" y="1345" type="line" smooth="yes"/>
      <point x="118" y="1337"/>
      <point x="130" y="1328"/>
      <point x="130" y="1291" type="curve" smooth="yes"/>
      <point x="130" y="180" type="line" smooth="yes"/>
      <point x="130" y="135"/>
      <point x="121" y="118"/>
      <point x="103" y="109" type="curve" smooth="yes"/>
      <point x="76" y="99" type="line" smooth="yes"/>
      <point x="54" y="87"/>
      <point x="44" y="71"/>
      <point x="44" y="49" type="curve" smooth="yes"/>
      <point x="44" y="18"/>
      <point x="64" y="0"/>
    </contour>
    <contour>
      <point x="442" y="402" type="line"/>
      <point x="484" y="314" type="line"/>
      <point x="947" y="719" type="line" smooth="yes"/>
      <point x="1037" y="800"/>
      <point x="1111" y="835"/>
      <point x="1200" y="856" type="curve" smooth="yes"/>
      <point x="1248" y="866"/>
      <point x="1261" y="889"/>
      <point x="1261" y="915" type="curve" smooth="yes"/>
      <point x="1261" y="946"/>
      <point x="1240" y="963"/>
      <point x="1207" y="963" type="curve" smooth="yes"/>
      <point x="795" y="963" type="line" smooth="yes"/>
      <point x="761" y="963"/>
      <point x="741" y="946"/>
      <point x="741" y="915" type="curve" smooth="yes"/>
      <point x="741" y="896"/>
      <point x="748" y="882"/>
      <point x="765" y="870" type="curve" smooth="yes"/>
      <point x="794" y="859" type="line" smooth="yes"/>
      <point x="858" y="837"/>
      <point x="874" y="790"/>
      <point x="823" y="743" type="curve" smooth="yes"/>
    </contour>
    <contour>
      <point x="843" y="725" type="line"/>
      <point x="569" y="469" type="line"/>
      <point x="746" y="169" type="line" smooth="yes"/>
      <point x="767" y="135"/>
      <point x="776" y="118"/>
      <point x="741" y="100" type="curve" smooth="yes"/>
      <point x="713" y="89" type="line" smooth="yes"/>
      <point x="697" y="79"/>
      <point x="690" y="66"/>
      <point x="690" y="49" type="curve" smooth="yes"/>
      <point x="690" y="19"/>
      <point x="710" y="0"/>
      <point x="739" y="0" type="curve" smooth="yes"/>
      <point x="1241" y="0" type="line" smooth="yes"/>
      <point x="1274" y="0"/>
      <point x="1295" y="17"/>
      <point x="1295" y="46" type="curve" smooth="yes"/>
      <point x="1295" y="68"/>
      <point x="1278" y="84"/>
      <point x="1254" y="105" type="curve" smooth="yes"/>
      <point x="1231" y="121"/>
      <point x="1218" y="134"/>
      <point x="1200" y="162" type="curve" smooth="yes"/>
    </contour>
  </outline>
</glyph>
<glyph name="l" format="2">
  <advance width="661"/>
  <unicode hex="006C"/>
  <outline>
    <contour>
      <point x="542" y="1510" type="line" smooth="yes"/>
      <point x="542" y="1542"/>
      <point x="522" y="1564"/>
      <point x="492" y="1564" type="curve" smooth="yes"/>
      <point x="462" y="1564"/>
      <point x="441" y="1558"/>
      <point x="398" y="1542" type="curve" smooth="yes"/>
      <point x="92" y="1445" type="line" smooth="yes"/>
      <point x="60" y="1433"/>
      <point x="46" y="1417"/>
      <point x="46" y="1392" type="curve" smooth="yes"/>
      <point x="46" y="1370"/>
      <point x="58" y="1357"/>
      <point x="78" y="1349" type="curve" smooth="yes"/>
      <point x="106" y="1345" type="line" smooth="yes"/>
      <point x="124" y="1337"/>
      <point x="135" y="1328"/>
      <point x="135" y="1291" type="curve" smooth="yes"/>
      <point x="135" y="180" type="line" smooth="yes"/>
      <point x="135" y="135"/>
      <point x="126" y="118"/>
      <point x="108" y="109" type="curve" smooth="yes"/>
      <point x="81" y="99" type="line" smooth="yes"/>
      <point x="60" y="87"/>
      <point x="49" y="71"/>
      <point x="49" y="49" type="curve" smooth="yes"/>
      <point x="49" y="18"/>
      <point x="69" y="0"/>
      <point x="103" y="0" type="curve" smooth="yes"/>
      <point x="574" y="0" type="line" smooth="yes"/>
      <point x="607" y="0"/>
      <point x="628" y="18"/>
      <point x="628" y="49" type="curve" smooth="yes"/>
      <point x="628" y="71"/>
      <point x="617" y="87"/>
      <point x="596" y="99" type="curve" smooth="yes"/>
      <point x="569" y="109" type="line" smooth="yes"/>
      <point x="550" y="118"/>
      <point x="542" y="135"/>
      <point x="542" y="180" type="curve" smooth="yes"/>
    </contour>
  </outline>
</glyph>
<glyph name="m" format="2">
  <advance width="1919"/>
  <unicode hex="006D"/>
  <outline>
    <contour>
      <point x="535" y="937" type="line" smooth="yes"/>
      <point x="535" y="968"/>
      <point x="516" y="991"/>
      <point x="485" y="991" type="curve" smooth="yes"/>
      <point x="455" y="991"/>
      <point x="433" y="985"/>
      <point x="392" y="970" type="curve" smooth="yes"/>
      <point x="87" y="872" type="line" smooth="yes"/>
      <point x="54" y="860"/>
      <point x="39" y="843"/>
      <point x="39" y="819" type="curve" smooth="yes"/>
      <point x="39" y="798"/>
      <point x="52" y="785"/>
      <point x="70" y="776" type="curve" smooth="yes"/>
      <point x="100" y="772" type="line" smooth="yes"/>
      <point x="119" y="765"/>
      <point x="130" y="753"/>
      <point x="130" y="716" type="curve" smooth="yes"/>
      <point x="130" y="177" type="line" smooth="yes"/>
      <point x="130" y="134"/>
      <point x="121" y="118"/>
      <point x="103" y="109" type="curve" smooth="yes"/>
      <point x="77" y="99" type="line" smooth="yes"/>
      <point x="56" y="87"/>
      <point x="44" y="71"/>
      <point x="44" y="49" type="curve" smooth="yes"/>
      <point x="44" y="19"/>
      <point x="64" y="0"/>
      <point x="98" y="0" type="curve" smooth="yes"/>
      <point x="565" y="0" type="line" smooth="yes"/>
      <point x="596" y="0"/>
      <point x="614" y="18"/>
      <point x="614" y="49" type="curve" smooth="yes"/>
      <point x="614" y="67"/>
      <point x="606" y="82"/>
      <point x="589" y="92" type="curve" smooth="yes"/>
      <point x="562" y="103" type="line" smooth="yes"/>
      <point x="543" y="112"/>
      <point x="535" y="131"/>
      <point x="535" y="179" type="curve" smooth="yes"/>
    </contour>
    <contour>
      <point x="507" y="672" type="line" smooth="yes"/>
      <point x="543" y="706" type="line" smooth="yes"/>
      <point x="582" y="741"/>
      <point x="622" y="755"/>
      <point x="668" y="755" type="curve" smooth="yes"/>
      <point x="730" y="755"/>
      <point x="771" y="707"/>
      <point x="771" y="627" type="curve" smooth="yes"/>
      <point x="771" y="184" type="line" smooth="yes"/>
      <point x="771" y="132"/>
      <point x="765" y="112"/>
      <point x="742" y="102" type="curve" smooth="yes"/>
      <point x="720" y="92" type="line" smooth="yes"/>
      <point x="703" y="82"/>
      <point x="695" y="67"/>
      <point x="695" y="49" type="curve" smooth="yes"/>
      <point x="695" y="18"/>
      <point x="713" y="0"/>
      <point x="743" y="0" type="curve" smooth="yes"/>
      <point x="1190" y="0" type="line" smooth="yes"/>
      <point x="1222" y="0"/>
      <point x="1242" y="19"/>
      <point x="1242" y="49" type="curve" smooth="yes"/>
      <point x="1242" y="68"/>
      <point x="1232" y="83"/>
      <point x="1216" y="93" type="curve" smooth="yes"/>
      <point x="1196" y="103" type="line" smooth="yes"/>
      <point x="1179" y="112"/>
      <point x="1173" y="125"/>
      <point x="1173" y="173" type="curve" smooth="yes"/>
      <point x="1173" y="700" type="line" smooth="yes"/>
      <point x="1173" y="886"/>
      <point x="1069" y="989"/>
      <point x="917" y="989" type="curve" smooth="yes"/>
      <point x="808" y="989"/>
      <point x="674" y="928"/>
      <point x="503" y="766" type="curve" smooth="yes"/>
      <point x="460" y="724" type="line"/>
    </contour>
    <contour>
      <point x="1141" y="672" type="line" smooth="yes"/>
      <point x="1174" y="709" type="line" smooth="yes"/>
      <point x="1205" y="740"/>
      <point x="1237" y="755"/>
      <point x="1273" y="755" type="curve" smooth="yes"/>
      <point x="1336" y="755"/>
      <point x="1371" y="707"/>
      <point x="1378" y="627" type="curve" smooth="yes"/>
      <point x="1419" y="186" type="line" smooth="yes"/>
      <point x="1425" y="133"/>
      <point x="1413" y="112"/>
      <point x="1390" y="102" type="curve" smooth="yes"/>
      <point x="1369" y="92" type="line" smooth="yes"/>
      <point x="1352" y="82"/>
      <point x="1344" y="67"/>
      <point x="1344" y="49" type="curve" smooth="yes"/>
      <point x="1344" y="19"/>
      <point x="1361" y="0"/>
      <point x="1391" y="0" type="curve" smooth="yes"/>
      <point x="1855" y="0" type="line" smooth="yes"/>
      <point x="1889" y="0"/>
      <point x="1909" y="18"/>
      <point x="1909" y="49" type="curve" smooth="yes"/>
      <point x="1909" y="71"/>
      <point x="1898" y="85"/>
      <point x="1878" y="98" type="curve" smooth="yes"/>
      <point x="1860" y="107" type="line" smooth="yes"/>
      <point x="1844" y="116"/>
      <point x="1839" y="130"/>
      <point x="1834" y="175" type="curve" smooth="yes"/>
      <point x="1777" y="699" type="line" smooth="yes"/>
      <point x="1757" y="886"/>
      <point x="1660" y="989"/>
      <point x="1510" y="989" type="curve" smooth="yes"/>
      <point x="1395" y="989"/>
      <point x="1276" y="922"/>
      <point x="1134" y="769" type="curve" smooth="yes"/>
      <point x="1094" y="724" type="line"/>
    </contour>
  </outline>
</glyph>
<glyph name="n" format="2">
  <advance width="1374"/>
  <unicode hex="006E"/>
  <outline>
    <contour>
      <point x="538.0" y="620.0" type="line" smooth="yes"/>
      <point x="572.0" y="650.0" type="line" smooth="yes"/>
      <point x="614.0" y="688.0"/>
      <point x="656.0" y="700.0"/>
      <point x="696.0" y="700.0" type="curve" smooth="yes"/>
      <point x="766.0" y="700.0"/>
      <point x="798.0" y="656.0"/>
      <point x="806.0" y="572.0" type="curve" smooth="yes"/>
      <point x="832.0" y="284.0" type="line" smooth="yes"/>
      <point x="838.0" y="208.0"/>
      <point x="826.0" y="188.0"/>
      <point x="806.0" y="174.0" type="curve" smooth="yes"/>
      <point x="790.0" y="162.0" type="line" smooth="yes"/>
      <point x="766.0" y="144.0"/>
      <point x="752.0" y="118.0"/>
      <point x="752.0" y="86.0" type="curve" smooth="yes"/>
      <point x="752.0" y="32.0"/>
      <point x="784.0" y="0.0"/>
      <point x="836.0" y="0.0" type="curve" smooth="yes"/>
      <point x="1260.0" y="0.0" type="line" smooth="yes"/>
      <point x="1318.0" y="0.0"/>
      <point x="1354.0" y="32.0"/>
      <point x="1354.0" y="86.0" type="curve" smooth="yes"/>
      <point x="1354.0" y="126.0"/>
      <point x="1336.0" y="150.0"/>
      <point x="1304.0" y="174.0" type="curve" smooth="yes"/>
      <point x="1290.0" y="184.0" type="line" smooth="yes"/>
      <point x="1272.0" y="198.0"/>
      <point x="1268.0" y="216.0"/>
      <point x="1262.0" y="284.0" type="curve" smooth="yes"/>
      <point x="1224.0" y="674.0" type="line" smooth="yes"/>
      <point x="1206.0" y="864.0"/>
      <point x="1106.0" y="994.0"/>
      <point x="932.0" y="994.0" type="curve" smooth="yes"/>
      <point x="820.0" y="994.0"/>
      <point x="694.0" y="930.0"/>
      <point x="508.0" y="752.0" type="curve" smooth="yes"/>
      <point x="462.0" y="708.0" type="line"/>
    </contour>
    <contour>
      <point x="574.0" y="904.0" type="line" smooth="yes"/>
      <point x="574.0" y="956.0"/>
      <point x="542.0" y="994.0"/>
      <point x="492.0" y="994.0" type="curve" smooth="yes"/>
      <point x="442.0" y="994.0"/>
      <point x="406.0" y="982.0"/>
      <point x="338.0" y="956.0" type="curve" smooth="yes"/>
      <point x="126.0" y="874.0" type="line" smooth="yes"/>
      <point x="70.0" y="852.0"/>
      <point x="46.0" y="824.0"/>
      <point x="46.0" y="782.0" type="curve" smooth="yes"/>
      <point x="46.0" y="744.0"/>
      <point x="66.0" y="724.0"/>
      <point x="96.0" y="706.0" type="curve" smooth="yes"/>
      <point x="110.0" y="698.0" type="line" smooth="yes"/>
      <point x="134.0" y="684.0"/>
      <point x="150.0" y="670.0"/>
      <point x="150.0" y="610.0" type="curve" smooth="yes"/>
      <point x="150.0" y="284.0" type="line" smooth="yes"/>
      <point x="150.0" y="216.0"/>
      <point x="140.0" y="198.0"/>
      <point x="122.0" y="184.0" type="curve" smooth="yes"/>
      <point x="108.0" y="174.0" type="line" smooth="yes"/>
      <point x="76.0" y="152.0"/>
      <point x="58.0" y="126.0"/>
      <point x="58.0" y="86.0" type="curve" smooth="yes"/>
      <point x="58.0" y="32.0"/>
      <point x="94.0" y="0.0"/>
      <point x="152.0" y="0.0" type="curve" smooth="yes"/>
      <point x="570.0" y="0.0" type="line" smooth="yes"/>
      <point x="622.0" y="0.0"/>
      <point x="654.0" y="32.0"/>
      <point x="654.0" y="86.0" type="curve" smooth="yes"/>
      <point x="654.0" y="118.0"/>
      <point x="640.0" y="144.0"/>
      <point x="616.0" y="162.0" type="curve" smooth="yes"/>
      <point x="600.0" y="174.0" type="line" smooth="yes"/>
      <point x="580.0" y="188.0"/>
      <point x="574.0" y="208.0"/>
      <point x="574.0" y="284.0" type="curve" smooth="yes"/>
    </contour>
  </outline>
</glyph>
<glyph name="o" format="2">
  <advance width="1234"/>
  <unicode hex="006F"/>
  <outline>
    <contour>
      <point x="625" y="999" type="curve" smooth="yes"/>
      <point x="280" y="999"/>
      <point x="50" y="763"/>
      <point x="50" y="492" type="curve" smooth="yes"/>
      <point x="50" y="177"/>
      <point x="272" y="-33"/>
      <point x="609" y="-33" type="curve" smooth="yes"/>
      <point x="952" y="-33"/>
      <point x="1184" y="199"/>
      <point x="1184" y="478" type="curve" smooth="yes"/>
      <point x="1184" y="787"/>
      <point x="964" y="999"/>
    </contour>
    <contour>
      <point x="665" y="185" type="curve" smooth="yes"/>
      <point x="581" y="185"/>
      <point x="474" y="389"/>
      <point x="474" y="662" type="curve" smooth="yes"/>
      <point x="474" y="749"/>
      <point x="516" y="781"/>
      <point x="569" y="781" type="curve" smooth="yes"/>
      <point x="653" y="781"/>
      <point x="760" y="577"/>
      <point x="760" y="304" type="curve" smooth="yes"/>
      <point x="760" y="217"/>
      <point x="718" y="185"/>
    </contour>
  </outline>
</glyph>
<glyph name="p" format="2">
  <advance width="665"/>
  <unicode hex="0070"/>
  <outline>
    <contour>
      <point x="250" y="307" type="line"/>
      <point x="272" y="354"/>
      <point x="301" y="374"/>
      <point x="335" y="374" type="curve" smooth="yes"/>
      <point x="384" y="374"/>
      <point x="422" y="330"/>
      <point x="422" y="234" type="curve" smooth="yes"/>
      <point x="422" y="143"/>
      <point x="389" y="94"/>
      <point x="341" y="94" type="curve" smooth="yes"/>
      <point x="310" y="94"/>
      <point x="283" y="108"/>
      <point x="258" y="156" type="curve"/>
      <point x="201" y="90" type="line"/>
      <point x="245" y="20"/>
      <point x="304" y="-14"/>
      <point x="385" y="-14" type="curve" smooth="yes"/>
      <point x="531" y="-14"/>
      <point x="641" y="95"/>
      <point x="641" y="258" type="curve" smooth="yes"/>
      <point x="641" y="399"/>
      <point x="552" y="497"/>
      <point x="433" y="497" type="curve" smooth="yes"/>
      <point x="341" y="497"/>
      <point x="271" y="440"/>
      <point x="214" y="347" type="curve"/>
    </contour>
    <contour>
      <point x="277" y="452" type="line" smooth="yes"/>
      <point x="277" y="478"/>
      <point x="261" y="497"/>
      <point x="236" y="497" type="curve" smooth="yes"/>
      <point x="211.0" y="497.0"/>
      <point x="192" y="492"/>
      <point x="159" y="478" type="curve" smooth="yes"/>
      <point x="63" y="437" type="line" smooth="yes"/>
      <point x="35" y="425"/>
      <point x="23" y="412"/>
      <point x="23" y="391" type="curve" smooth="yes"/>
      <point x="23" y="372"/>
      <point x="33" y="362"/>
      <point x="48" y="353" type="curve" smooth="yes"/>
      <point x="55" y="349" type="line" smooth="yes"/>
      <point x="67" y="342"/>
      <point x="75" y="335"/>
      <point x="75" y="305" type="curve" smooth="yes"/>
      <point x="75" y="-91" type="line" smooth="yes"/>
      <point x="75" y="-125"/>
      <point x="70" y="-134"/>
      <point x="61" y="-141" type="curve" smooth="yes"/>
      <point x="54" y="-146" type="line" smooth="yes"/>
      <point x="38" y="-157"/>
      <point x="29" y="-170"/>
      <point x="29" y="-190" type="curve" smooth="yes"/>
      <point x="29" y="-217"/>
      <point x="47" y="-233"/>
      <point x="76" y="-233" type="curve" smooth="yes"/>
      <point x="286" y="-233" type="line" smooth="yes"/>
      <point x="315" y="-233"/>
      <point x="333" y="-217"/>
      <point x="333" y="-190" type="curve" smooth="yes"/>
      <point x="333" y="-170"/>
      <point x="324" y="-157"/>
      <point x="308" y="-146" type="curve" smooth="yes"/>
      <point x="301" y="-141" type="line" smooth="yes"/>
      <point x="292" y="-134"/>
      <point x="287" y="-125"/>
      <point x="287" y="-91" type="curve" smooth="yes"/>
      <point x="287" y="388" type="line"/>
      <point x="277" y="407" type="line"/>
    </contour>
  </outline>
</glyph>
<glyph name="q" format="2">
  <advance width="651"/>
  <unicode hex="0071"/>
  <outline>
    <contour>
      <point x="358" y="-146" type="line" smooth="yes"/>
      <point x="342" y="-157"/>
      <point x="333" y="-170"/>
      <point x="333" y="-190" type="curve" smooth="yes"/>
      <point x="333" y="-217"/>
      <point x="351" y="-233"/>
      <point x="380" y="-233" type="curve" smooth="yes"/>
      <point x="590" y="-233" type="line" smooth="yes"/>
      <point x="619" y="-233"/>
      <point x="637" y="-217"/>
      <point x="637" y="-190" type="curve" smooth="yes"/>
      <point x="637" y="-170"/>
      <point x="628" y="-157"/>
      <point x="612" y="-146" type="curve" smooth="yes"/>
      <point x="605" y="-141" type="line" smooth="yes"/>
      <point x="596" y="-134"/>
      <point x="591" y="-125"/>
      <point x="591" y="-91" type="curve" smooth="yes"/>
      <point x="591" y="459" type="line" smooth="yes"/>
      <point x="591" y="483"/>
      <point x="576" y="496"/>
      <point x="555" y="496" type="curve" smooth="yes"/>
      <point x="525" y="496"/>
      <point x="497" y="486"/>
      <point x="462" y="474" type="curve" smooth="yes"/>
      <point x="379" y="446" type="line" smooth="yes"/>
      <point x="379" y="-91" type="line" smooth="yes"/>
      <point x="379" y="-125"/>
      <point x="374" y="-134"/>
      <point x="365" y="-141" type="curve" smooth="yes"/>
    </contour>
    <contour>
      <point x="416" y="176" type="line"/>
      <point x="394" y="129"/>
      <point x="365" y="109"/>
      <point x="331" y="109" type="curve" smooth="yes"/>
      <point x="282" y="109"/>
      <point x="244" y="153"/>
      <point x="244" y="249" type="curve" smooth="yes"/>
      <point x="244" y="340"/>
      <point x="277" y="389"/>
      <point x="325" y="389" type="curve" smooth="yes"/>
      <point x="356" y="389"/>
      <point x="383" y="375"/>
      <point x="408" y="327" type="curve"/>
      <point x="465" y="393" type="line"/>
      <point x="421" y="463"/>
      <point x="362" y="497"/>
      <point x="281" y="497" type="curve" smooth="yes"/>
      <point x="135" y="497"/>
      <point x="25" y="388"/>
      <point x="25" y="225" type="curve" smooth="yes"/>
      <point x="25" y="84"/>
      <point x="114" y="-14"/>
      <point x="233" y="-14" type="curve" smooth="yes"/>
      <point x="325" y="-14"/>
      <point x="395" y="43"/>
      <point x="452" y="136" type="curve"/>
    </contour>
  </outline>
</glyph>
<glyph name="r" format="2">
  <advance width="1094"/>
  <unicode hex="0072"/>
  <outline>
    <contour>
      <point x="542.0" y="528.0" type="curve"/>
      <point x="588.0" y="528.0" type="line"/>
      <point x="588.0" y="642.0"/>
      <point x="614.0" y="726.0"/>
      <point x="656.0" y="726.0" type="curve" smooth="yes"/>
      <point x="684.0" y="726.0"/>
      <point x="702.0" y="710.0"/>
      <point x="702.0" y="674.0" type="curve" smooth="yes"/>
      <point x="702.0" y="632.0" type="line" smooth="yes"/>
      <point x="702.0" y="540.0"/>
      <point x="754.0" y="484.0"/>
      <point x="854.0" y="484.0" type="curve" smooth="yes"/>
      <point x="978.0" y="484.0"/>
      <point x="1064.0" y="550.0"/>
      <point x="1064.0" y="714.0" type="curve" smooth="yes"/>
      <point x="1064.0" y="896.0"/>
      <point x="990.0" y="996.0"/>
      <point x="852.0" y="996.0" type="curve" smooth="yes"/>
      <point x="660.0" y="996.0"/>
      <point x="542.0" y="842.0"/>
    </contour>
    <contour>
      <point x="562.0" y="892.0" type="line" smooth="yes"/>
      <point x="554.0" y="952.0"/>
      <point x="536.0" y="994.0"/>
      <point x="488.0" y="994.0" type="curve" smooth="yes"/>
      <point x="446.0" y="994.0"/>
      <point x="414.0" y="982.0"/>
      <point x="354.0" y="960.0" type="curve" smooth="yes"/>
      <point x="116.0" y="872.0" type="line" smooth="yes"/>
      <point x="70.0" y="856.0"/>
      <point x="46.0" y="822.0"/>
      <point x="46.0" y="778.0" type="curve" smooth="yes"/>
      <point x="46.0" y="732.0"/>
      <point x="68.0" y="708.0"/>
      <point x="122.0" y="698.0" type="curve" smooth="yes"/>
      <point x="134.0" y="696.0" type="line" smooth="yes"/>
      <point x="160.0" y="692.0"/>
      <point x="174.0" y="672.0"/>
      <point x="174.0" y="624.0" type="curve" smooth="yes"/>
      <point x="174.0" y="296.0" type="line" smooth="yes"/>
      <point x="174.0" y="254.0"/>
      <point x="150.0" y="212.0"/>
      <point x="114.0" y="190.0" type="curve" smooth="yes"/>
      <point x="82.0" y="170.0" type="line" smooth="yes"/>
      <point x="50.0" y="150.0"/>
      <point x="30.0" y="122.0"/>
      <point x="30.0" y="78.0" type="curve" smooth="yes"/>
      <point x="30.0" y="30.0"/>
      <point x="60.0" y="0.0"/>
      <point x="114.0" y="0.0" type="curve" smooth="yes"/>
      <point x="744.0" y="0.0" type="line" smooth="yes"/>
      <point x="790.0" y="0.0"/>
      <point x="826.0" y="28.0"/>
      <point x="826.0" y="82.0" type="curve" smooth="yes"/>
      <point x="826.0" y="136.0"/>
      <point x="802.0" y="164.0"/>
      <point x="738.0" y="188.0" type="curve" smooth="yes"/>
      <point x="676.0" y="212.0" type="line" smooth="yes"/>
      <point x="612.0" y="236.0"/>
      <point x="588.0" y="294.0"/>
      <point x="588.0" y="350.0" type="curve" smooth="yes"/>
      <point x="588.0" y="696.0" type="line"/>
    </contour>
  </outline>
</glyph>
<glyph name="s" format="2">
  <advance width="1062"/>
  <unicode hex="0073"/>
  <outline>
    <contour>
      <point x="526.0" y="132.0" type="curve" smooth="yes"/>
      <point x="434.0" y="132.0"/>
      <point x="346.0" y="180.0"/>
      <point x="282.0" y="260.0" type="curve" smooth="yes"/>
      <point x="238.0" y="314.0"/>
      <point x="184.0" y="342.0"/>
      <point x="138.0" y="330.0" type="curve" smooth="yes"/>
      <point x="80.0" y="314.0"/>
      <point x="68.0" y="244.0"/>
      <point x="86.0" y="172.0" type="curve" smooth="yes"/>
      <point x="114.0" y="58.0" type="line" smooth="yes"/>
      <point x="130.0" y="-6.0"/>
      <point x="162.0" y="-30.0"/>
      <point x="198.0" y="-30.0" type="curve" smooth="yes"/>
      <point x="240.0" y="-30.0"/>
      <point x="268.0" y="14.0"/>
      <point x="310.0" y="14.0" type="curve" smooth="yes"/>
      <point x="328.0" y="14.0"/>
      <point x="390.0" y="-30.0"/>
      <point x="550.0" y="-30.0" type="curve" smooth="yes"/>
      <point x="810.0" y="-30.0"/>
      <point x="994.0" y="102.0"/>
      <point x="994.0" y="302.0" type="curve" smooth="yes"/>
      <point x="994.0" y="488.0"/>
      <point x="874.0" y="622.0"/>
      <point x="564.0" y="660.0" type="curve" smooth="yes"/>
      <point x="466.0" y="672.0"/>
      <point x="434.0" y="702.0"/>
      <point x="434.0" y="750.0" type="curve" smooth="yes"/>
      <point x="434.0" y="798.0"/>
      <point x="468.0" y="832.0"/>
      <point x="536.0" y="832.0" type="curve" smooth="yes"/>
      <point x="650.0" y="832.0"/>
      <point x="718.0" y="766.0"/>
      <point x="782.0" y="688.0" type="curve" smooth="yes"/>
      <point x="828.0" y="632.0"/>
      <point x="902.0" y="610.0"/>
      <point x="958.0" y="630.0" type="curve" smooth="yes"/>
      <point x="1012.0" y="650.0"/>
      <point x="1038.0" y="720.0"/>
      <point x="1002.0" y="812.0" type="curve" smooth="yes"/>
      <point x="966.0" y="902.0" type="line" smooth="yes"/>
      <point x="940.0" y="968.0"/>
      <point x="904.0" y="994.0"/>
      <point x="862.0" y="994.0" type="curve" smooth="yes"/>
      <point x="818.0" y="994.0"/>
      <point x="800.0" y="948.0"/>
      <point x="756.0" y="948.0" type="curve" smooth="yes"/>
      <point x="712.0" y="948.0"/>
      <point x="638.0" y="992.0"/>
      <point x="518.0" y="992.0" type="curve" smooth="yes"/>
      <point x="212.0" y="992.0"/>
      <point x="68.0" y="858.0"/>
      <point x="68.0" y="644.0" type="curve" smooth="yes"/>
      <point x="68.0" y="462.0"/>
      <point x="196.0" y="338.0"/>
      <point x="544.0" y="268.0" type="curve" smooth="yes"/>
      <point x="598.0" y="258.0"/>
      <point x="628.0" y="228.0"/>
      <point x="628.0" y="196.0" type="curve" smooth="yes"/>
      <point x="628.0" y="162.0"/>
      <point x="598.0" y="132.0"/>
    </contour>
  </outline>
</glyph>
<glyph name="t" format="2">
  <advance width="462"/>
  <unicode hex="0074"/>
  <outline>
    <contour>
      <point x="58" y="376" type="line" smooth="yes"/>
      <point x="73" y="365"/>
      <point x="75" y="353"/>
      <point x="75" y="318" type="curve" smooth="yes"/>
      <point x="75" y="145" type="line" smooth="yes"/>
      <point x="75" y="36"/>
      <point x="137" y="-15"/>
      <point x="251" y="-15" type="curve" smooth="yes"/>
      <point x="355" y="-15"/>
      <point x="440" y="56"/>
      <point x="440" y="136" type="curve" smooth="yes"/>
      <point x="440" y="159"/>
      <point x="430" y="174"/>
      <point x="417" y="174" type="curve" smooth="yes"/>
      <point x="397" y="174"/>
      <point x="379" y="132"/>
      <point x="335" y="132" type="curve" smooth="yes"/>
      <point x="303" y="132"/>
      <point x="287" y="154"/>
      <point x="287" y="196" type="curve" smooth="yes"/>
      <point x="287" y="565" type="line" smooth="yes"/>
      <point x="287" y="600"/>
      <point x="267" y="620"/>
      <point x="237" y="620" type="curve" smooth="yes"/>
      <point x="215" y="620"/>
      <point x="189" y="599"/>
      <point x="169" y="575" type="curve" smooth="yes"/>
      <point x="120" y="516" type="line" smooth="yes"/>
      <point x="101" y="493"/>
      <point x="89" y="482"/>
      <point x="76" y="482" type="curve" smooth="yes"/>
      <point x="68" y="482" type="line" smooth="yes"/>
      <point x="35" y="482"/>
      <point x="16" y="466"/>
      <point x="16" y="437" type="curve" smooth="yes"/>
      <point x="16" y="417"/>
      <point x="26" y="400"/>
      <point x="50" y="382" type="curve" smooth="yes"/>
    </contour>
    <contour>
      <point x="214" y="368" type="line"/>
      <point x="340" y="368" type="line" smooth="yes"/>
      <point x="403.0" y="368"/>
      <point x="442.0" y="397.76"/>
      <point x="442" y="440" type="curve" smooth="yes"/>
      <point x="442.0" y="466.9230769230769"/>
      <point x="425.0" y="482"/>
      <point x="398" y="482" type="curve" smooth="yes"/>
      <point x="214" y="482" type="line"/>
    </contour>
  </outline>
</glyph>
<glyph name="u" format="2">
  <advance width="670"/>
  <unicode hex="0075"/>
  <anchor x="321.0" y="531" name="center"/>
  <outline>
    <contour>
      <point x="393" y="83" type="line"/>
      <point x="393" y="39"/>
      <point x="436" y="0"/>
      <point x="484" y="0" type="curve" smooth="yes"/>
      <point x="594" y="0" type="line" smooth="yes"/>
      <point x="623.0" y="0"/>
      <point x="641" y="16"/>
      <point x="641" y="43" type="curve" smooth="yes"/>
      <point x="641" y="63"/>
      <point x="632" y="76"/>
      <point x="616" y="87" type="curve" smooth="yes"/>
      <point x="609" y="92" type="line" smooth="yes"/>
      <point x="600" y="99"/>
      <point x="595.0" y="108"/>
      <point x="595" y="142" type="curve" smooth="yes"/>
      <point x="595" y="452" type="line" smooth="yes"/>
      <point x="595" y="478"/>
      <point x="579" y="497"/>
      <point x="554" y="497" type="curve" smooth="yes"/>
      <point x="529" y="497"/>
      <point x="511" y="491"/>
      <point x="477" y="478" type="curve" smooth="yes"/>
      <point x="371" y="437" type="line" smooth="yes"/>
      <point x="342.89978419585356" y="426.13104860405656"/>
      <point x="331" y="412"/>
      <point x="331" y="391" type="curve" smooth="yes"/>
      <point x="331.0" y="372"/>
      <point x="341" y="362"/>
      <point x="356" y="353" type="curve" smooth="yes"/>
      <point x="363" y="349" type="line" smooth="yes"/>
      <point x="375.05893252950636" y="342.10918141171067"/>
      <point x="383" y="335.0"/>
      <point x="383" y="305" type="curve" smooth="yes"/>
      <point x="383" y="108" type="line"/>
    </contour>
    <contour>
      <point x="401" y="172" type="line"/>
      <point x="384" y="157" type="line" smooth="yes"/>
      <point x="363" y="138"/>
      <point x="344" y="132"/>
      <point x="324" y="132" type="curve" smooth="yes"/>
      <point x="294" y="132"/>
      <point x="277" y="154"/>
      <point x="277" y="196" type="curve" smooth="yes"/>
      <point x="277" y="452" type="line" smooth="yes"/>
      <point x="277" y="478"/>
      <point x="261" y="497"/>
      <point x="236" y="497" type="curve" smooth="yes"/>
      <point x="211" y="497"/>
      <point x="193" y="491"/>
      <point x="159" y="478" type="curve" smooth="yes"/>
      <point x="53" y="437" type="line" smooth="yes"/>
      <point x="25" y="426"/>
      <point x="13" y="412"/>
      <point x="13" y="391" type="curve" smooth="yes"/>
      <point x="13.0" y="372"/>
      <point x="23" y="362"/>
      <point x="38" y="353" type="curve" smooth="yes"/>
      <point x="45" y="349" type="line" smooth="yes"/>
      <point x="57.058932529506386" y="342.10918141171067"/>
      <point x="65" y="335.0"/>
      <point x="65" y="305" type="curve" smooth="yes"/>
      <point x="65" y="145" type="line" smooth="yes"/>
      <point x="65" y="50"/>
      <point x="122" y="-15"/>
      <point x="206" y="-15" type="curve" smooth="yes"/>
      <point x="262" y="-15"/>
      <point x="324" y="18"/>
      <point x="416" y="106" type="curve" smooth="yes"/>
      <point x="439" y="128" type="line"/>
    </contour>
  </outline>
</glyph>
<glyph name="v" format="2">
  <advance width="1195"/>
  <unicode hex="0076"/>
  <outline>
    <contour>
      <point x="669" y="-20" type="line" smooth="yes"/>
      <point x="733" y="-20"/>
      <point x="792" y="6"/>
      <point x="829" y="94" type="curve" smooth="yes"/>
      <point x="1061" y="642" type="line" smooth="yes"/>
      <point x="1092" y="714"/>
      <point x="1116" y="749"/>
      <point x="1130" y="762" type="curve" smooth="yes"/>
      <point x="1164" y="792" type="line" smooth="yes"/>
      <point x="1190" y="815"/>
      <point x="1200" y="842"/>
      <point x="1200" y="872" type="curve" smooth="yes"/>
      <point x="1200" y="924"/>
      <point x="1172" y="964"/>
      <point x="1106" y="964" type="curve" smooth="yes"/>
      <point x="814" y="964" type="line" smooth="yes"/>
      <point x="766" y="964"/>
      <point x="736" y="930"/>
      <point x="736" y="884" type="curve" smooth="yes"/>
      <point x="736" y="834"/>
      <point x="756" y="799"/>
      <point x="798" y="784" type="curve" smooth="yes"/>
      <point x="826" y="774" type="line" smooth="yes"/>
      <point x="875" y="757"/>
      <point x="892" y="710"/>
      <point x="858" y="620" type="curve" smooth="yes"/>
      <point x="675" y="140" type="line" smooth="yes"/>
      <point x="772" y="140" type="line"/>
      <point x="582" y="636" type="line" smooth="yes"/>
      <point x="547" y="727"/>
      <point x="565" y="777"/>
      <point x="606" y="792" type="curve" smooth="yes"/>
      <point x="634" y="802" type="line" smooth="yes"/>
      <point x="674" y="816"/>
      <point x="700" y="846"/>
      <point x="700" y="884" type="curve" smooth="yes"/>
      <point x="700" y="928"/>
      <point x="676" y="964"/>
      <point x="620" y="964" type="curve" smooth="yes"/>
      <point x="88" y="964" type="line" smooth="yes"/>
      <point x="26" y="964"/>
      <point x="-2" y="930"/>
      <point x="-2" y="878" type="curve" smooth="yes"/>
      <point x="-2" y="840"/>
      <point x="10" y="814"/>
      <point x="48" y="780" type="curve" smooth="yes"/>
      <point x="66" y="764" type="line" smooth="yes"/>
      <point x="87" y="745"/>
      <point x="99" y="720"/>
      <point x="112" y="690" type="curve" smooth="yes"/>
      <point x="364" y="106" type="line" smooth="yes"/>
      <point x="401" y="21"/>
      <point x="450" y="-20"/>
      <point x="522" y="-20" type="curve" smooth="yes"/>
    </contour>
  </outline>
</glyph>
<glyph name="w" format="2">
  <advance width="1852"/>
  <unicode hex="0077"/>
  <outline>
    <contour>
      <point x="532.0" y="-20.0" type="curve" smooth="yes"/>
      <point x="702.0" y="-20.0" type="line" smooth="yes"/>
      <point x="782.0" y="-20.0"/>
      <point x="796.0" y="-2.0"/>
      <point x="826.0" y="60.0" type="curve" smooth="yes"/>
      <point x="1100.0" y="604.0" type="line"/>
      <point x="936.0" y="718.0" type="line"/>
      <point x="660.0" y="136.0" type="line" smooth="yes"/>
      <point x="792.0" y="124.0" type="line"/>
      <point x="564.0" y="670.0" type="line" smooth="yes"/>
      <point x="554.0" y="700.0"/>
      <point x="540.0" y="718.0"/>
      <point x="540.0" y="742.0" type="curve" smooth="yes"/>
      <point x="540.0" y="766.0"/>
      <point x="562.0" y="780.0"/>
      <point x="600.0" y="790.0" type="curve" smooth="yes"/>
      <point x="646.0" y="802.0" type="line" smooth="yes"/>
      <point x="680.0" y="812.0"/>
      <point x="690.0" y="844.0"/>
      <point x="690.0" y="888.0" type="curve" smooth="yes"/>
      <point x="690.0" y="938.0"/>
      <point x="672.0" y="964.0"/>
      <point x="636.0" y="964.0" type="curve" smooth="yes"/>
      <point x="100.0" y="964.0" type="line" smooth="yes"/>
      <point x="54.0" y="964.0"/>
      <point x="38.0" y="928.0"/>
      <point x="38.0" y="876.0" type="curve" smooth="yes"/>
      <point x="38.0" y="838.0"/>
      <point x="52.0" y="802.0"/>
      <point x="90.0" y="774.0" type="curve" smooth="yes"/>
      <point x="112.0" y="762.0"/>
      <point x="132.0" y="742.0"/>
      <point x="148.0" y="708.0" type="curve" smooth="yes"/>
      <point x="404.0" y="88.0" type="line" smooth="yes"/>
      <point x="440.0" y="4.0"/>
      <point x="472.0" y="-20.0"/>
    </contour>
    <contour>
      <point x="1340.0" y="-20.0" type="line" smooth="yes"/>
      <point x="1402.0" y="-20.0"/>
      <point x="1422.0" y="-4.0"/>
      <point x="1444.0" y="50.0" type="curve" smooth="yes"/>
      <point x="1696.0" y="642.0" type="line" smooth="yes"/>
      <point x="1722.0" y="704.0"/>
      <point x="1734.0" y="738.0"/>
      <point x="1768.0" y="766.0" type="curve" smooth="yes"/>
      <point x="1806.0" y="800.0"/>
      <point x="1816.0" y="832.0"/>
      <point x="1816.0" y="878.0" type="curve" smooth="yes"/>
      <point x="1816.0" y="928.0"/>
      <point x="1784.0" y="964.0"/>
      <point x="1712.0" y="964.0" type="curve" smooth="yes"/>
      <point x="1414.0" y="964.0" type="line" smooth="yes"/>
      <point x="1362.0" y="964.0"/>
      <point x="1332.0" y="936.0"/>
      <point x="1332.0" y="884.0" type="curve" smooth="yes"/>
      <point x="1332.0" y="836.0"/>
      <point x="1368.0" y="824.0"/>
      <point x="1416.0" y="780.0" type="curve" smooth="yes"/>
      <point x="1430.0" y="744.0" type="line" smooth="yes"/>
      <point x="1452.0" y="712.0"/>
      <point x="1462.0" y="676.0"/>
      <point x="1462.0" y="634.0" type="curve" smooth="yes"/>
      <point x="1462.0" y="608.0"/>
      <point x="1444.0" y="546.0"/>
      <point x="1422.0" y="484.0" type="curve" smooth="yes"/>
      <point x="1276.0" y="138.0" type="line" smooth="yes"/>
      <point x="1456.0" y="126.0" type="line"/>
      <point x="1234.0" y="600.0" type="line" smooth="yes"/>
      <point x="1200.0" y="678.0"/>
      <point x="1200.0" y="688.0"/>
      <point x="1200.0" y="702.0" type="curve" smooth="yes"/>
      <point x="1200.0" y="738.0"/>
      <point x="1232.0" y="790.0"/>
      <point x="1262.0" y="800.0" type="curve" smooth="yes"/>
      <point x="1272.0" y="804.0" type="line" smooth="yes"/>
      <point x="1304.0" y="816.0"/>
      <point x="1314.0" y="846.0"/>
      <point x="1314.0" y="888.0" type="curve" smooth="yes"/>
      <point x="1314.0" y="938.0"/>
      <point x="1280.0" y="964.0"/>
      <point x="1220.0" y="964.0" type="curve" smooth="yes"/>
      <point x="776.0" y="964.0" type="line" smooth="yes"/>
      <point x="724.0" y="964.0"/>
      <point x="700.0" y="930.0"/>
      <point x="700.0" y="888.0" type="curve" smooth="yes"/>
      <point x="700.0" y="852.0"/>
      <point x="710.0" y="820.0"/>
      <point x="754.0" y="796.0" type="curve" smooth="yes"/>
      <point x="778.0" y="784.0"/>
      <point x="786.0" y="738.0"/>
      <point x="800.0" y="708.0" type="curve" smooth="yes"/>
      <point x="1094.0" y="76.0" type="line" smooth="yes"/>
      <point x="1130.0" y="0.0"/>
      <point x="1150.0" y="-20.0"/>
      <point x="1196.0" y="-20.0" type="curve" smooth="yes"/>
    </contour>
  </outline>
</glyph>
<glyph name="x" format="2">
  <advance width="1241"/>
  <unicode hex="0078"/>
  <outline>
    <contour>
      <point x="412" y="537" type="line"/>
      <point x="281" y="375" type="line" smooth="yes"/>
      <point x="221" y="301"/>
      <point x="174" y="235"/>
      <point x="111" y="200" type="curve" smooth="yes"/>
      <point x="39" y="159"/>
      <point x="22" y="126"/>
      <point x="22" y="86" type="curve" smooth="yes"/>
      <point x="22" y="32"/>
      <point x="58" y="0"/>
      <point x="116" y="0" type="curve" smooth="yes"/>
      <point x="374" y="0" type="line" smooth="yes"/>
      <point x="432" y="0"/>
      <point x="468" y="32"/>
      <point x="468" y="86" type="curve" smooth="yes"/>
      <point x="468" y="124"/>
      <point x="451" y="150"/>
      <point x="424" y="170" type="curve" smooth="yes"/>
      <point x="395" y="191" type="line" smooth="yes"/>
      <point x="379" y="203"/>
      <point x="372" y="218"/>
      <point x="372" y="240" type="curve" smooth="yes"/>
      <point x="372" y="264"/>
      <point x="397" y="291"/>
      <point x="436" y="339" type="curve" smooth="yes"/>
      <point x="514" y="436" type="line"/>
    </contour>
    <contour>
      <point x="706" y="695" type="line" smooth="yes"/>
      <point x="674" y="731"/>
      <point x="654" y="749"/>
      <point x="654" y="764" type="curve" smooth="yes"/>
      <point x="653" y="769"/>
      <point x="655" y="773"/>
      <point x="659" y="778" type="curve" smooth="yes"/>
      <point x="673" y="795" type="line" smooth="yes"/>
      <point x="692" y="818"/>
      <point x="706" y="841"/>
      <point x="706" y="878" type="curve" smooth="yes"/>
      <point x="706" y="932"/>
      <point x="670" y="964"/>
      <point x="612" y="964" type="curve" smooth="yes"/>
      <point x="125" y="964" type="line" smooth="yes"/>
      <point x="67" y="964"/>
      <point x="31" y="932"/>
      <point x="31" y="878" type="curve" smooth="yes"/>
      <point x="31" y="839"/>
      <point x="51" y="810"/>
      <point x="83" y="789" type="curve" smooth="yes"/>
      <point x="112" y="770"/>
      <point x="145" y="747"/>
      <point x="185" y="698" type="curve" smooth="yes"/>
      <point x="394" y="442" type="line"/>
      <point x="418" y="413" type="line"/>
      <point x="505" y="306" type="line" smooth="yes"/>
      <point x="572" y="223"/>
      <point x="596" y="200"/>
      <point x="596" y="187" type="curve" smooth="yes"/>
      <point x="596" y="182"/>
      <point x="593" y="178"/>
      <point x="588" y="174" type="curve" smooth="yes"/>
      <point x="579" y="166" type="line" smooth="yes"/>
      <point x="561" y="150"/>
      <point x="547" y="123"/>
      <point x="547" y="86" type="curve" smooth="yes"/>
      <point x="547" y="32"/>
      <point x="583" y="0"/>
      <point x="641" y="0" type="curve" smooth="yes"/>
      <point x="1131" y="0" type="line" smooth="yes"/>
      <point x="1189" y="0"/>
      <point x="1225" y="32"/>
      <point x="1225" y="86" type="curve" smooth="yes"/>
      <point x="1225" y="124"/>
      <point x="1196" y="143"/>
      <point x="1169" y="172" type="curve" smooth="yes"/>
      <point x="1145" y="197"/>
      <point x="1136" y="205"/>
      <point x="1095" y="252" type="curve" smooth="yes"/>
      <point x="854" y="527" type="line"/>
      <point x="831" y="553" type="line"/>
    </contour>
    <contour>
      <point x="780" y="395" type="line"/>
      <point x="957" y="593" type="line" smooth="yes"/>
      <point x="1052" y="700"/>
      <point x="1099" y="745"/>
      <point x="1154" y="783" type="curve" smooth="yes"/>
      <point x="1199" y="814"/>
      <point x="1217" y="837"/>
      <point x="1217" y="878" type="curve" smooth="yes"/>
      <point x="1217" y="932"/>
      <point x="1181" y="964"/>
      <point x="1123" y="964" type="curve" smooth="yes"/>
      <point x="874" y="964" type="line" smooth="yes"/>
      <point x="816" y="964"/>
      <point x="780" y="932"/>
      <point x="780" y="878" type="curve" smooth="yes"/>
      <point x="780" y="840"/>
      <point x="797" y="818"/>
      <point x="830" y="795" type="curve" smooth="yes"/>
      <point x="844" y="785" type="line" smooth="yes"/>
      <point x="871" y="766"/>
      <point x="871" y="752"/>
      <point x="871" y="734" type="curve" smooth="yes"/>
      <point x="871" y="707"/>
      <point x="858" y="692"/>
      <point x="806" y="632" type="curve" smooth="yes"/>
      <point x="668" y="472" type="line"/>
    </contour>
  </outline>
</glyph>
<glyph name="y" format="2">
  <advance width="1376"/>
  <unicode hex="0079"/>
  <anchor x="730.0" y="1014.0" name="center"/>
  <outline>
    <contour>
      <point x="914.0" y="192.0" type="line"/>
      <point x="730.0" y="508.0" type="line" smooth="yes"/>
      <point x="694.0" y="578.0"/>
      <point x="690.0" y="602.0"/>
      <point x="690.0" y="626.0" type="curve" smooth="yes"/>
      <point x="690.0" y="682.0"/>
      <point x="726.0" y="724.0"/>
      <point x="748.0" y="746.0" type="curve" smooth="yes"/>
      <point x="734.0" y="752.0" type="line" smooth="yes"/>
      <point x="754.0" y="770.0"/>
      <point x="770.0" y="812.0"/>
      <point x="770.0" y="872.0" type="curve" smooth="yes"/>
      <point x="770.0" y="934.0"/>
      <point x="730.0" y="964.0"/>
      <point x="668.0" y="964.0" type="curve" smooth="yes"/>
      <point x="64.0" y="964.0" type="line" smooth="yes"/>
      <point x="24.0" y="964.0"/>
      <point x="2.0" y="924.0"/>
      <point x="2.0" y="860.0" type="curve" smooth="yes"/>
      <point x="2.0" y="812.0"/>
      <point x="32.0" y="778.0"/>
      <point x="94.0" y="748.0" type="curve" smooth="yes"/>
      <point x="132.0" y="730.0"/>
      <point x="148.0" y="710.0"/>
      <point x="170.0" y="670.0" type="curve" smooth="yes"/>
      <point x="670.0" y="-256.0" type="line"/>
    </contour>
    <contour>
      <point x="754.0" y="12.0" type="line" smooth="yes"/>
      <point x="662.0" y="-208.0"/>
      <point x="618.0" y="-254.0"/>
      <point x="574.0" y="-254.0" type="curve" smooth="yes"/>
      <point x="536.0" y="-254.0"/>
      <point x="516.0" y="-232.0"/>
      <point x="514.0" y="-222.0" type="curve" smooth="yes"/>
      <point x="464.0" y="-112.0" type="line" smooth="yes"/>
      <point x="422.0" y="-10.0"/>
      <point x="362.0" y="42.0"/>
      <point x="248.0" y="42.0" type="curve" smooth="yes"/>
      <point x="160.0" y="42.0"/>
      <point x="76.0" y="-34.0"/>
      <point x="76.0" y="-194.0" type="curve" smooth="yes"/>
      <point x="76.0" y="-362.0"/>
      <point x="200.0" y="-490.0"/>
      <point x="414.0" y="-490.0" type="curve" smooth="yes"/>
      <point x="656.0" y="-490.0"/>
      <point x="810.0" y="-350.0"/>
      <point x="928.0" y="-52.0" type="curve" smooth="yes"/>
      <point x="1108.0" y="416.0" type="line" smooth="yes"/>
      <point x="1148.0" y="512.0"/>
      <point x="1222.0" y="618.0"/>
      <point x="1260.0" y="662.0" type="curve" smooth="yes"/>
      <point x="1316.0" y="720.0"/>
      <point x="1356.0" y="788.0"/>
      <point x="1356.0" y="818.0" type="curve" smooth="yes"/>
      <point x="1356.0" y="922.0"/>
      <point x="1306.0" y="964.0"/>
      <point x="1232.0" y="964.0" type="curve" smooth="yes"/>
      <point x="952.0" y="964.0" type="line" smooth="yes"/>
      <point x="886.0" y="964.0"/>
      <point x="856.0" y="920.0"/>
      <point x="856.0" y="872.0" type="curve" smooth="yes"/>
      <point x="856.0" y="812.0"/>
      <point x="884.0" y="790.0"/>
      <point x="918.0" y="738.0" type="curve" smooth="yes"/>
      <point x="910.0" y="720.0" type="line" smooth="yes"/>
      <point x="940.0" y="670.0"/>
      <point x="954.0" y="654.0"/>
      <point x="954.0" y="586.0" type="curve" smooth="yes"/>
      <point x="954.0" y="558.0"/>
      <point x="970.0" y="522.0"/>
      <point x="890.0" y="330.0" type="curve" smooth="yes"/>
    </contour>
  </outline>
</glyph>
<glyph name="z" format="2">
  <advance width="1118"/>
  <unicode hex="007A"/>
  <anchor x="658.0" y="1020.0" name="center"/>
  <outline>
    <contour>
      <point x="994.0" y="724.0" type="line" smooth="yes"/>
      <point x="1042.0" y="782.0"/>
      <point x="1062.0" y="820.0"/>
      <point x="1062.0" y="864.0" type="curve" smooth="yes"/>
      <point x="1062.0" y="930.0"/>
      <point x="1016.0" y="964.0"/>
      <point x="926.0" y="964.0" type="curve" smooth="yes"/>
      <point x="380.0" y="964.0" type="line" smooth="yes"/>
      <point x="318.0" y="964.0"/>
      <point x="266.0" y="1000.0"/>
      <point x="212.0" y="1000.0" type="curve" smooth="yes"/>
      <point x="170.0" y="1000.0"/>
      <point x="142.0" y="982.0"/>
      <point x="118.0" y="880.0" type="curve" smooth="yes"/>
      <point x="98.0" y="762.0" type="line" smooth="yes"/>
      <point x="90.0" y="720.0"/>
      <point x="82.0" y="690.0"/>
      <point x="82.0" y="652.0" type="curve" smooth="yes"/>
      <point x="82.0" y="604.0"/>
      <point x="122.0" y="570.0"/>
      <point x="162.0" y="570.0" type="curve" smooth="yes"/>
      <point x="210.0" y="570.0"/>
      <point x="232.0" y="600.0"/>
      <point x="284.0" y="668.0" type="curve" smooth="yes"/>
      <point x="294.0" y="680.0" type="line" smooth="yes"/>
      <point x="360.0" y="764.0"/>
      <point x="420.0" y="790.0"/>
      <point x="542.0" y="790.0" type="curve" smooth="yes"/>
      <point x="676.0" y="790.0" type="line"/>
      <point x="658.0" y="904.0" type="line"/>
      <point x="102.0" y="240.0" type="line" smooth="yes"/>
      <point x="82.0" y="216.0"/>
      <point x="54.0" y="172.0"/>
      <point x="54.0" y="118.0" type="curve" smooth="yes"/>
      <point x="54.0" y="56.0"/>
      <point x="116.0" y="-2.0"/>
      <point x="190.0" y="-2.0" type="curve" smooth="yes"/>
      <point x="702.0" y="-2.0" type="line" smooth="yes"/>
      <point x="792.0" y="-2.0"/>
      <point x="828.0" y="-30.0"/>
      <point x="868.0" y="-30.0" type="curve" smooth="yes"/>
      <point x="946.0" y="-30.0"/>
      <point x="998.0" y="-6.0"/>
      <point x="1014.0" y="72.0" type="curve" smooth="yes"/>
      <point x="1042.0" y="210.0" type="line" smooth="yes"/>
      <point x="1058.0" y="276.0"/>
      <point x="1062.0" y="310.0"/>
      <point x="1062.0" y="344.0" type="curve" smooth="yes"/>
      <point x="1062.0" y="400.0"/>
      <point x="1030.0" y="434.0"/>
      <point x="980.0" y="434.0" type="curve" smooth="yes"/>
      <point x="936.0" y="434.0"/>
      <point x="904.0" y="400.0"/>
      <point x="870.0" y="338.0" type="curve" smooth="yes"/>
      <point x="868.0" y="336.0" type="line" smooth="yes"/>
      <point x="794.0" y="212.0"/>
      <point x="700.0" y="174.0"/>
      <point x="542.0" y="174.0" type="curve" smooth="yes"/>
      <point x="418.0" y="174.0" type="line"/>
      <point x="440.0" y="60.0" type="line"/>
    </contour>
  </outline>
</glyph>
<glyph name="braceleft" format="2">
  <advance width="826"/>
  <unicode hex="007B"/>
  <outline>
    <contour>
      <point x="382" y="612" type="curve" smooth="yes"/>
      <point x="382" y="626"/>
      <point x="393" y="637"/>
      <point x="416" y="637" type="curve" smooth="yes"/>
      <point x="585" y="637"/>
      <point x="683" y="704"/>
      <point x="683" y="810" type="curve" smooth="yes"/>
      <point x="683" y="939"/>
      <point x="544" y="1063"/>
      <point x="544" y="1190" type="curve" smooth="yes"/>
      <point x="544" y="1296"/>
      <point x="608" y="1358"/>
      <point x="708" y="1358" type="curve" smooth="yes"/>
      <point x="744" y="1358" type="line" smooth="yes"/>
      <point x="784" y="1358"/>
      <point x="803" y="1376"/>
      <point x="803" y="1411" type="curve" smooth="yes"/>
      <point x="803" y="1440"/>
      <point x="785" y="1464"/>
      <point x="744" y="1464" type="curve" smooth="yes"/>
      <point x="624" y="1464" type="line" smooth="yes"/>
      <point x="358" y="1464"/>
      <point x="202" y="1345"/>
      <point x="202" y="1177" type="curve" smooth="yes"/>
      <point x="202" y="968"/>
      <point x="376" y="858"/>
      <point x="376" y="742" type="curve" smooth="yes"/>
      <point x="376" y="698"/>
      <point x="349" y="672"/>
      <point x="306" y="672" type="curve" smooth="yes"/>
      <point x="247" y="672"/>
      <point x="225" y="706"/>
      <point x="171" y="706" type="curve" smooth="yes"/>
      <point x="116" y="706"/>
      <point x="80" y="663"/>
      <point x="80" y="612" type="curve" smooth="yes"/>
      <point x="80" y="560"/>
      <point x="116" y="518"/>
      <point x="171" y="518" type="curve" smooth="yes"/>
      <point x="225" y="518"/>
      <point x="247" y="552"/>
      <point x="306" y="552" type="curve" smooth="yes"/>
      <point x="349" y="552"/>
      <point x="376" y="526"/>
      <point x="376" y="481" type="curve" smooth="yes"/>
      <point x="376" y="365"/>
      <point x="202" y="256"/>
      <point x="202" y="46" type="curve" smooth="yes"/>
      <point x="202" y="-122"/>
      <point x="358" y="-240"/>
      <point x="624" y="-240" type="curve" smooth="yes"/>
      <point x="744" y="-240" type="line" smooth="yes"/>
      <point x="785" y="-240"/>
      <point x="803" y="-216"/>
      <point x="803" y="-188" type="curve" smooth="yes"/>
      <point x="803" y="-152"/>
      <point x="784" y="-134"/>
      <point x="744" y="-134" type="curve" smooth="yes"/>
      <point x="708" y="-134" type="line" smooth="yes"/>
      <point x="608" y="-134"/>
      <point x="544" y="-72"/>
      <point x="544" y="34" type="curve" smooth="yes"/>
      <point x="544" y="160"/>
      <point x="683" y="284"/>
      <point x="683" y="414" type="curve" smooth="yes"/>
      <point x="683" y="520"/>
      <point x="585" y="586"/>
      <point x="416" y="586" type="curve" smooth="yes"/>
      <point x="393" y="586"/>
      <point x="382" y="596"/>
    </contour>
  </outline>
</glyph>
<glyph name="exclamdown" format="2">
  <advance width="560"/>
  <unicode hex="00A1"/>
  <outline>
    <contour>
      <point x="238.0" y="-574.0" type="curve" smooth="yes"/>
      <point x="62.0" y="-574.0"/>
      <point x="-18.0" y="-494.0"/>
      <point x="-18.0" y="-360.0" type="curve" smooth="yes"/>
      <point x="-18.0" y="-304.0"/>
      <point x="-12.0" y="-214.0"/>
      <point x="0.0" y="-144.0" type="curve" smooth="yes"/>
      <point x="120.0" y="344.0" type="line" smooth="yes"/>
      <point x="132.0" y="416.0"/>
      <point x="160.0" y="454.0"/>
      <point x="228.0" y="454.0" type="curve" smooth="yes"/>
      <point x="294.0" y="454.0"/>
      <point x="320.0" y="420.0"/>
      <point x="336.0" y="340.0" type="curve" smooth="yes"/>
      <point x="466.0" y="-164.0" type="line" smooth="yes"/>
      <point x="480.0" y="-250.0"/>
      <point x="484.0" y="-306.0"/>
      <point x="484.0" y="-366.0" type="curve" smooth="yes"/>
      <point x="484.0" y="-490.0"/>
      <point x="362.0" y="-574.0"/>
    </contour>
    <contour>
      <point x="241.89999999999998" y="960.01" type="curve" smooth="yes"/>
      <point x="94.65399999999994" y="960.01"/>
      <point x="-18.448000000000093" y="838.372"/>
      <point x="-18.448000000000093" y="695.394" type="curve" smooth="yes"/>
      <point x="-18.448000000000093" y="550.2819999999999"/>
      <point x="94.65399999999994" y="432.9119999999999"/>
      <point x="241.89999999999998" y="432.9119999999999" type="curve" smooth="yes"/>
      <point x="387.01199999999994" y="432.9119999999999"/>
      <point x="500.114" y="550.2819999999999"/>
      <point x="500.114" y="695.394" type="curve" smooth="yes"/>
      <point x="500.114" y="838.372"/>
      <point x="387.01199999999994" y="960.01"/>
    </contour>
  </outline>
</glyph>
<glyph name="cent" format="2">
  <advance width="964"/>
  <unicode hex="00A2"/>
  <outline>
    <contour>
      <point x="371" y="80" type="curve" smooth="yes"/>
      <point x="371" y="2"/>
      <point x="433" y="-32"/>
      <point x="511" y="-32" type="curve" smooth="yes"/>
      <point x="587" y="-32"/>
      <point x="649" y="14"/>
      <point x="647" y="80" type="curve" smooth="yes"/>
      <point x="645" y="152"/>
      <point x="560" y="238"/>
      <point x="560" y="676" type="curve" smooth="yes"/>
      <point x="560" y="1076"/>
      <point x="672" y="1152"/>
      <point x="672" y="1218" type="curve" smooth="yes"/>
      <point x="672" y="1294"/>
      <point x="599" y="1330"/>
      <point x="531" y="1330" type="curve" smooth="yes"/>
      <point x="453" y="1330"/>
      <point x="385" y="1296"/>
      <point x="385" y="1222" type="curve" smooth="yes"/>
      <point x="385" y="1162"/>
      <point x="499" y="1084"/>
      <point x="499" y="676" type="curve" smooth="yes"/>
      <point x="499" y="242"/>
      <point x="371" y="152"/>
    </contour>
    <contour>
      <point x="923" y="852" type="curve" smooth="yes"/>
      <point x="923" y="996"/>
      <point x="779" y="1094"/>
      <point x="546" y="1094" type="curve" smooth="yes"/>
      <point x="229" y="1094"/>
      <point x="41" y="904"/>
      <point x="41" y="636" type="curve" smooth="yes"/>
      <point x="41" y="398"/>
      <point x="239" y="234"/>
      <point x="513" y="234" type="curve" smooth="yes"/>
      <point x="719" y="234"/>
      <point x="892" y="348"/>
      <point x="892" y="482" type="curve" smooth="yes"/>
      <point x="892" y="518"/>
      <point x="859" y="544"/>
      <point x="826" y="544" type="curve" smooth="yes"/>
      <point x="799" y="544"/>
      <point x="766" y="534"/>
      <point x="723" y="502" type="curve" smooth="yes"/>
      <point x="690" y="468"/>
      <point x="626" y="448"/>
      <point x="544" y="448" type="curve" smooth="yes"/>
      <point x="464" y="448"/>
      <point x="410" y="560"/>
      <point x="410" y="720" type="curve" smooth="yes"/>
      <point x="410" y="856"/>
      <point x="437" y="964"/>
      <point x="511" y="964" type="curve" smooth="yes"/>
      <point x="571" y="964"/>
      <point x="604" y="930"/>
      <point x="604" y="882" type="curve" smooth="yes"/>
      <point x="604" y="856" type="line" smooth="yes"/>
      <point x="604" y="776"/>
      <point x="670" y="716"/>
      <point x="768" y="716" type="curve" smooth="yes"/>
      <point x="861" y="716"/>
      <point x="923" y="776"/>
    </contour>
  </outline>
</glyph>
<glyph name="sterling" format="2">
  <advance width="1369"/>
  <unicode hex="00A3"/>
  <outline>
    <contour>
      <point x="724" y="377"/>
      <point x="564" y="447"/>
      <point x="350" y="447" type="curve" smooth="yes"/>
      <point x="161.0" y="447.0"/>
      <point x="61.0" y="319"/>
      <point x="61" y="181" type="curve" smooth="yes"/>
      <point x="61.0" y="49"/>
      <point x="124" y="-40.0"/>
      <point x="260" y="-40" type="curve" smooth="yes"/>
      <point x="391" y="-40.0"/>
      <point x="457" y="18"/>
      <point x="458" y="146" type="curve" smooth="yes"/>
      <point x="458" y="190"/>
      <point x="483" y="208.0"/>
      <point x="506" y="208" type="curve" smooth="yes"/>
      <point x="547" y="208"/>
      <point x="551" y="182"/>
      <point x="583" y="137" type="curve" smooth="yes"/>
      <point x="672" y="13"/>
      <point x="768" y="-40.0"/>
      <point x="904" y="-40" type="curve" smooth="yes"/>
      <point x="1143" y="-40"/>
      <point x="1302.0" y="128"/>
      <point x="1302" y="444" type="curve" smooth="yes"/>
      <point x="1302" y="498"/>
      <point x="1270" y="529"/>
      <point x="1234" y="529" type="curve" smooth="yes"/>
      <point x="1194" y="529"/>
      <point x="1157" y="502"/>
      <point x="1137" y="470" type="curve" smooth="yes"/>
      <point x="1097" y="407"/>
      <point x="1025" y="377"/>
      <point x="898" y="377" type="curve" smooth="yes"/>
    </contour>
    <contour>
      <point x="641" y="350" type="line"/>
      <point x="640" y="553"/>
      <point x="637" y="821"/>
      <point x="637" y="1119" type="curve" smooth="yes"/>
      <point x="637" y="1257"/>
      <point x="679" y="1315"/>
      <point x="753" y="1315" type="curve" smooth="yes"/>
      <point x="809" y="1315"/>
      <point x="845" y="1279"/>
      <point x="845" y="1203" type="curve" smooth="yes"/>
      <point x="845" y="1072" type="line" smooth="yes"/>
      <point x="845" y="912"/>
      <point x="946.0" y="819.0"/>
      <point x="1084" y="819" type="curve" smooth="yes"/>
      <point x="1220.0" y="819.0"/>
      <point x="1303.0" y="905"/>
      <point x="1303" y="1058" type="curve" smooth="yes"/>
      <point x="1303.0" y="1277"/>
      <point x="1143.0" y="1438.0"/>
      <point x="795" y="1438" type="curve" smooth="yes"/>
      <point x="361" y="1438"/>
      <point x="157" y="1250"/>
      <point x="157" y="994" type="curve" smooth="yes"/>
      <point x="157" y="721"/>
      <point x="503" y="672"/>
      <point x="503" y="357" type="curve"/>
    </contour>
    <contour>
      <point x="592" y="593" type="line"/>
      <point x="969" y="593" type="line" smooth="yes"/>
      <point x="1001.1081081081081" y="593"/>
      <point x="1023.0" y="620.0"/>
      <point x="1023" y="662" type="curve" smooth="yes"/>
      <point x="1023.0" y="700.0"/>
      <point x="1001.1081081081081" y="730"/>
      <point x="969" y="730" type="curve" smooth="yes"/>
      <point x="589" y="730" type="line"/>
    </contour>
    <contour>
      <point x="130" y="652" type="curve" smooth="yes"/>
      <point x="130.0" y="616.0"/>
      <point x="155.16883116883116" y="593"/>
      <point x="187" y="593" type="curve" smooth="yes"/>
      <point x="492" y="593" type="line"/>
      <point x="338" y="786" type="line"/>
      <point x="191" y="730" type="line" smooth="yes"/>
      <point x="159.8947655593091" y="718.1503868797367"/>
      <point x="130.0" y="696.0"/>
    </contour>
  </outline>
</glyph>
<glyph name="yen" format="2">
  <advance width="1472"/>
  <unicode hex="00A5"/>
  <outline>
    <contour>
      <point x="134" y="458" type="curve" smooth="yes"/>
      <point x="134.0" y="420.0"/>
      <point x="152" y="396"/>
      <point x="185" y="396" type="curve" smooth="yes"/>
      <point x="1288" y="396" type="line" smooth="yes"/>
      <point x="1322.0" y="396.0"/>
      <point x="1345.0" y="420.0"/>
      <point x="1345" y="458" type="curve" smooth="yes"/>
      <point x="1345.0" y="493.0"/>
      <point x="1322.0" y="520.0"/>
      <point x="1288" y="520" type="curve" smooth="yes"/>
      <point x="188" y="520" type="line" smooth="yes"/>
      <point x="158" y="520"/>
      <point x="134.0" y="493.0"/>
    </contour>
    <contour>
      <point x="134" y="708" type="curve" smooth="yes"/>
      <point x="134" y="670"/>
      <point x="152.0" y="646.0"/>
      <point x="185" y="646" type="curve" smooth="yes"/>
      <point x="688" y="646" type="line"/>
      <point x="638" y="770" type="line"/>
      <point x="188" y="770" type="line" smooth="yes"/>
      <point x="158.0" y="770.0"/>
      <point x="134" y="743"/>
    </contour>
    <contour>
      <point x="961" y="646" type="line"/>
      <point x="1288" y="646" type="line" smooth="yes"/>
      <point x="1322.0" y="646.0"/>
      <point x="1345" y="670"/>
      <point x="1345" y="708" type="curve" smooth="yes"/>
      <point x="1345" y="743"/>
      <point x="1322.0" y="770.0"/>
      <point x="1288" y="770" type="curve" smooth="yes"/>
      <point x="1002" y="770" type="line"/>
    </contour>
    <component base="Y"/>
  </outline>
</glyph>
<glyph name="macron" format="2">
  <advance width="868"/>
  <unicode hex="00AF"/>
  <outline>
    <contour>
      <point x="50" y="1235" type="curve" smooth="yes"/>
      <point x="50" y="1159"/>
      <point x="91" y="1108"/>
      <point x="156" y="1108" type="curve" smooth="yes"/>
      <point x="710" y="1108" type="line" smooth="yes"/>
      <point x="775" y="1108"/>
      <point x="818" y="1159"/>
      <point x="818" y="1235" type="curve" smooth="yes"/>
      <point x="818" y="1314"/>
      <point x="773" y="1366"/>
      <point x="710" y="1366" type="curve" smooth="yes"/>
      <point x="158" y="1366" type="line" smooth="yes"/>
      <point x="95" y="1366"/>
      <point x="50" y="1314"/>
    </contour>
  </outline>
</glyph>
<glyph name="twosuperior" format="2">
  <advance width="820"/>
  <unicode hex="00B2"/>
  <outline>
    <contour>
      <point x="206" y="965" type="curve" smooth="yes"/>
      <point x="77" y="897"/>
      <point x="35" y="825"/>
      <point x="35" y="751" type="curve" smooth="yes"/>
      <point x="35" y="669"/>
      <point x="85" y="622"/>
      <point x="167" y="622" type="curve" smooth="yes"/>
      <point x="257" y="622"/>
      <point x="298" y="661"/>
      <point x="298" y="709" type="curve" smooth="yes"/>
      <point x="298" y="714"/>
      <point x="298" y="719"/>
      <point x="298" y="731" type="curve" smooth="yes"/>
      <point x="298" y="758"/>
      <point x="308" y="767"/>
      <point x="323" y="767" type="curve" smooth="yes"/>
      <point x="337" y="767"/>
      <point x="342" y="748"/>
      <point x="366" y="714" type="curve" smooth="yes"/>
      <point x="405" y="658"/>
      <point x="457" y="622"/>
      <point x="557" y="622" type="curve" smooth="yes"/>
      <point x="685" y="622"/>
      <point x="763" y="703"/>
      <point x="778" y="879" type="curve" smooth="yes"/>
      <point x="784" y="943"/>
      <point x="760" y="971"/>
      <point x="713" y="974" type="curve" smooth="yes"/>
      <point x="688" y="975"/>
      <point x="661" y="963"/>
      <point x="650" y="930" type="curve" smooth="yes"/>
      <point x="635" y="887"/>
      <point x="605" y="876"/>
      <point x="574" y="876" type="curve" smooth="yes"/>
      <point x="520" y="876"/>
      <point x="453" y="906"/>
      <point x="376" y="906" type="curve" smooth="yes"/>
      <point x="313" y="906"/>
      <point x="280" y="889"/>
      <point x="242" y="849" type="curve"/>
      <point x="250" y="845" type="line"/>
      <point x="307" y="905"/>
      <point x="361" y="929"/>
      <point x="461" y="951" type="curve" smooth="yes"/>
      <point x="671" y="1002"/>
      <point x="750" y="1079"/>
      <point x="750" y="1204" type="curve" smooth="yes"/>
      <point x="750" y="1341"/>
      <point x="643" y="1440"/>
      <point x="399" y="1440" type="curve" smooth="yes"/>
      <point x="155" y="1440"/>
      <point x="47" y="1335"/>
      <point x="47" y="1222" type="curve" smooth="yes"/>
      <point x="47" y="1137"/>
      <point x="103" y="1088"/>
      <point x="190" y="1088" type="curve" smooth="yes"/>
      <point x="282" y="1088"/>
      <point x="337" y="1136"/>
      <point x="337" y="1209" type="curve" smooth="yes"/>
      <point x="337" y="1271" type="line" smooth="yes"/>
      <point x="337" y="1318.0"/>
      <point x="342.0810810810811" y="1352.0"/>
      <point x="384" y="1352" type="curve" smooth="yes"/>
      <point x="420" y="1352.0"/>
      <point x="431.0" y="1322.0"/>
      <point x="431" y="1245" type="curve" smooth="yes"/>
      <point x="431.0" y="1108.0"/>
      <point x="363.2071685522468" y="1046.8338685614435"/>
    </contour>
  </outline>
</glyph>
<glyph name="acute" format="2">
  <advance width="558"/>
  <unicode hex="00B4"/>
  <anchor x="-396" y="974" name="center"/>
  <outline>
    <contour>
      <point x="137" y="1332" type="curve" smooth="yes"/>
      <point x="68" y="1176" type="line" smooth="yes"/>
      <point x="50" y="1136"/>
      <point x="40" y="1100"/>
      <point x="67" y="1071" type="curve" smooth="yes"/>
      <point x="91" y="1045"/>
      <point x="137" y="1045"/>
      <point x="175" y="1063" type="curve" smooth="yes"/>
      <point x="331" y="1139" type="line" smooth="yes"/>
      <point x="443" y="1193"/>
      <point x="491" y="1241"/>
      <point x="506" y="1323" type="curve" smooth="yes"/>
      <point x="521" y="1407"/>
      <point x="468.0465360423422" y="1494.9919274212264"/>
      <point x="370" y="1512" type="curve" smooth="yes"/>
      <point x="254.94230670566628" y="1532.010033616406"/>
      <point x="190.24382510182195" y="1452.377343708467"/>
    </contour>
  </outline>
</glyph>
<glyph name="mu.math" format="2">
  <advance width="1350"/>
  <unicode hex="00B5"/>
  <outline>
    <contour>
      <point x="131" y="343" type="line"/>
      <point x="131.0" y="58.56995581737851"/>
      <point x="-5.0" y="-149.28276877761414"/>
      <point x="-5" y="-276" type="curve" smooth="yes"/>
      <point x="-5.0" y="-409.1612903225806"/>
      <point x="81.00000000000001" y="-491.0"/>
      <point x="197" y="-491" type="curve" smooth="yes"/>
      <point x="304.0" y="-491.0"/>
      <point x="393.0" y="-409.37209302325584"/>
      <point x="393" y="-296" type="curve" smooth="yes"/>
      <point x="393.0" y="-144.25040387722132"/>
      <point x="211.0" y="-1.791599353796471"/>
      <point x="211" y="343" type="curve"/>
    </contour>
    <component base="u"/>
  </outline>
</glyph>
<glyph name="cedilla" format="2">
  <advance width="717"/>
  <unicode hex="00B8"/>
  <outline>
    <contour>
      <point x="305" y="16" type="line"/>
      <point x="202" y="-156" type="line" smooth="yes"/>
      <point x="178" y="-197"/>
      <point x="193" y="-238"/>
      <point x="237" y="-238" type="curve" smooth="yes"/>
      <point x="290" y="-238" type="line" smooth="yes"/>
      <point x="339.61538461538464" y="-238"/>
      <point x="365.0" y="-259.72972972972974"/>
      <point x="365" y="-305" type="curve" smooth="yes"/>
      <point x="365.0" y="-345.58181818181816"/>
      <point x="335.75" y="-367.0"/>
      <point x="293" y="-367" type="curve" smooth="yes"/>
      <point x="254.36" y="-367.0"/>
      <point x="226.98168634596377" y="-346.9439710254439"/>
      <point x="201" y="-320" type="curve" smooth="yes"/>
      <point x="178" y="-296"/>
      <point x="151" y="-280"/>
      <point x="120" y="-280" type="curve" smooth="yes"/>
      <point x="84.46153846153847" y="-280.0"/>
      <point x="50.0" y="-308.968253968254"/>
      <point x="50" y="-353" type="curve" smooth="yes"/>
      <point x="50.0" y="-428.0"/>
      <point x="137.54545454545453" y="-495.0"/>
      <point x="371" y="-495" type="curve" smooth="yes"/>
      <point x="579.4050632911392" y="-495.0"/>
      <point x="707.0" y="-414.0"/>
      <point x="707" y="-287" type="curve" smooth="yes"/>
      <point x="707.0" y="-163.0"/>
      <point x="624.2537313432836" y="-95.0"/>
      <point x="476" y="-95" type="curve" smooth="yes"/>
      <point x="400.6224489795918" y="-95.0"/>
      <point x="351.52400122966736" y="-102.02923029628178"/>
      <point x="310" y="-118" type="curve"/>
      <point x="346" y="-152" type="line"/>
      <point x="449" y="16" type="line"/>
    </contour>
  </outline>
</glyph>
<glyph name="ordmasculine" format="2">
  <advance width="1246"/>
  <unicode hex="00BA"/>
  <outline>
    <contour>
      <point x="631" y="1432" type="curve" smooth="yes"/>
      <point x="283" y="1432"/>
      <point x="50" y="1208"/>
      <point x="50" y="930" type="curve" smooth="yes"/>
      <point x="50" y="618"/>
      <point x="275" y="410"/>
      <point x="615" y="410" type="curve" smooth="yes"/>
      <point x="961" y="410"/>
      <point x="1196" y="630"/>
      <point x="1196" y="916" type="curve" smooth="yes"/>
      <point x="1196" y="1222"/>
      <point x="973" y="1432"/>
    </contour>
    <contour>
      <point x="706" y="622" type="curve" smooth="yes"/>
      <point x="639" y="604"/>
      <point x="559" y="686"/>
      <point x="506" y="890" type="curve" smooth="yes"/>
      <point x="452" y="1096"/>
      <point x="485" y="1206"/>
      <point x="545" y="1223" type="curve" smooth="yes"/>
      <point x="611" y="1242"/>
      <point x="690" y="1158"/>
      <point x="745" y="954" type="curve" smooth="yes"/>
      <point x="797" y="761"/>
      <point x="769" y="639"/>
    </contour>
  </outline>
</glyph>
